<?xml version="1.0" encoding="UTF-8"?>
<svg xmlns="http://www.w3.org/2000/svg" xmlns:xlink="http://www.w3.org/1999/xlink" width="420pt" height="350pt" viewBox="0 0 420 350" version="1.1">
<defs>
<filter id="alpha" filterUnits="objectBoundingBox" x="0%" y="0%" width="100%" height="100%">
  <feColorMatrix type="matrix" in="SourceGraphic" values="0 0 0 0 1 0 0 0 0 1 0 0 0 0 1 0 0 0 1 0"/>
</filter>
<mask id="mask0">
  <g filter="url(#alpha)">
<rect x="0" y="0" width="420" height="350" style="fill:rgb(0%,0%,0%);fill-opacity:0.101961;stroke:none;"/>
  </g>
</mask>
<clipPath id="clip1">
  <rect width="420" height="350"/>
</clipPath>
<g id="surface6" clip-path="url(#clip1)">
<path style=" stroke:none;fill-rule:nonzero;fill:#8731E8;fill-opacity:1;" d="M 243.910156 46.417969 C 217 45.480469 191.367188 36.773438 166.890625 27.25 C 142.414062 17.726562 118.167969 7.171875 91.902344 2.125 C 75.003906 -1.121094 55.679688 -1.578125 42.070312 7.496094 C 28.96875 16.246094 24.734375 31.308594 22.460938 45.300781 C 20.746094 55.824219 19.738281 66.902344 24.429688 76.753906 C 27.691406 83.597656 33.472656 89.347656 37.472656 95.898438 C 51.390625 118.699219 41.550781 146.816406 26.472656 169.078125 C 19.402344 179.523438 11.191406 189.496094 5.730469 200.605469 C 0.269531 211.710938 -2.253906 224.457031 2.523438 235.800781 C 7.257812 247.050781 18.539062 255.484375 30.761719 261.421875 C 55.582031 273.484375 84.820312 276.933594 113.351562 278.886719 C 176.488281 283.214844 239.957031 281.339844 303.261719 279.464844 C 326.6875 278.769531 350.21875 278.066406 373.261719 274.4375 C 386.0625 272.421875 399.273438 269.226562 408.570312 261.5 C 420.363281 251.695312 423.285156 235.097656 415.378906 222.800781 C 402.121094 202.179688 365.480469 197.058594 356.203125 174.929688 C 351.101562 162.746094 356.339844 149.179688 363.753906 137.878906 C 379.65625 113.644531 406.304688 92.382812 407.707031 64.683594 C 408.671875 45.660156 395.859375 26.605469 376.050781 17.601562 C 355.285156 8.167969 326.488281 9.351562 311.179688 24.972656 C 295.398438 41.054688 267.675781 47.242188 243.910156 46.417969 Z M 243.910156 46.417969 "/>
</g>
<mask id="mask1">
  <g filter="url(#alpha)">
<rect x="0" y="0" width="420" height="350" style="fill:rgb(0%,0%,0%);fill-opacity:0.101961;stroke:none;"/>
  </g>
</mask>
<clipPath id="clip2">
  <rect width="420" height="350"/>
</clipPath>
<g id="surface9" clip-path="url(#clip2)">
<path style=" stroke:none;fill-rule:nonzero;fill:#8731E8;fill-opacity:1;" d="M 327.457031 325.414062 C 327.457031 315.949219 270.867188 308.277344 201.054688 308.277344 C 131.246094 308.277344 74.652344 315.949219 74.652344 325.414062 C 74.652344 334.875 131.246094 342.546875 201.054688 342.546875 C 270.867188 342.546875 327.457031 334.875 327.457031 325.414062 Z M 327.457031 325.414062 "/>
</g>
<mask id="mask2">
  <g filter="url(#alpha)">
<rect x="0" y="0" width="420" height="350" style="fill:rgb(0%,0%,0%);fill-opacity:0.101961;stroke:none;"/>
  </g>
</mask>
<clipPath id="clip3">
  <rect width="420" height="350"/>
</clipPath>
<g id="surface12" clip-path="url(#clip3)">
<path style=" stroke:none;fill-rule:nonzero;fill:rgb(0%,0%,0%);fill-opacity:1;" d="M 164.636719 94.242188 L 250.695312 94.242188 L 250.695312 277.257812 L 164.636719 277.257812 Z M 164.636719 94.242188 "/>
</g>
<linearGradient id="linear0" gradientUnits="userSpaceOnUse" x1="491.14" y1="640.96" x2="698.09" y2="640.96" gradientTransform="matrix(0.415842,0,0,0.416667,-39.600594,-12.575)">
<stop offset="0" style="stop-color:rgb(50.196078%,50.196078%,50.196078%);stop-opacity:0.25098;"/>
<stop offset="0.54" style="stop-color:rgb(50.196078%,50.196078%,50.196078%);stop-opacity:0.121569;"/>
<stop offset="1" style="stop-color:rgb(50.196078%,50.196078%,50.196078%);stop-opacity:0.101961;"/>
</linearGradient>
<mask id="mask3">
  <g filter="url(#alpha)">
<rect x="0" y="0" width="420" height="350" style="fill:rgb(0%,0%,0%);fill-opacity:0.101961;stroke:none;"/>
  </g>
</mask>
<clipPath id="clip4">
  <rect width="420" height="350"/>
</clipPath>
<g id="surface15" clip-path="url(#clip4)">
<path style=" stroke:none;fill-rule:nonzero;fill:rgb(0%,0%,0%);fill-opacity:1;" d="M 233.746094 273.300781 L 208.878906 274.472656 C 207.746094 274.527344 206.613281 274.527344 205.484375 274.472656 L 181.726562 273.304688 L 181.726562 254.445312 L 233.746094 254.445312 Z M 233.746094 273.300781 "/>
</g>
<mask id="mask4">
  <g filter="url(#alpha)">
<rect x="0" y="0" width="420" height="350" style="fill:rgb(0%,0%,0%);fill-opacity:0.101961;stroke:none;"/>
  </g>
</mask>
<clipPath id="clip5">
  <rect width="420" height="350"/>
</clipPath>
<g id="surface18" clip-path="url(#clip5)">
<path style=" stroke:none;fill-rule:nonzero;fill:rgb(0%,0%,0%);fill-opacity:1;" d="M 213.535156 215.566406 C 213.535156 215.566406 210.015625 218.507812 208.171875 215.566406 C 208.171875 215.566406 206.507812 220.542969 208.171875 222.207031 L 208.109375 222.546875 L 207.8125 224.027344 L 203.960938 256.113281 L 207.128906 261.589844 L 212.898438 254.339844 L 212.433594 224.339844 L 212.226562 222.621094 L 212.175781 222.203125 L 213.160156 222.203125 C 213.160156 222.203125 215.777344 217.675781 213.535156 215.566406 Z M 213.535156 215.566406 "/>
</g>
<mask id="mask5">
  <g filter="url(#alpha)">
<rect x="0" y="0" width="420" height="350" style="fill:rgb(0%,0%,0%);fill-opacity:0.101961;stroke:none;"/>
  </g>
</mask>
<clipPath id="clip6">
  <rect width="420" height="350"/>
</clipPath>
<g id="surface21" clip-path="url(#clip6)">
<path style=" stroke:none;fill-rule:nonzero;fill:rgb(0%,0%,0%);fill-opacity:1;" d="M 214.367188 215.566406 C 214.367188 215.566406 210.847656 218.507812 209.003906 215.566406 C 209.003906 215.566406 207.339844 220.542969 209.003906 222.207031 L 208.941406 222.546875 L 208.644531 224.027344 L 204.792969 256.113281 L 207.960938 261.589844 L 213.730469 254.339844 L 213.265625 224.339844 L 213.054688 222.621094 L 213.007812 222.203125 L 213.992188 222.203125 C 213.992188 222.203125 216.609375 217.675781 214.367188 215.566406 Z M 214.367188 215.566406 "/>
</g>
<mask id="mask6">
  <g filter="url(#alpha)">
<rect x="0" y="0" width="420" height="350" style="fill:rgb(0%,0%,0%);fill-opacity:0.101961;stroke:none;"/>
  </g>
</mask>
<clipPath id="clip7">
  <rect width="420" height="350"/>
</clipPath>
<g id="surface24" clip-path="url(#clip7)">
<path style=" stroke:none;fill-rule:nonzero;fill:rgb(0%,0%,0%);fill-opacity:1;" d="M 181.25 317.492188 C 179.453125 317.480469 177.664062 317.296875 175.90625 316.945312 C 175.035156 316.730469 173.945312 316.488281 172.953125 316.273438 L 172.71875 313.453125 L 180.621094 313.871094 Z M 181.25 317.492188 "/>
</g>
<mask id="mask7">
  <g filter="url(#alpha)">
<rect x="0" y="0" width="420" height="350" style="fill:rgb(0%,0%,0%);fill-opacity:0.101961;stroke:none;"/>
  </g>
</mask>
<clipPath id="clip8">
  <rect width="420" height="350"/>
</clipPath>
<g id="surface27" clip-path="url(#clip8)">
<path style=" stroke:none;fill-rule:nonzero;fill:rgb(0%,0%,0%);fill-opacity:1;" d="M 181.710938 320.175781 L 173.34375 321.007812 L 173.105469 318.203125 C 173.421875 318.214844 173.730469 318.28125 174.015625 318.402344 C 175.542969 319.503906 179.90625 318.628906 181.382812 318.277344 Z M 181.710938 320.175781 "/>
</g>
<mask id="mask8">
  <g filter="url(#alpha)">
<rect x="0" y="0" width="420" height="350" style="fill:rgb(0%,0%,0%);fill-opacity:0.101961;stroke:none;"/>
  </g>
</mask>
<clipPath id="clip9">
  <rect width="420" height="350"/>
</clipPath>
<g id="surface30" clip-path="url(#clip9)">
<path style=" stroke:none;fill-rule:nonzero;fill:rgb(0%,0%,0%);fill-opacity:1;" d="M 242.609375 313.875 L 242.378906 316.691406 C 241.382812 316.902344 240.296875 317.144531 239.421875 317.363281 C 237.664062 317.714844 235.875 317.898438 234.082031 317.914062 L 234.710938 314.292969 Z M 242.609375 313.875 "/>
</g>
<mask id="mask9">
  <g filter="url(#alpha)">
<rect x="0" y="0" width="420" height="350" style="fill:rgb(0%,0%,0%);fill-opacity:0.101961;stroke:none;"/>
  </g>
</mask>
<clipPath id="clip10">
  <rect width="420" height="350"/>
</clipPath>
<g id="surface33" clip-path="url(#clip10)">
<path style=" stroke:none;fill-rule:nonzero;fill:rgb(0%,0%,0%);fill-opacity:1;" d="M 242.21875 318.621094 L 241.988281 321.425781 L 233.617188 320.589844 L 233.949219 318.695312 C 235.425781 319.050781 239.769531 319.921875 241.308594 318.820312 C 241.597656 318.699219 241.90625 318.628906 242.21875 318.621094 Z M 242.21875 318.621094 "/>
</g>
<mask id="mask10">
  <g filter="url(#alpha)">
<rect x="0" y="0" width="420" height="350" style="fill:rgb(0%,0%,0%);fill-opacity:0.101961;stroke:none;"/>
  </g>
</mask>
<clipPath id="clip11">
  <rect width="420" height="350"/>
</clipPath>
<g id="surface36" clip-path="url(#clip11)">
<path style=" stroke:none;fill-rule:nonzero;fill:rgb(0%,0%,0%);fill-opacity:1;" d="M 217.875 204.3125 C 213.007812 207.90625 206.253906 207.433594 201.933594 203.191406 C 202.015625 201.902344 202.035156 200.902344 202.035156 200.902344 C 202.035156 200.902344 217.839844 198.195312 217.214844 200.902344 C 216.972656 202.007812 217.339844 203.234375 217.875 204.3125 Z M 217.875 204.3125 "/>
</g>
<mask id="mask11">
  <g filter="url(#alpha)">
<rect x="0" y="0" width="420" height="350" style="fill:rgb(0%,0%,0%);fill-opacity:0.101961;stroke:none;"/>
  </g>
</mask>
<clipPath id="clip12">
  <rect width="420" height="350"/>
</clipPath>
<g id="surface39" clip-path="url(#clip12)">
<path style=" stroke:none;fill-rule:nonzero;fill:rgb(0%,0%,0%);fill-opacity:1;" d="M 222.742188 191.964844 C 222.09375 192.496094 221.25 192.726562 220.421875 192.597656 C 218.515625 192.179688 217.863281 189.261719 215.917969 189.0625 C 213.972656 188.863281 212.679688 191.5625 210.707031 191.507812 C 209.875 191.488281 209.125 190.941406 208.363281 190.5625 C 207.023438 189.898438 204.820312 189.496094 203.371094 189.996094 C 201.195312 190.742188 200.460938 192.757812 199.070312 194.363281 C 198.835938 194.636719 198.574219 194.886719 198.292969 195.117188 C 198.261719 194.726562 198.246094 194.335938 198.246094 193.941406 C 198.183594 187.453125 203.140625 182.027344 209.59375 181.507812 C 216.046875 180.988281 221.804688 185.554688 222.777344 191.964844 Z M 222.742188 191.964844 "/>
</g>
<mask id="mask12">
  <g filter="url(#alpha)">
<rect x="0" y="0" width="420" height="350" style="fill:rgb(0%,0%,0%);fill-opacity:0.101961;stroke:none;"/>
  </g>
</mask>
<clipPath id="clip13">
  <rect width="420" height="350"/>
</clipPath>
<g id="surface42" clip-path="url(#clip13)">
<path style=" stroke:none;fill-rule:nonzero;fill:rgb(0%,0%,0%);fill-opacity:1;" d="M 222.671875 262.882812 L 220.425781 263.496094 C 219.78125 261.550781 218.71875 259.109375 217.203125 258.171875 C 217.910156 257.914062 218.59375 257.589844 219.246094 257.203125 Z M 222.671875 262.882812 "/>
</g>
<mask id="mask13">
  <g filter="url(#alpha)">
<rect x="0" y="0" width="420" height="350" style="fill:rgb(0%,0%,0%);fill-opacity:0.101961;stroke:none;"/>
  </g>
</mask>
<clipPath id="clip14">
  <rect width="420" height="350"/>
</clipPath>
<g id="surface45" clip-path="url(#clip14)">
<path style=" stroke:none;fill-rule:nonzero;fill:rgb(0%,0%,0%);fill-opacity:1;" d="M 237.855469 257.523438 C 236.925781 258.277344 236.136719 258.964844 236.136719 258.964844 C 236.136719 258.964844 225.324219 262.363281 223.246094 266.632812 C 223.246094 266.632812 221.582031 258.300781 218.046875 258.195312 C 218.046875 258.195312 221.851562 256.699219 222.949219 255.421875 L 233.605469 254.863281 C 233.605469 254.863281 235.6875 255.996094 237.855469 257.523438 Z M 237.855469 257.523438 "/>
</g>
<mask id="mask14">
  <g filter="url(#alpha)">
<rect x="0" y="0" width="420" height="350" style="fill:rgb(0%,0%,0%);fill-opacity:0.101961;stroke:none;"/>
  </g>
</mask>
<clipPath id="clip15">
  <rect width="420" height="350"/>
</clipPath>
<g id="surface48" clip-path="url(#clip15)">
<path style=" stroke:none;fill-rule:nonzero;fill:rgb(0%,0%,0%);fill-opacity:1;" d="M 211.25 266.898438 C 208.078125 267.703125 206.027344 265.953125 204.324219 263.246094 C 203.636719 262.164062 203.984375 261.296875 204.882812 260.617188 L 205.207031 260.746094 C 205.207031 260.746094 210.921875 263.230469 211.25 266.898438 Z M 211.25 266.898438 "/>
</g>
<mask id="mask15">
  <g filter="url(#alpha)">
<rect x="0" y="0" width="420" height="350" style="fill:rgb(0%,0%,0%);fill-opacity:0.101961;stroke:none;"/>
  </g>
</mask>
<clipPath id="clip16">
  <rect width="420" height="350"/>
</clipPath>
<g id="surface51" clip-path="url(#clip16)">
<path style=" stroke:none;fill-rule:nonzero;fill:rgb(0%,0%,0%);fill-opacity:1;" d="M 201.140625 259.710938 C 197.734375 261.335938 197.003906 263.675781 196.984375 265.359375 C 195.945312 264.902344 194.867188 264.542969 193.761719 264.289062 L 199.949219 259.238281 Z M 201.140625 259.710938 "/>
</g>
<mask id="mask16">
  <g filter="url(#alpha)">
<rect x="0" y="0" width="420" height="350" style="fill:rgb(0%,0%,0%);fill-opacity:0.101961;stroke:none;"/>
  </g>
</mask>
<clipPath id="clip17">
  <rect width="420" height="350"/>
</clipPath>
<g id="surface54" clip-path="url(#clip17)">
<path style=" stroke:none;fill-rule:nonzero;fill:rgb(0%,0%,0%);fill-opacity:1;" d="M 195.695312 268.714844 C 195.695312 268.714844 185.714844 260.800781 180.933594 257.363281 C 180.335938 256.933594 179.777344 256.453125 179.269531 255.921875 C 180.683594 255.027344 181.738281 254.445312 181.738281 254.445312 L 194.039062 254.945312 C 194.367188 255.515625 194.5625 255.902344 194.5625 255.902344 L 201.21875 260.277344 C 193.199219 262.882812 195.695312 268.714844 195.695312 268.714844 Z M 195.695312 268.714844 "/>
</g>
<mask id="mask17">
  <g filter="url(#alpha)">
<rect x="0" y="0" width="420" height="350" style="fill:rgb(0%,0%,0%);fill-opacity:0.101961;stroke:none;"/>
  </g>
</mask>
<clipPath id="clip18">
  <rect width="420" height="350"/>
</clipPath>
<g id="surface57" clip-path="url(#clip18)">
<path style=" stroke:none;fill-rule:nonzero;fill:rgb(0%,0%,0%);fill-opacity:1;" d="M 212.640625 222.203125 L 208.585938 222.203125 C 208.5625 222.179688 208.539062 222.15625 208.519531 222.128906 L 208.585938 221.789062 L 209.105469 220.4375 L 212.589844 221.789062 Z M 212.640625 222.203125 "/>
</g>
<mask id="mask18">
  <g filter="url(#alpha)">
<rect x="0" y="0" width="420" height="350" style="fill:rgb(0%,0%,0%);fill-opacity:0.101961;stroke:none;"/>
  </g>
</mask>
<clipPath id="clip19">
  <rect width="420" height="350"/>
</clipPath>
<g id="surface60" clip-path="url(#clip19)">
<path style=" stroke:none;fill-rule:nonzero;fill:rgb(0%,0%,0%);fill-opacity:1;" d="M 218.707031 205.488281 L 223.949219 206.839844 C 223.949219 206.839844 218.980469 219.757812 217.886719 219.757812 L 211.601562 216.738281 Z M 218.707031 205.488281 "/>
</g>
<mask id="mask19">
  <g filter="url(#alpha)">
<rect x="0" y="0" width="420" height="350" style="fill:rgb(0%,0%,0%);fill-opacity:0.101961;stroke:none;"/>
  </g>
</mask>
<clipPath id="clip20">
  <rect width="420" height="350"/>
</clipPath>
<g id="surface63" clip-path="url(#clip20)">
<path style=" stroke:none;fill-rule:nonzero;fill:rgb(0%,0%,0%);fill-opacity:1;" d="M 219.8125 207.152344 L 211.417969 216.070312 L 211.183594 216.320312 L 210.882812 216.140625 L 218.222656 204.925781 L 218.398438 205.222656 C 218.8125 205.90625 219.289062 206.550781 219.8125 207.152344 Z M 219.8125 207.152344 "/>
</g>
<mask id="mask20">
  <g filter="url(#alpha)">
<rect x="0" y="0" width="420" height="350" style="fill:rgb(0%,0%,0%);fill-opacity:0.101961;stroke:none;"/>
  </g>
</mask>
<clipPath id="clip21">
  <rect width="420" height="350"/>
</clipPath>
<g id="surface66" clip-path="url(#clip21)">
<path style=" stroke:none;fill-rule:nonzero;fill:rgb(0%,0%,0%);fill-opacity:1;" d="M 201.484375 204.054688 L 196.941406 205.488281 C 196.941406 205.488281 201.414062 219.027344 202.660156 219.757812 L 210.769531 216.738281 Z M 201.484375 204.054688 "/>
</g>
<mask id="mask21">
  <g filter="url(#alpha)">
<rect x="0" y="0" width="420" height="350" style="fill:rgb(0%,0%,0%);fill-opacity:0.101961;stroke:none;"/>
  </g>
</mask>
<clipPath id="clip22">
  <rect width="420" height="350"/>
</clipPath>
<g id="surface69" clip-path="url(#clip22)">
<path style=" stroke:none;fill-rule:nonzero;fill:rgb(0%,0%,0%);fill-opacity:1;" d="M 211.417969 216.070312 L 211.183594 216.320312 C 211.183594 216.320312 200.269531 209.964844 201.101562 208.195312 C 201.515625 207.289062 201.761719 205.394531 201.890625 203.765625 L 201.890625 203.511719 Z M 211.417969 216.070312 "/>
</g>
<mask id="mask22">
  <g filter="url(#alpha)">
<rect x="0" y="0" width="420" height="350" style="fill:rgb(0%,0%,0%);fill-opacity:0.101961;stroke:none;"/>
  </g>
</mask>
<clipPath id="clip23">
  <rect width="420" height="350"/>
</clipPath>
<g id="surface72" clip-path="url(#clip23)">
<path style=" stroke:none;fill-rule:nonzero;fill:rgb(0%,0%,0%);fill-opacity:1;" d="M 191.082031 225.757812 C 191.082031 225.757812 193.820312 226.246094 193.769531 229.089844 C 193.71875 231.9375 194.898438 225.414062 194.898438 225.414062 Z M 191.082031 225.757812 "/>
</g>
<mask id="mask23">
  <g filter="url(#alpha)">
<rect x="0" y="0" width="420" height="350" style="fill:rgb(0%,0%,0%);fill-opacity:0.101961;stroke:none;"/>
  </g>
</mask>
<clipPath id="clip24">
  <rect width="420" height="350"/>
</clipPath>
<g id="surface75" clip-path="url(#clip24)">
<path style=" stroke:none;fill-rule:nonzero;fill:rgb(0%,0%,0%);fill-opacity:1;" d="M 191.707031 234.507812 C 191.707031 234.507812 190.945312 238.8125 191.707031 242.703125 C 192.46875 246.597656 192.402344 247.914062 192.992188 248.121094 C 193.582031 248.328125 191.707031 234.507812 191.707031 234.507812 Z M 191.707031 234.507812 "/>
</g>
<mask id="mask24">
  <g filter="url(#alpha)">
<rect x="0" y="0" width="420" height="350" style="fill:rgb(0%,0%,0%);fill-opacity:0.101961;stroke:none;"/>
  </g>
</mask>
<clipPath id="clip25">
  <rect width="420" height="350"/>
</clipPath>
<g id="surface78" clip-path="url(#clip25)">
<path style=" stroke:none;fill-rule:nonzero;fill:rgb(0%,0%,0%);fill-opacity:1;" d="M 226.636719 234.089844 C 226.195312 234.148438 225.800781 234.398438 225.5625 234.773438 C 225.320312 235.148438 225.257812 235.613281 225.390625 236.039062 C 225.738281 237.777344 226.636719 234.089844 226.636719 234.089844 Z M 226.636719 234.089844 "/>
</g>
<mask id="mask25">
  <g filter="url(#alpha)">
<rect x="0" y="0" width="420" height="350" style="fill:rgb(0%,0%,0%);fill-opacity:0.101961;stroke:none;"/>
  </g>
</mask>
<clipPath id="clip26">
  <rect width="420" height="350"/>
</clipPath>
<g id="surface81" clip-path="url(#clip26)">
<path style=" stroke:none;fill-rule:nonzero;fill:rgb(0%,0%,0%);fill-opacity:1;" d="M 179.09375 248.675781 C 179.09375 248.675781 188.007812 247.914062 189.492188 249.507812 C 190.976562 251.105469 179.09375 248.675781 179.09375 248.675781 Z M 179.09375 248.675781 "/>
</g>
<mask id="mask26">
  <g filter="url(#alpha)">
<rect x="0" y="0" width="420" height="350" style="fill:rgb(0%,0%,0%);fill-opacity:0.101961;stroke:none;"/>
  </g>
</mask>
<clipPath id="clip27">
  <rect width="420" height="350"/>
</clipPath>
<g id="surface84" clip-path="url(#clip27)">
<path style=" stroke:none;fill-rule:nonzero;fill:rgb(0%,0%,0%);fill-opacity:1;" d="M 230.796875 249.277344 C 230.796875 249.277344 237.3125 248.476562 238.839844 249.585938 "/>
</g>
<mask id="mask27">
  <g filter="url(#alpha)">
<rect x="0" y="0" width="420" height="350" style="fill:rgb(0%,0%,0%);fill-opacity:0.101961;stroke:none;"/>
  </g>
</mask>
<clipPath id="clip28">
  <rect width="420" height="350"/>
</clipPath>
<g id="surface87" clip-path="url(#clip28)">
<path style=" stroke:none;fill-rule:nonzero;fill:rgb(0%,0%,0%);fill-opacity:1;" d="M 233.433594 250.339844 C 233.433594 250.339844 237.3125 250.480469 238.214844 250.964844 "/>
</g>
<mask id="mask28">
  <g filter="url(#alpha)">
<rect x="0" y="0" width="420" height="350" style="fill:rgb(0%,0%,0%);fill-opacity:0.101961;stroke:none;"/>
  </g>
</mask>
<clipPath id="clip29">
  <rect width="420" height="350"/>
</clipPath>
<g id="surface90" clip-path="url(#clip29)">
<path style=" stroke:none;fill-rule:nonzero;fill:rgb(0%,0%,0%);fill-opacity:1;" d="M 234.195312 251.738281 C 234.195312 251.738281 237.726562 251.601562 238.214844 252.152344 "/>
</g>
<mask id="mask29">
  <g filter="url(#alpha)">
<rect x="0" y="0" width="420" height="350" style="fill:rgb(0%,0%,0%);fill-opacity:0.101961;stroke:none;"/>
  </g>
</mask>
<clipPath id="clip30">
  <rect width="420" height="350"/>
</clipPath>
<g id="surface93" clip-path="url(#clip30)">
<path style=" stroke:none;fill-rule:nonzero;fill:rgb(0%,0%,0%);fill-opacity:1;" d="M 184.347656 271.320312 C 184.347656 271.320312 187.375 272.898438 187.066406 274.511719 C 186.757812 276.125 184.347656 271.320312 184.347656 271.320312 Z M 184.347656 271.320312 "/>
</g>
<mask id="mask30">
  <g filter="url(#alpha)">
<rect x="0" y="0" width="420" height="350" style="fill:rgb(0%,0%,0%);fill-opacity:0.101961;stroke:none;"/>
  </g>
</mask>
<clipPath id="clip31">
  <rect width="420" height="350"/>
</clipPath>
<g id="surface96" clip-path="url(#clip31)">
<path style=" stroke:none;fill-rule:nonzero;fill:rgb(0%,0%,0%);fill-opacity:1;" d="M 181.726562 272.085938 C 181.726562 272.085938 186.347656 278.089844 185.71875 280.070312 C 185.089844 282.050781 181.726562 272.085938 181.726562 272.085938 Z M 181.726562 272.085938 "/>
</g>
<mask id="mask31">
  <g filter="url(#alpha)">
<rect x="0" y="0" width="420" height="350" style="fill:rgb(0%,0%,0%);fill-opacity:0.101961;stroke:none;"/>
  </g>
</mask>
<clipPath id="clip32">
  <rect width="420" height="350"/>
</clipPath>
<g id="surface99" clip-path="url(#clip32)">
<path style=" stroke:none;fill-rule:nonzero;fill:rgb(0%,0%,0%);fill-opacity:1;" d="M 231.25 273.082031 C 231.25 273.082031 228.960938 274.972656 229.023438 276.527344 "/>
</g>
<mask id="mask32">
  <g filter="url(#alpha)">
<rect x="0" y="0" width="420" height="350" style="fill:rgb(0%,0%,0%);fill-opacity:0.101961;stroke:none;"/>
  </g>
</mask>
<clipPath id="clip33">
  <rect width="420" height="350"/>
</clipPath>
<g id="surface102" clip-path="url(#clip33)">
<path style=" stroke:none;fill-rule:nonzero;fill:rgb(0%,0%,0%);fill-opacity:1;" d="M 178.4375 310.277344 C 178.4375 310.277344 178.4375 312.050781 181.710938 314.652344 "/>
</g>
<mask id="mask33">
  <g filter="url(#alpha)">
<rect x="0" y="0" width="420" height="350" style="fill:rgb(0%,0%,0%);fill-opacity:0.101961;stroke:none;"/>
  </g>
</mask>
<clipPath id="clip34">
  <rect width="420" height="350"/>
</clipPath>
<g id="surface105" clip-path="url(#clip34)">
<path style=" stroke:none;fill-rule:nonzero;fill:rgb(0%,0%,0%);fill-opacity:1;" d="M 236.203125 306.113281 C 236.203125 306.113281 235.851562 309.796875 232.667969 311.703125 "/>
</g>
<mask id="mask34">
  <g filter="url(#alpha)">
<rect x="0" y="0" width="420" height="350" style="fill:rgb(0%,0%,0%);fill-opacity:0.101961;stroke:none;"/>
  </g>
</mask>
<clipPath id="clip35">
  <rect width="420" height="350"/>
</clipPath>
<g id="surface108" clip-path="url(#clip35)">
<path style=" stroke:none;fill-rule:nonzero;fill:rgb(0%,0%,0%);fill-opacity:1;" d="M 196.941406 181.097656 C 196.941406 180.808594 196.894531 180.511719 196.867188 180.222656 C 196.816406 180.855469 196.835938 181.496094 196.925781 182.128906 C 196.953125 181.785156 196.960938 181.441406 196.941406 181.097656 Z M 196.941406 181.097656 "/>
<path style=" stroke:none;fill-rule:nonzero;fill:rgb(0%,0%,0%);fill-opacity:1;" d="M 196.28125 192.738281 C 196.34375 191.527344 195.296875 190.558594 194.992188 189.402344 C 194.976562 189.347656 194.964844 189.292969 194.960938 189.234375 C 194.863281 189.703125 194.875 190.1875 194.992188 190.652344 C 195.238281 191.609375 195.976562 192.425781 196.210938 193.351562 C 196.230469 193.132812 196.273438 192.9375 196.28125 192.738281 Z M 196.28125 192.738281 "/>
<path style=" stroke:none;fill-rule:nonzero;fill:rgb(0%,0%,0%);fill-opacity:1;" d="M 225.367188 187.535156 C 225.007812 188.242188 224.5 188.867188 223.878906 189.363281 C 222.910156 190.257812 221.710938 191.222656 220.425781 190.929688 C 218.515625 190.511719 217.859375 187.597656 215.914062 187.394531 C 213.96875 187.195312 212.675781 189.894531 210.707031 189.839844 C 209.875 189.820312 209.125 189.273438 208.363281 188.894531 C 207.023438 188.234375 204.824219 187.828125 203.371094 188.328125 C 201.195312 189.074219 200.460938 191.089844 199.0625 192.695312 C 198.542969 193.292969 197.921875 193.796875 197.234375 194.1875 C 197.09375 194.28125 196.929688 194.332031 196.765625 194.332031 C 196.550781 194.304688 196.371094 194.160156 196.296875 193.957031 L 196.296875 193.988281 C 196.25 194.296875 196.222656 194.609375 196.21875 194.921875 C 196.222656 195.242188 196.449219 195.515625 196.765625 195.582031 C 196.929688 195.582031 197.09375 195.53125 197.234375 195.4375 C 197.921875 195.046875 198.542969 194.542969 199.0625 193.945312 C 200.46875 192.339844 201.195312 190.324219 203.371094 189.578125 C 204.839844 189.078125 207.039062 189.484375 208.363281 190.144531 C 209.125 190.523438 209.859375 191.070312 210.707031 191.089844 C 212.675781 191.140625 213.957031 188.429688 215.914062 188.644531 C 217.867188 188.863281 218.515625 191.746094 220.425781 192.179688 C 221.710938 192.472656 222.921875 191.507812 223.878906 190.613281 C 224.5 190.117188 225.007812 189.492188 225.367188 188.785156 C 225.597656 188.179688 225.660156 187.527344 225.542969 186.890625 C 225.507812 187.113281 225.449219 187.328125 225.367188 187.535156 Z M 225.367188 187.535156 "/>
</g>
<mask id="mask35">
  <g filter="url(#alpha)">
<rect x="0" y="0" width="420" height="350" style="fill:rgb(0%,0%,0%);fill-opacity:0.101961;stroke:none;"/>
  </g>
</mask>
<clipPath id="clip36">
  <rect width="420" height="350"/>
</clipPath>
<g id="surface111" clip-path="url(#clip36)">
<path style=" stroke:none;fill-rule:nonzero;fill:rgb(0%,0%,0%);fill-opacity:1;" d="M 168.320312 326.792969 C 168.320312 326.792969 171.71875 325.742188 173.128906 327.734375 "/>
</g>
<mask id="mask36">
  <g filter="url(#alpha)">
<rect x="0" y="0" width="420" height="350" style="fill:rgb(0%,0%,0%);fill-opacity:0.101961;stroke:none;"/>
  </g>
</mask>
<clipPath id="clip37">
  <rect width="420" height="350"/>
</clipPath>
<g id="surface114" clip-path="url(#clip37)">
<path style=" stroke:none;fill-rule:nonzero;fill:rgb(0%,0%,0%);fill-opacity:1;" d="M 247.027344 327.207031 C 247.027344 327.207031 241.398438 326.878906 241.621094 328.402344 "/>
</g>
<mask id="mask37">
  <g filter="url(#alpha)">
<rect x="0" y="0" width="420" height="350" style="fill:rgb(0%,0%,0%);fill-opacity:0.101961;stroke:none;"/>
  </g>
</mask>
<clipPath id="clip38">
  <rect width="420" height="350"/>
</clipPath>
<g id="surface117" clip-path="url(#clip38)">
<path style=" stroke:none;fill-rule:nonzero;fill:#8731E8;fill-opacity:1;" d="M 370.554688 322.226562 C 370.554688 321.179688 365.542969 320.328125 359.359375 320.328125 C 353.171875 320.328125 348.160156 321.179688 348.160156 322.226562 C 348.160156 323.273438 353.171875 324.121094 359.359375 324.121094 C 365.542969 324.121094 370.554688 323.273438 370.554688 322.226562 Z M 370.554688 322.226562 "/>
</g>
<mask id="mask38">
  <g filter="url(#alpha)">
<rect x="0" y="0" width="420" height="350" style="fill:rgb(0%,0%,0%);fill-opacity:0.101961;stroke:none;"/>
  </g>
</mask>
<clipPath id="clip39">
  <rect width="420" height="350"/>
</clipPath>
<g id="surface120" clip-path="url(#clip39)">
<path style=" stroke:none;fill-rule:nonzero;fill:#8731E8;fill-opacity:1;" d="M 49.078125 337.785156 C 49.078125 336.734375 44.0625 335.886719 37.878906 335.886719 C 31.695312 335.886719 26.679688 336.734375 26.679688 337.785156 C 26.679688 338.832031 31.695312 339.679688 37.878906 339.679688 C 44.0625 339.679688 49.078125 338.832031 49.078125 337.785156 Z M 49.078125 337.785156 "/>
</g>
<mask id="mask39">
  <g filter="url(#alpha)">
<rect x="0" y="0" width="420" height="350" style="fill:rgb(0%,0%,0%);fill-opacity:0.101961;stroke:none;"/>
  </g>
</mask>
<clipPath id="clip40">
  <rect width="420" height="350"/>
</clipPath>
<g id="surface123" clip-path="url(#clip40)">
<path style=" stroke:none;fill-rule:nonzero;fill:#8731E8;fill-opacity:1;" d="M 92.394531 347.953125 C 92.394531 346.90625 87.382812 346.058594 81.195312 346.058594 C 75.011719 346.058594 70 346.90625 70 347.953125 C 70 349 75.011719 349.851562 81.195312 349.851562 C 87.382812 349.851562 92.394531 349 92.394531 347.953125 Z M 92.394531 347.953125 "/>
</g>
<mask id="mask40">
  <g filter="url(#alpha)">
<rect x="0" y="0" width="420" height="350" style="fill:rgb(0%,0%,0%);fill-opacity:0.101961;stroke:none;"/>
  </g>
</mask>
<clipPath id="clip41">
  <rect width="420" height="350"/>
</clipPath>
<g id="surface126" clip-path="url(#clip41)">
<path style=" stroke:none;fill-rule:nonzero;fill:rgb(0%,0%,0%);fill-opacity:1;" d="M 81.773438 301.363281 C 81.976562 301.652344 82.132812 301.96875 82.242188 302.304688 C 86.242188 307.011719 88.375 311.410156 84.527344 311.515625 C 80.949219 311.621094 76.652344 318.039062 75.621094 319.660156 C 75.652344 319.785156 75.695312 319.902344 75.742188 320.027344 C 75.742188 320.027344 80.78125 311.632812 84.890625 311.515625 C 89 311.398438 86.289062 306.414062 81.773438 301.363281 Z M 81.773438 301.363281 "/>
</g>
<mask id="mask41">
  <g filter="url(#alpha)">
<rect x="0" y="0" width="420" height="350" style="fill:rgb(0%,0%,0%);fill-opacity:0.101961;stroke:none;"/>
  </g>
</mask>
<clipPath id="clip42">
  <rect width="420" height="350"/>
</clipPath>
<g id="surface129" clip-path="url(#clip42)">
<path style=" stroke:none;fill-rule:nonzero;fill:rgb(0%,0%,0%);fill-opacity:1;" d="M 69.710938 301.363281 C 69.511719 301.652344 69.351562 301.96875 69.242188 302.304688 C 65.242188 307.011719 63.113281 311.410156 66.953125 311.515625 C 70.539062 311.621094 74.835938 318.039062 75.867188 319.660156 C 75.832031 319.785156 75.789062 319.90625 75.742188 320.027344 C 75.742188 320.027344 70.707031 311.632812 66.59375 311.515625 C 62.480469 311.398438 65.191406 306.414062 69.710938 301.363281 Z M 69.710938 301.363281 "/>
</g>
<mask id="mask42">
  <g filter="url(#alpha)">
<rect x="0" y="0" width="420" height="350" style="fill:rgb(0%,0%,0%);fill-opacity:0.2;stroke:none;"/>
  </g>
</mask>
<clipPath id="clip43">
  <rect width="420" height="350"/>
</clipPath>
<g id="surface132" clip-path="url(#clip43)">
<path style=" stroke:none;fill-rule:nonzero;fill:rgb(0%,0%,0%);fill-opacity:1;" d="M 87.324219 327.5 C 80.113281 327.558594 70.5625 326.375 68.644531 325.203125 C 67.183594 324.308594 66.597656 321.105469 66.402344 319.628906 L 66.191406 319.628906 C 66.191406 319.628906 66.605469 324.789062 68.515625 325.960938 C 70.421875 327.136719 79.984375 328.316406 87.195312 328.257812 C 89.273438 328.257812 89.992188 327.5 89.953125 326.398438 C 89.664062 327.074219 88.871094 327.488281 87.324219 327.5 Z M 87.324219 327.5 "/>
</g>
</defs>
<g id="surface1">
<use xlink:href="#surface6" mask="url(#mask0)"/>
<use xlink:href="#surface9" mask="url(#mask1)"/>
<path style=" stroke:none;fill-rule:nonzero;fill:#8731E8;fill-opacity:1;" d="M 138.480469 274.402344 C 138.480469 274.402344 147.210938 273.003906 152.453125 279.1875 C 152.453125 279.1875 148.609375 282.222656 140.34375 278.019531 Z M 138.480469 274.402344 "/>
<path style=" stroke:none;fill-rule:nonzero;fill:#8731E8;fill-opacity:1;" d="M 137.546875 274.265625 C 137.546875 274.265625 131.976562 281.175781 134.707031 288.789062 C 134.707031 288.789062 139.25 286.964844 139.742188 277.691406 Z M 137.546875 274.265625 "/>
<path style=" stroke:none;fill-rule:nonzero;fill:#8731E8;fill-opacity:1;" d="M 132.558594 262.972656 C 132.558594 262.972656 136.050781 256.554688 150.023438 265.539062 C 150.023438 265.539062 148.160156 269.855469 141.988281 269.503906 C 135.816406 269.152344 134.167969 266.355469 132.558594 262.972656 Z M 132.558594 262.972656 "/>
<path style=" stroke:none;fill-rule:nonzero;fill:#8731E8;fill-opacity:1;" d="M 131.640625 262.507812 C 131.640625 262.507812 124.390625 261.675781 123.6875 278.300781 C 123.6875 278.300781 128.28125 279.257812 131.546875 273.996094 C 134.8125 268.734375 133.460938 265.792969 131.640625 262.507812 Z M 131.640625 262.507812 "/>
<path style=" stroke:none;fill-rule:nonzero;fill:#8731E8;fill-opacity:1;" d="M 127.414062 249.25 C 127.414062 249.25 131.488281 237.929688 146.28125 245.980469 C 146.28125 245.980469 142.902344 256.367188 128.925781 253.101562 Z M 127.414062 249.25 "/>
<path style=" stroke:none;fill-rule:nonzero;fill:#8731E8;fill-opacity:1;" d="M 122.871094 232.328125 C 122.871094 232.328125 130.558594 220.894531 144.183594 231.496094 C 144.183594 231.496094 139.410156 242.230469 124.039062 236.394531 Z M 122.871094 232.328125 "/>
<path style=" stroke:none;fill-rule:nonzero;fill:#8731E8;fill-opacity:1;" d="M 121.242188 216.230469 C 121.242188 216.230469 130.207031 205.730469 143.699219 216.230469 C 143.699219 216.230469 135.195312 225.445312 121.242188 218.914062 Z M 121.242188 216.230469 "/>
<path style=" stroke:none;fill-rule:nonzero;fill:#8731E8;fill-opacity:1;" d="M 119.84375 200.597656 C 119.84375 200.597656 128.925781 189.625 141.855469 200.011719 C 141.855469 200.011719 131.605469 209.695312 119.84375 203.164062 Z M 119.84375 200.597656 "/>
<path style=" stroke:none;fill-rule:nonzero;fill:#8731E8;fill-opacity:1;" d="M 120.660156 186.707031 C 120.660156 186.707031 130.226562 172.589844 142.320312 182.160156 C 142.320312 182.160156 132.070312 194.296875 120.660156 189.390625 Z M 120.660156 186.707031 "/>
<path style=" stroke:none;fill-rule:nonzero;fill:#8731E8;fill-opacity:1;" d="M 122.871094 170.492188 C 122.871094 170.492188 133.003906 156.492188 144.765625 167.226562 C 144.765625 167.226562 132.769531 179.359375 122.871094 173.058594 Z M 122.871094 170.492188 "/>
<path style=" stroke:none;fill-rule:nonzero;fill:#8731E8;fill-opacity:1;" d="M 126.253906 155.996094 C 126.253906 155.996094 138.242188 142.839844 148.710938 148.078125 C 148.710938 148.078125 136.207031 162.050781 125.730469 159.484375 Z M 126.253906 155.996094 "/>
<path style=" stroke:none;fill-rule:nonzero;fill:#8731E8;fill-opacity:1;" d="M 130.441406 142.257812 C 130.441406 142.257812 144.300781 126.152344 152.335938 131.519531 C 152.335938 131.519531 142.140625 144.019531 129.464844 145.292969 Z M 130.441406 142.257812 "/>
<path style=" stroke:none;fill-rule:nonzero;fill:#8731E8;fill-opacity:1;" d="M 136.492188 126.316406 C 136.492188 126.316406 148.609375 113.160156 157.457031 116.425781 C 157.457031 116.425781 147.09375 130.078125 134.867188 130.429688 Z M 136.492188 126.316406 "/>
<path style=" stroke:none;fill-rule:nonzero;fill:#8731E8;fill-opacity:1;" d="M 141.972656 111.410156 C 141.972656 111.410156 155.363281 98.808594 161.183594 101.023438 C 161.183594 101.023438 151.519531 115.023438 141.390625 114.207031 Z M 141.972656 111.410156 "/>
<path style=" stroke:none;fill-rule:nonzero;fill:#8731E8;fill-opacity:1;" d="M 147.328125 97.640625 C 147.328125 97.640625 158.855469 82.589844 165.144531 83.757812 C 165.144531 83.757812 158.15625 97.175781 147.328125 99.175781 Z M 147.328125 97.640625 "/>
<path style=" stroke:none;fill-rule:nonzero;fill:#8731E8;fill-opacity:1;" d="M 153.136719 79.089844 C 153.136719 79.089844 163.332031 67.550781 168.832031 67.578125 C 168.832031 67.578125 160.789062 82.996094 152.722656 82.855469 Z M 153.136719 79.089844 "/>
<path style=" stroke:none;fill-rule:nonzero;fill:#8731E8;fill-opacity:1;" d="M 156.585938 66.722656 L 166.425781 42.6875 C 166.425781 42.6875 166.917969 64.414062 155.328125 71.179688 Z M 156.585938 66.722656 "/>
<path style=" stroke:none;fill-rule:nonzero;fill:#8731E8;fill-opacity:1;" d="M 160.578125 40.214844 C 160.578125 40.214844 162.207031 20.148438 161.160156 18.515625 C 161.160156 18.515625 168.199219 35.183594 160.511719 49.082031 Z M 160.578125 40.214844 "/>
<path style=" stroke:none;fill-rule:nonzero;fill:#8731E8;fill-opacity:1;" d="M 127.035156 248.980469 C 127.035156 248.980469 116.828125 242.640625 110.222656 258.144531 C 110.222656 258.144531 119.304688 264.1875 128.234375 252.933594 Z M 127.035156 248.980469 "/>
<path style=" stroke:none;fill-rule:nonzero;fill:#8731E8;fill-opacity:1;" d="M 122.546875 231.683594 C 122.546875 231.683594 110.03125 225.960938 103.957031 242.148438 C 103.957031 242.148438 113.628906 248.816406 123.6875 235.773438 Z M 122.546875 231.683594 "/>
<path style=" stroke:none;fill-rule:nonzero;fill:#8731E8;fill-opacity:1;" d="M 120.660156 217.191406 C 120.660156 217.191406 111.695312 206.691406 98.207031 217.191406 C 98.207031 217.191406 106.703125 226.410156 120.660156 219.875 Z M 120.660156 217.191406 "/>
<path style=" stroke:none;fill-rule:nonzero;fill:#8731E8;fill-opacity:1;" d="M 119.542969 200.597656 C 119.542969 200.597656 110.457031 189.625 97.53125 200.011719 C 97.53125 200.011719 107.777344 209.695312 119.542969 203.164062 Z M 119.542969 200.597656 "/>
<path style=" stroke:none;fill-rule:nonzero;fill:#8731E8;fill-opacity:1;" d="M 120.660156 187.109375 C 120.660156 187.109375 114.289062 171.296875 100.441406 178.097656 C 100.441406 178.097656 107.925781 192.121094 120.097656 189.734375 Z M 120.660156 187.109375 "/>
<path style=" stroke:none;fill-rule:nonzero;fill:#8731E8;fill-opacity:1;" d="M 123.675781 170.414062 C 123.675781 170.414062 117.347656 154.324219 103.300781 161.785156 C 103.300781 161.785156 111.898438 176.527344 123.050781 172.898438 Z M 123.675781 170.414062 "/>
<path style=" stroke:none;fill-rule:nonzero;fill:#8731E8;fill-opacity:1;" d="M 127.601562 156.078125 C 127.601562 156.078125 125.105469 138.4375 113.484375 136.859375 C 113.484375 136.859375 115.949219 155.457031 126.050781 159.253906 Z M 127.601562 156.078125 "/>
<path style=" stroke:none;fill-rule:nonzero;fill:#8731E8;fill-opacity:1;" d="M 130.742188 142.289062 C 130.742188 142.289062 129.761719 121.039062 120.136719 120.300781 C 120.136719 120.300781 120.460938 136.425781 129.65625 145.300781 Z M 130.742188 142.289062 "/>
<path style=" stroke:none;fill-rule:nonzero;fill:#8731E8;fill-opacity:1;" d="M 137.492188 125.707031 C 137.492188 125.707031 134.621094 108.042969 125.433594 105.878906 C 125.433594 105.878906 126.574219 122.992188 136.582031 130.046875 Z M 137.492188 125.707031 "/>
<path style=" stroke:none;fill-rule:nonzero;fill:#8731E8;fill-opacity:1;" d="M 143.0625 111.539062 C 143.0625 111.539062 142.960938 93.128906 137.347656 90.425781 C 137.347656 90.425781 133.867188 107.089844 141.4375 113.886719 Z M 143.0625 111.539062 "/>
<path style=" stroke:none;fill-rule:nonzero;fill:#8731E8;fill-opacity:1;" d="M 147.757812 97.425781 C 147.757812 97.425781 146.964844 78.464844 141.15625 75.796875 C 141.15625 75.796875 139.164062 90.796875 146.882812 98.664062 Z M 147.757812 97.425781 "/>
<path style=" stroke:none;fill-rule:nonzero;fill:#8731E8;fill-opacity:1;" d="M 153.953125 80.589844 C 153.953125 80.589844 153.914062 65.175781 149.765625 61.558594 C 149.765625 61.558594 145.640625 78.449219 151.785156 83.691406 Z M 153.953125 80.589844 "/>
<path style=" stroke:none;fill-rule:nonzero;fill:#8731E8;fill-opacity:1;" d="M 156.09375 65.960938 L 152.0625 40.300781 C 152.0625 40.300781 146.570312 61.328125 156.285156 70.589844 Z M 156.09375 65.960938 "/>
<path style=" stroke:none;fill-rule:nonzero;fill:#8731E8;fill-opacity:1;" d="M 156.882812 40.457031 C 156.882812 40.457031 146.519531 23.210938 146.734375 21.292969 C 146.734375 21.292969 147.832031 39.375 160.871094 48.375 Z M 156.882812 40.457031 "/>
<path style=" stroke:none;fill-rule:nonzero;fill:#8731E8;fill-opacity:1;" d="M 158.097656 35.367188 C 158.097656 35.367188 148.316406 10.863281 143.894531 8.878906 C 143.894531 8.878906 157.867188 15.996094 158.914062 34.667969 Z M 158.097656 35.367188 "/>
<path style=" stroke:none;fill-rule:nonzero;fill:rgb(26.666667%,25.098039%,32.54902%);fill-opacity:1;" d="M 152.667969 82.988281 L 152 82.785156 C 160.253906 55.8125 162.316406 38.617188 157.800781 34.308594 L 158.28125 33.800781 C 163.0625 38.347656 161.125 55.339844 152.667969 82.988281 Z M 152.667969 82.988281 "/>
<path style=" stroke:none;fill-rule:nonzero;fill:rgb(26.666667%,25.098039%,32.54902%);fill-opacity:1;" d="M 129.9375 146.121094 L 128.953125 145.769531 C 129.824219 143.300781 130.769531 140.792969 131.757812 138.316406 C 140.375 116.800781 147.710938 96.789062 152.414062 81.421875 L 153.273438 81.003906 C 148.5625 96.398438 141.359375 117.183594 132.734375 138.726562 C 131.746094 141.175781 130.808594 143.675781 129.9375 146.121094 Z M 129.9375 146.121094 "/>
<path style=" stroke:none;fill-rule:nonzero;fill:rgb(26.666667%,25.098039%,32.54902%);fill-opacity:1;" d="M 150.765625 294.589844 C 150.632812 294.441406 137.253906 279.351562 127.929688 253.574219 C 122.460938 238.488281 119.417969 222.632812 118.90625 206.589844 C 118.265625 186.539062 122.464844 164.144531 129.660156 143.808594 L 130.441406 144.726562 C 114.292969 190.375 120.710938 229.496094 129.21875 253.058594 C 138.449219 278.597656 151.675781 293.527344 151.808594 293.675781 Z M 150.765625 294.589844 "/>
<path style=" stroke:none;fill-rule:nonzero;fill:rgb(22.745098%,21.568627%,40.784314%);fill-opacity:1;" d="M 268.253906 120.757812 L 270.035156 120.757812 C 270.5625 120.757812 270.988281 121.183594 270.988281 121.710938 L 270.988281 150.230469 C 270.988281 150.757812 270.5625 151.183594 270.035156 151.183594 L 268.253906 151.183594 C 267.730469 151.183594 267.304688 150.757812 267.304688 150.230469 L 267.304688 121.710938 C 267.304688 121.183594 267.730469 120.757812 268.253906 120.757812 Z M 268.253906 120.757812 "/>
<path style=" stroke:none;fill-rule:nonzero;fill:rgb(22.745098%,21.568627%,40.784314%);fill-opacity:1;" d="M 145.820312 96.921875 L 145.980469 96.921875 C 146.507812 96.921875 146.933594 97.347656 146.933594 97.875 L 146.933594 105.984375 C 146.933594 106.511719 146.507812 106.9375 145.980469 106.9375 L 145.820312 106.9375 C 145.292969 106.9375 144.867188 106.511719 144.867188 105.984375 L 144.867188 97.875 C 144.867188 97.347656 145.292969 96.921875 145.820312 96.921875 Z M 145.820312 96.921875 "/>
<path style=" stroke:none;fill-rule:nonzero;fill:rgb(22.745098%,21.568627%,40.784314%);fill-opacity:1;" d="M 145.746094 115.261719 L 146.167969 115.261719 C 146.695312 115.261719 147.121094 115.691406 147.121094 116.214844 L 147.121094 131.742188 C 147.121094 132.269531 146.695312 132.695312 146.167969 132.695312 L 145.746094 132.695312 C 145.21875 132.695312 144.792969 132.269531 144.792969 131.742188 L 144.792969 116.214844 C 144.792969 115.691406 145.21875 115.261719 145.746094 115.261719 Z M 145.746094 115.261719 "/>
<path style=" stroke:none;fill-rule:nonzero;fill:rgb(22.745098%,21.568627%,40.784314%);fill-opacity:1;" d="M 145.78125 138.796875 L 146.09375 138.796875 C 146.621094 138.796875 147.046875 139.222656 147.046875 139.75 L 147.046875 155.425781 C 147.046875 155.953125 146.621094 156.378906 146.09375 156.378906 L 145.78125 156.378906 C 145.253906 156.378906 144.828125 155.953125 144.828125 155.425781 L 144.828125 139.75 C 144.828125 139.222656 145.253906 138.796875 145.78125 138.796875 Z M 145.78125 138.796875 "/>
<path style=" stroke:none;fill-rule:nonzero;fill:rgb(22.745098%,21.568627%,40.784314%);fill-opacity:1;" d="M 162.25 63.820312 L 253.078125 63.820312 C 262.03125 63.820312 269.289062 71.09375 269.289062 80.066406 L 269.289062 298.570312 C 269.289062 307.542969 262.03125 314.816406 253.078125 314.816406 L 162.25 314.816406 C 153.292969 314.816406 146.035156 307.542969 146.035156 298.570312 L 146.035156 80.066406 C 146.035156 71.09375 153.292969 63.820312 162.25 63.820312 Z M 162.25 63.820312 "/>
<path style=" stroke:none;fill-rule:nonzero;fill:#8731E8;fill-opacity:1;" d="M 251.90625 70.339844 L 237.765625 70.339844 L 237.765625 72.046875 C 237.765625 76.507812 234.15625 80.125 229.703125 80.121094 L 184.738281 80.121094 C 180.285156 80.125 176.675781 76.507812 176.675781 72.046875 L 176.675781 70.339844 L 163.4375 70.339844 C 158.03125 70.339844 153.648438 74.734375 153.648438 80.148438 L 153.648438 298.472656 C 153.648438 303.886719 158.03125 308.277344 163.4375 308.277344 L 251.90625 308.277344 C 257.3125 308.277344 261.691406 303.886719 261.691406 298.472656 L 261.691406 80.167969 C 261.699219 77.5625 260.667969 75.0625 258.832031 73.21875 C 256.996094 71.378906 254.503906 70.339844 251.90625 70.339844 Z M 251.90625 70.339844 "/>
<path style=" stroke:none;fill-rule:nonzero;fill:rgb(90.196078%,90.980392%,92.54902%);fill-opacity:1;" d="M 197.382812 71.316406 L 211.375 71.316406 C 212.265625 71.316406 212.984375 72.039062 212.984375 72.929688 L 212.984375 73.203125 C 212.984375 74.09375 212.265625 74.816406 211.375 74.816406 L 197.382812 74.816406 C 196.496094 74.816406 195.773438 74.09375 195.773438 73.203125 L 195.773438 72.929688 C 195.773438 72.039062 196.496094 71.316406 197.382812 71.316406 Z M 197.382812 71.316406 "/>
<path style=" stroke:none;fill-rule:nonzero;fill:rgb(90.196078%,90.980392%,92.54902%);fill-opacity:1;" d="M 219.554688 73.066406 C 219.554688 74.164062 218.667969 75.054688 217.574219 75.054688 C 216.476562 75.054688 215.589844 74.164062 215.589844 73.066406 C 215.589844 71.96875 216.476562 71.078125 217.574219 71.078125 C 218.667969 71.078125 219.554688 71.96875 219.554688 73.066406 Z M 219.554688 73.066406 "/>
<path style=" stroke:none;fill-rule:nonzero;fill:#8731E8;fill-opacity:1;" d="M 311.964844 52.8125 C 311.964844 52.8125 276.949219 50.695312 281.074219 75.277344 C 281.074219 75.277344 280.242188 79.625 284.1875 81.597656 C 284.1875 81.597656 284.25 79.773438 287.777344 80.394531 C 289.035156 80.605469 290.3125 80.667969 291.582031 80.578125 C 293.296875 80.464844 294.929688 79.796875 296.234375 78.675781 C 296.234375 78.675781 306.074219 74.601562 309.902344 58.484375 C 309.902344 58.484375 312.734375 54.964844 312.621094 54.0625 L 306.710938 56.589844 C 306.710938 56.589844 308.734375 60.863281 307.128906 64.414062 C 307.128906 64.414062 306.9375 56.746094 305.800781 56.914062 C 305.574219 56.945312 302.734375 58.390625 302.734375 58.390625 C 302.734375 58.390625 306.203125 65.828125 303.585938 71.238281 C 303.585938 71.238281 304.578125 62.070312 301.648438 58.929688 L 297.488281 61.363281 C 297.488281 61.363281 301.546875 69.046875 298.792969 75.316406 C 298.792969 75.316406 299.5 65.699219 296.613281 61.953125 L 292.84375 64.898438 C 292.84375 64.898438 296.65625 72.472656 294.332031 77.671875 C 294.332031 77.671875 294.027344 66.480469 292.027344 65.632812 C 292.027344 65.632812 288.730469 68.550781 288.226562 69.742188 C 288.226562 69.742188 290.839844 75.242188 289.21875 78.140625 C 289.21875 78.140625 288.222656 70.683594 287.410156 70.640625 C 287.410156 70.640625 284.125 75.582031 283.78125 78.976562 C 283.78125 78.976562 283.925781 73.9375 286.613281 70.175781 C 286.613281 70.175781 283.4375 70.722656 281.582031 72.785156 C 281.582031 72.785156 282.09375 69.292969 287.425781 68.984375 C 287.425781 68.984375 290.140625 65.234375 290.863281 65.007812 C 290.863281 65.007812 285.566406 64.5625 282.351562 65.992188 C 282.351562 65.992188 285.179688 62.695312 291.835938 64.195312 L 295.558594 61.148438 C 295.558594 61.148438 288.582031 60.195312 285.621094 61.25 C 285.621094 61.25 289.027344 58.332031 296.5625 60.457031 L 300.613281 58.035156 C 300.613281 58.035156 294.660156 56.75 291.117188 57.199219 C 291.117188 57.199219 294.859375 55.179688 301.800781 57.371094 L 304.710938 56.066406 C 304.710938 56.066406 300.355469 55.207031 299.078125 55.070312 C 297.800781 54.933594 297.734375 54.582031 297.734375 54.582031 C 300.496094 54.121094 303.328125 54.4375 305.921875 55.496094 C 305.921875 55.496094 312.066406 53.199219 311.964844 52.8125 Z M 311.964844 52.8125 "/>
<path style=" stroke:none;fill-rule:nonzero;fill:#8731E8;fill-opacity:1;" d="M 276.046875 41.878906 C 276.046875 41.878906 260.246094 40.925781 262.09375 52.035156 C 262.09375 52.035156 261.722656 53.996094 263.496094 54.886719 C 263.496094 54.886719 263.527344 54.054688 265.125 54.339844 C 265.691406 54.4375 266.269531 54.464844 266.839844 54.425781 C 267.617188 54.375 268.355469 54.070312 268.941406 53.558594 C 268.941406 53.558594 273.390625 51.714844 275.121094 44.433594 C 275.121094 44.433594 276.398438 42.847656 276.347656 42.4375 L 273.679688 43.578125 C 273.679688 43.578125 274.589844 45.507812 273.875 47.113281 C 273.875 47.113281 273.785156 43.648438 273.273438 43.730469 C 273.171875 43.730469 271.886719 44.398438 271.886719 44.398438 C 271.886719 44.398438 273.457031 47.761719 272.273438 50.203125 C 272.273438 50.203125 272.722656 46.0625 271.394531 44.640625 L 269.515625 45.757812 C 269.515625 45.757812 271.347656 49.230469 270.105469 52.0625 C 270.105469 52.0625 270.425781 47.714844 269.121094 46.023438 L 267.417969 47.359375 C 267.417969 47.359375 269.140625 50.777344 268.09375 53.128906 C 268.09375 53.128906 267.953125 48.070312 267.050781 47.6875 C 267.050781 47.6875 265.5625 49.003906 265.332031 49.546875 C 265.332031 49.546875 266.511719 52.046875 265.78125 53.339844 C 265.78125 53.339844 265.332031 49.972656 264.949219 49.953125 C 264.949219 49.953125 263.464844 52.1875 263.3125 53.703125 C 263.386719 52.289062 263.828125 50.917969 264.589844 49.730469 C 263.734375 49.890625 262.945312 50.300781 262.316406 50.910156 C 262.316406 50.910156 262.550781 49.328125 264.957031 49.191406 C 264.957031 49.191406 266.207031 47.496094 266.511719 47.390625 C 266.511719 47.390625 264.117188 47.191406 262.667969 47.835938 C 262.667969 47.835938 263.941406 46.351562 266.949219 47.023438 L 268.613281 45.648438 C 268.613281 45.648438 265.457031 45.234375 264.121094 45.695312 C 264.121094 45.695312 265.660156 44.378906 269.066406 45.335938 L 270.894531 44.242188 C 270.894531 44.242188 268.207031 43.664062 266.605469 43.871094 C 266.605469 43.871094 268.296875 42.957031 271.433594 43.945312 L 272.742188 43.359375 C 272.742188 43.359375 270.769531 42.972656 270.191406 42.910156 C 269.613281 42.847656 269.585938 42.6875 269.585938 42.6875 C 270.835938 42.480469 272.117188 42.625 273.285156 43.105469 C 273.285156 43.105469 276.097656 42.054688 276.046875 41.878906 Z M 276.046875 41.878906 "/>
<use xlink:href="#surface12" mask="url(#mask2)"/>
<path style=" stroke:none;fill-rule:nonzero;fill:url(#linear0);" d="M 248.058594 328.351562 C 248.058594 328.351562 246.027344 323.617188 245.121094 321.433594 C 244.609375 320.183594 243.746094 319.976562 243.085938 320.003906 L 243.121094 319.585938 L 243.285156 317.617188 L 243.316406 317.199219 C 244.886719 316.871094 246.226562 316.613281 246.226562 316.613281 L 245.25 266.0625 C 245.25 266.0625 244.835938 265.527344 243.828125 262.3125 C 243.328125 260.707031 240.917969 258.738281 238.664062 257.167969 C 238.308594 256.921875 237.964844 256.6875 237.625 256.460938 C 238.445312 255.773438 239.308594 255.136719 240.207031 254.554688 C 241.488281 253.808594 241.910156 249.554688 241.910156 249.554688 L 241.699219 249.972656 C 241.910156 249.554688 241.699219 238.691406 241.699219 238.691406 L 240.949219 227.417969 C 240.949219 227.417969 240.417969 214.011719 236.261719 210.5 C 232.101562 206.988281 226.851562 205.757812 226.851562 205.757812 L 223.9375 205.007812 L 218.574219 203.628906 C 218.425781 203.382812 218.28125 203.125 218.160156 202.855469 C 218.105469 202.75 218.054688 202.640625 218.003906 202.535156 C 221.332031 200.175781 223.308594 196.34375 223.308594 192.261719 C 223.308594 191.585938 223.253906 190.914062 223.144531 190.246094 C 223.144531 190.121094 223.097656 189.992188 223.074219 189.867188 C 223.515625 189.5625 223.933594 189.230469 224.320312 188.863281 C 224.957031 188.355469 225.476562 187.71875 225.84375 186.992188 C 225.902344 186.847656 225.949219 186.703125 225.984375 186.554688 C 225.984375 186.511719 225.984375 186.472656 226.011719 186.425781 C 226.035156 186.378906 226.046875 186.203125 226.058594 186.089844 C 226.058594 186.050781 226.058594 186.007812 226.058594 185.964844 C 226.058594 185.847656 226.058594 185.722656 226.058594 185.601562 C 226.058594 185.570312 226.058594 185.542969 226.058594 185.507812 C 226.058594 185.371094 226.039062 185.234375 226.019531 185.089844 C 226.019531 185.082031 226.019531 185.074219 226.019531 185.066406 C 225.941406 184.582031 225.816406 184.109375 225.644531 183.648438 C 225.226562 182.574219 224.6875 181.566406 224.492188 180.421875 C 224.25 179.066406 224.53125 177.585938 223.886719 176.371094 C 223.34375 175.4375 222.414062 174.800781 221.351562 174.625 C 220.296875 174.460938 219.21875 174.585938 218.226562 174.984375 C 217.742188 175.214844 217.21875 175.355469 216.683594 175.398438 C 216.292969 175.378906 215.910156 175.285156 215.554688 175.125 C 214.320312 174.640625 213.148438 174.007812 212.0625 173.246094 C 211.28125 172.628906 210.445312 172.082031 209.566406 171.613281 C 208.671875 171.144531 207.617188 171.101562 206.691406 171.496094 C 205.152344 172.277344 204.859375 174.460938 203.429688 175.425781 C 202.445312 176.089844 201.160156 176.023438 199.96875 176.066406 C 198.78125 176.109375 197.433594 176.402344 196.847656 177.4375 C 196.429688 178.152344 196.53125 179.007812 196.609375 179.847656 L 196.636719 180.128906 C 196.636719 180.230469 196.636719 180.332031 196.660156 180.433594 C 196.726562 181.503906 196.566406 182.578125 196.191406 183.582031 C 195.617188 185.109375 194.527344 186.613281 194.5625 188.167969 C 194.566406 188.414062 194.597656 188.660156 194.660156 188.898438 C 194.691406 189.019531 194.730469 189.136719 194.777344 189.253906 C 195.003906 189.769531 195.261719 190.269531 195.546875 190.757812 L 195.582031 190.824219 C 195.613281 190.882812 195.640625 190.941406 195.664062 191 C 195.691406 191.058594 195.742188 191.160156 195.769531 191.238281 C 195.800781 191.316406 195.804688 191.316406 195.816406 191.355469 C 195.828125 191.390625 195.871094 191.507812 195.890625 191.585938 C 195.960938 191.824219 195.988281 192.066406 195.976562 192.3125 C 195.929688 192.628906 195.902344 192.945312 195.898438 193.265625 C 195.902344 193.597656 196.132812 193.878906 196.457031 193.945312 C 196.628906 193.941406 196.792969 193.890625 196.9375 193.796875 C 197.3125 193.582031 197.667969 193.339844 198 193.066406 C 198 193.199219 198 193.332031 198.023438 193.484375 C 198.3125 196.464844 199.652344 199.246094 201.804688 201.328125 C 201.804688 201.457031 201.804688 201.589844 201.773438 201.746094 C 201.746094 201.898438 201.753906 202.046875 201.746094 202.199219 L 197.089844 203.667969 C 197.089844 203.667969 197.113281 203.75 197.164062 203.890625 L 196.671875 204.085938 C 194.257812 205.066406 191.566406 206.285156 190.058594 207.386719 C 189.394531 207.871094 188.789062 208.265625 188.242188 208.597656 C 186.265625 209.808594 184.75 211.648438 183.933594 213.824219 L 183.871094 213.984375 C 183.457031 214.9375 181.417969 221.429688 181.417969 221.429688 C 181.417969 221.429688 179.925781 225.046875 179.710938 227.386719 C 179.710938 227.386719 177.257812 235.148438 177.898438 240.257812 C 177.898438 240.257812 175.976562 247.601562 176.722656 248.765625 C 176.722656 248.765625 175.960938 251.925781 179.320312 255.105469 C 179.074219 255.253906 178.808594 255.417969 178.527344 255.597656 C 175.925781 257.238281 172.171875 259.898438 171.53125 261.953125 C 170.535156 265.148438 170.109375 265.703125 170.109375 265.703125 L 169.101562 316.175781 C 169.101562 316.175781 170.445312 316.433594 172.011719 316.757812 L 172.046875 317.175781 L 172.207031 319.140625 L 172.246094 319.558594 C 171.585938 319.527344 170.71875 319.757812 170.207031 320.992188 C 169.296875 323.171875 167.296875 327.898438 167.296875 327.898438 C 167.296875 327.898438 162.820312 332.066406 165.535156 335.933594 C 165.652344 336.109375 165.792969 336.273438 165.949219 336.417969 C 167.898438 338.191406 172.058594 337.054688 175.015625 335.894531 C 176.519531 335.253906 177.8125 334.207031 178.757812 332.871094 C 179 332.554688 179.359375 332.355469 179.753906 332.316406 C 180.433594 332.207031 181.074219 331.925781 181.613281 331.503906 C 182.277344 331.019531 182.660156 330.242188 182.636719 329.421875 C 182.636719 329.398438 182.636719 329.378906 182.636719 329.359375 L 182.375 323.429688 C 182.375 323.429688 182.054688 319.289062 181.035156 319.554688 L 180.773438 319.617188 L 180.703125 319.199219 L 180.566406 318.394531 L 180.496094 317.980469 L 181.0625 317.980469 C 181.0625 317.980469 181.203125 313.296875 182.910156 309.613281 C 184.621094 305.929688 185.742188 276.175781 185.742188 276.175781 C 185.742188 276.175781 206.898438 276.519531 207.605469 274.535156 C 208.019531 274.535156 208.472656 274.535156 208.90625 274.503906 C 209.617188 276.492188 229.582031 276.585938 229.582031 276.585938 C 229.582031 276.585938 230.71875 306.375 232.421875 310.0625 C 232.78125 310.851562 233.082031 311.667969 233.316406 312.503906 C 233.851562 314.4375 234.175781 316.421875 234.277344 318.425781 L 234.84375 318.425781 L 234.765625 318.839844 L 234.628906 319.640625 L 234.558594 320.058594 L 234.289062 319.996094 C 233.277344 319.734375 232.957031 323.875 232.957031 323.875 L 232.6875 329.839844 C 232.644531 330.660156 233.019531 331.441406 233.679688 331.925781 C 234.230469 332.359375 234.878906 332.644531 235.570312 332.757812 C 235.964844 332.789062 236.328125 332.992188 236.566406 333.308594 C 237.515625 334.644531 238.808594 335.691406 240.3125 336.332031 C 243.503906 337.582031 248.09375 338.804688 249.800781 336.375 C 252.535156 332.5 248.058594 328.351562 248.058594 328.351562 Z M 194.289062 254.042969 L 194.339844 254.042969 Z M 227.703125 237.007812 C 227.703125 237.007812 228.238281 239.027344 229.195312 240.089844 C 230.152344 241.152344 229.675781 247.753906 229.675781 247.753906 C 229.300781 247.777344 228.929688 247.839844 228.5625 247.933594 C 227.828125 243.546875 227.148438 238.675781 227.703125 237.007812 Z M 227.703125 237.007812 "/>
<path style=" stroke:none;fill-rule:nonzero;fill:rgb(55.686275%,43.529412%,49.803922%);fill-opacity:1;" d="M 181.707031 320.179688 L 173.34375 321.011719 L 173.109375 318.207031 L 172.949219 316.277344 L 172.71875 313.457031 L 180.621094 313.875 L 181.25 317.496094 L 181.382812 318.285156 L 181.386719 318.285156 Z M 181.707031 320.179688 "/>
<path style=" stroke:none;fill-rule:nonzero;fill:rgb(55.686275%,43.529412%,49.803922%);fill-opacity:1;" d="M 242.605469 313.878906 L 242.378906 316.695312 L 242.21875 318.625 L 241.980469 321.429688 L 233.617188 320.597656 L 233.949219 318.699219 L 234.078125 317.917969 L 234.707031 314.296875 Z M 242.605469 313.878906 "/>
<path style=" stroke:none;fill-rule:nonzero;fill:rgb(37.254902%,33.333333%,43.921569%);fill-opacity:1;" d="M 233.746094 273.300781 L 208.878906 274.472656 C 207.746094 274.527344 206.613281 274.527344 205.484375 274.472656 L 181.726562 273.304688 L 181.726562 254.445312 L 233.746094 254.445312 Z M 233.746094 273.300781 "/>
<use xlink:href="#surface15" mask="url(#mask3)"/>
<path style=" stroke:none;fill-rule:nonzero;fill:rgb(91.764706%,91.764706%,94.901961%);fill-opacity:1;" d="M 201.898438 203.636719 C 201.898438 203.636719 193.617188 206.425781 190.496094 208.714844 C 189.847656 209.191406 189.25 209.582031 188.726562 209.902344 C 186.800781 211.09375 185.324219 212.894531 184.539062 215.019531 C 184.515625 215.078125 184.496094 215.128906 184.476562 215.175781 C 184.058594 216.113281 182.085938 222.464844 182.085938 222.464844 C 182.085938 222.464844 180.628906 226.007812 180.421875 228.300781 C 180.214844 230.589844 192.273438 236.738281 192.273438 236.738281 C 192.273438 236.738281 186.449219 249.445312 189.050781 252.675781 C 191.648438 255.902344 229.59375 257.464844 228.761719 252.675781 C 227.929688 247.882812 226.476562 239.964844 227.203125 237.777344 L 240.09375 228.402344 C 240.09375 228.402344 239.574219 215.277344 235.519531 211.839844 C 231.464844 208.402344 226.371094 207.152344 226.371094 207.152344 L 218.300781 205.070312 C 218.300781 205.070312 215.457031 212.152344 212.335938 213.089844 C 209.21875 214.027344 202.386719 209.699219 201.898438 203.636719 Z M 201.898438 203.636719 "/>
<use xlink:href="#surface18" mask="url(#mask4)"/>
<use xlink:href="#surface21" mask="url(#mask5)"/>
<path style=" stroke:none;fill-rule:nonzero;fill:rgb(73.72549%,51.764706%,52.941176%);fill-opacity:1;" d="M 213.3125 253.929688 L 207.546875 261.167969 L 204.371094 255.714844 L 208.222656 223.617188 L 208.519531 222.132812 L 208.585938 221.792969 L 209.105469 220.441406 L 212.589844 221.792969 L 212.640625 222.207031 L 212.847656 223.929688 Z M 213.3125 253.929688 "/>
<use xlink:href="#surface24" mask="url(#mask6)"/>
<path style=" stroke:none;fill-rule:nonzero;fill:rgb(37.254902%,33.333333%,43.921569%);fill-opacity:1;" d="M 207.609375 274.507812 C 206.917969 276.453125 186.300781 276.113281 186.300781 276.113281 C 186.300781 276.113281 185.195312 305.277344 183.53125 308.890625 C 181.867188 312.503906 181.726562 317.082031 181.726562 317.082031 C 181.726562 317.082031 178.125 317.082031 175.90625 316.527344 C 173.683594 315.976562 170.082031 315.277344 170.082031 315.277344 L 171.054688 265.800781 C 171.054688 265.800781 171.472656 265.277344 172.441406 262.148438 C 173.066406 260.136719 176.722656 257.527344 179.257812 255.898438 C 180.671875 255.007812 181.726562 254.425781 181.726562 254.425781 L 194.027344 254.925781 L 201.621094 255.234375 C 201.621094 255.234375 208.304688 272.5625 207.609375 274.507812 Z M 207.609375 274.507812 "/>
<use xlink:href="#surface27" mask="url(#mask7)"/>
<path style=" stroke:none;fill-rule:nonzero;fill:rgb(73.72549%,51.764706%,52.941176%);fill-opacity:1;" d="M 183.289062 328.277344 C 183.308594 329.082031 182.9375 329.84375 182.289062 330.316406 C 181.761719 330.730469 181.140625 331.003906 180.480469 331.113281 C 180.09375 331.144531 179.742188 331.34375 179.511719 331.652344 C 178.585938 332.960938 177.320312 333.984375 175.851562 334.617188 C 172.96875 335.75 168.914062 336.863281 167.015625 335.125 C 166.859375 334.984375 166.71875 334.828125 166.597656 334.652344 C 163.949219 330.855469 168.316406 326.789062 168.316406 326.789062 C 168.316406 326.789062 170.289062 322.152344 171.171875 320.019531 C 171.367188 319.460938 171.789062 319.011719 172.332031 318.78125 C 172.878906 318.550781 173.496094 318.566406 174.03125 318.820312 C 175.691406 320.019531 180.738281 318.871094 181.722656 318.617188 C 182.707031 318.363281 183.023438 322.414062 183.023438 322.414062 L 183.289062 328.214844 C 183.289062 328.238281 183.289062 328.257812 183.289062 328.277344 Z M 183.289062 328.277344 "/>
<use xlink:href="#surface30" mask="url(#mask8)"/>
<path style=" stroke:none;fill-rule:nonzero;fill:rgb(37.254902%,33.333333%,43.921569%);fill-opacity:1;" d="M 245.25 315.695312 C 245.25 315.695312 241.648438 316.390625 239.429688 316.945312 C 237.207031 317.5 233.605469 317.5 233.605469 317.5 C 233.605469 317.5 233.46875 312.917969 231.808594 309.308594 C 230.144531 305.699219 229.03125 276.527344 229.03125 276.527344 C 229.03125 276.527344 209.578125 276.417969 208.886719 274.472656 C 208.191406 272.523438 217.363281 255.722656 217.363281 255.722656 L 222.957031 255.429688 L 233.605469 254.863281 C 233.605469 254.863281 235.6875 255.996094 237.867188 257.523438 C 240.042969 259.054688 242.410156 260.996094 242.898438 262.566406 C 243.867188 265.695312 244.28125 266.214844 244.28125 266.214844 Z M 245.25 315.695312 "/>
<use xlink:href="#surface33" mask="url(#mask9)"/>
<path style=" stroke:none;fill-rule:nonzero;fill:rgb(73.72549%,51.764706%,52.941176%);fill-opacity:1;" d="M 241.308594 319.238281 C 241.84375 318.980469 242.460938 318.964844 243.007812 319.195312 C 243.554688 319.425781 243.976562 319.875 244.167969 320.4375 C 245.050781 322.570312 247.027344 327.207031 247.027344 327.207031 C 247.027344 327.207031 251.394531 331.269531 248.742188 335.070312 C 247.082031 337.453125 242.605469 336.257812 239.496094 335.035156 C 238.027344 334.40625 236.757812 333.378906 235.835938 332.070312 C 235.605469 331.757812 235.25 331.5625 234.863281 331.527344 C 234.1875 331.410156 233.550781 331.125 233.015625 330.695312 C 232.378906 330.222656 232.015625 329.457031 232.054688 328.664062 L 232.316406 322.828125 C 232.316406 322.828125 232.628906 318.773438 233.617188 319.027344 C 234.601562 319.285156 239.644531 320.4375 241.308594 319.238281 Z M 241.308594 319.238281 "/>
<path style=" stroke:none;fill-rule:nonzero;fill:rgb(100%,76.862745%,81.568627%);fill-opacity:1;" d="M 219.8125 207.152344 L 211.417969 216.070312 L 211.183594 216.320312 L 210.882812 216.140625 C 209.125 215.101562 200.347656 209.792969 201.101562 208.195312 C 201.515625 207.289062 201.761719 205.394531 201.890625 203.765625 C 201.890625 203.570312 201.917969 203.378906 201.933594 203.191406 C 202.015625 201.902344 202.035156 200.902344 202.035156 200.902344 C 202.035156 200.902344 217.839844 198.195312 217.214844 200.902344 C 216.960938 202 217.339844 203.234375 217.875 204.3125 C 218.035156 204.625 218.207031 204.921875 218.378906 205.199219 C 218.800781 205.890625 219.277344 206.546875 219.8125 207.152344 Z M 219.8125 207.152344 "/>
<use xlink:href="#surface36" mask="url(#mask10)"/>
<path style=" stroke:none;fill-rule:nonzero;fill:rgb(100%,76.862745%,81.568627%);fill-opacity:1;" d="M 222.894531 193.941406 C 222.988281 200.609375 217.792969 206.148438 211.144531 206.464844 C 204.5 206.785156 198.796875 201.761719 198.261719 195.117188 C 198.226562 194.726562 198.210938 194.335938 198.210938 193.941406 C 198.128906 189.472656 200.460938 185.304688 204.3125 183.046875 C 208.164062 180.789062 212.929688 180.789062 216.78125 183.046875 C 220.632812 185.304688 222.964844 189.472656 222.882812 193.941406 Z M 222.894531 193.941406 "/>
<use xlink:href="#surface39" mask="url(#mask11)"/>
<path style=" stroke:none;fill-rule:nonzero;fill:rgb(55.686275%,43.529412%,49.803922%);fill-opacity:1;" d="M 208.363281 190.148438 C 209.125 190.523438 209.859375 191.074219 210.707031 191.097656 C 212.675781 191.144531 213.957031 188.433594 215.914062 188.644531 C 217.867188 188.859375 218.511719 191.75 220.425781 192.179688 C 221.710938 192.472656 222.921875 191.507812 223.878906 190.613281 C 224.5 190.117188 225.007812 189.492188 225.367188 188.785156 C 225.78125 187.75 225.566406 186.558594 225.179688 185.507812 C 224.792969 184.457031 224.246094 183.449219 224.054688 182.347656 C 223.824219 181.019531 224.09375 179.570312 223.464844 178.378906 C 222.9375 177.46875 222.03125 176.839844 220.996094 176.671875 C 219.964844 176.511719 218.914062 176.628906 217.945312 177.015625 C 217.476562 177.246094 216.96875 177.386719 216.445312 177.433594 C 216.066406 177.410156 215.691406 177.316406 215.34375 177.164062 C 214.140625 176.6875 213 176.070312 211.941406 175.324219 C 211.183594 174.71875 210.371094 174.183594 209.519531 173.726562 C 208.648438 173.265625 207.617188 173.226562 206.714844 173.613281 C 205.21875 174.378906 204.929688 176.527344 203.539062 177.457031 C 202.578125 178.109375 201.324219 178.042969 200.167969 178.085938 C 199.011719 178.132812 197.675781 178.414062 197.125 179.425781 C 196.636719 180.296875 196.878906 181.367188 196.941406 182.363281 C 197.003906 183.410156 196.847656 184.460938 196.480469 185.445312 C 195.835938 187.171875 194.527344 188.871094 194.992188 190.652344 C 195.296875 191.824219 196.34375 192.796875 196.28125 193.988281 C 196.230469 194.292969 196.207031 194.605469 196.203125 194.917969 C 196.207031 195.238281 196.433594 195.515625 196.746094 195.582031 C 196.914062 195.582031 197.074219 195.527344 197.210938 195.433594 C 197.902344 195.046875 198.523438 194.542969 199.046875 193.945312 C 200.453125 192.335938 201.179688 190.324219 203.355469 189.578125 C 204.824219 189.089844 207.023438 189.484375 208.363281 190.148438 Z M 208.363281 190.148438 "/>
<path style=" stroke:none;fill-rule:nonzero;fill:rgb(100%,76.862745%,81.568627%);fill-opacity:1;" d="M 222.671875 262.882812 L 220.425781 263.496094 L 215.238281 264.925781 C 214.039062 265.820312 212.6875 266.492188 211.25 266.914062 C 208.078125 267.714844 206.027344 265.964844 204.324219 263.257812 C 203.636719 262.175781 203.984375 261.308594 204.882812 260.628906 C 207.042969 258.992188 212.390625 258.457031 214.03125 258.675781 C 215.105469 258.761719 216.1875 258.59375 217.1875 258.183594 C 217.894531 257.925781 218.578125 257.601562 219.226562 257.214844 Z M 222.671875 262.882812 "/>
<use xlink:href="#surface42" mask="url(#mask12)"/>
<use xlink:href="#surface45" mask="url(#mask13)"/>
<path style=" stroke:none;fill-rule:nonzero;fill:rgb(91.764706%,91.764706%,94.901961%);fill-opacity:1;" d="M 237.695312 224.863281 L 240.085938 228.402344 L 240.8125 239.445312 C 240.8125 239.445312 241.023438 250.070312 240.8125 250.488281 L 241.023438 250.070312 C 241.023438 250.070312 240.605469 254.238281 239.359375 254.964844 C 238.109375 255.695312 235.304688 258.132812 235.304688 258.132812 C 235.304688 258.132812 224.492188 261.527344 222.414062 265.800781 C 222.414062 265.800781 220.75 257.464844 217.214844 257.363281 C 217.214844 257.363281 222.515625 255.277344 222.414062 253.925781 C 222.414062 253.925781 226.46875 250.277344 226.777344 249.339844 C 227.089844 248.402344 229.117188 248.300781 229.117188 248.300781 C 229.117188 248.300781 229.585938 241.839844 228.652344 240.800781 C 227.714844 239.757812 227.195312 237.777344 227.195312 237.777344 Z M 237.695312 224.863281 "/>
<use xlink:href="#surface48" mask="url(#mask14)"/>
<path style=" stroke:none;fill-rule:nonzero;fill:rgb(100%,76.862745%,81.568627%);fill-opacity:1;" d="M 209.9375 270.230469 C 206.195312 275.4375 199.230469 268.195312 198.710938 266.738281 C 198.523438 266.207031 197.8125 265.738281 196.992188 265.359375 C 195.953125 264.902344 194.875 264.542969 193.769531 264.289062 L 199.957031 259.238281 L 201.140625 259.710938 L 204.789062 261.175781 C 204.789062 261.175781 213.679688 265.019531 209.9375 270.230469 Z M 209.9375 270.230469 "/>
<use xlink:href="#surface51" mask="url(#mask15)"/>
<use xlink:href="#surface54" mask="url(#mask16)"/>
<path style=" stroke:none;fill-rule:nonzero;fill:rgb(91.764706%,91.764706%,94.901961%);fill-opacity:1;" d="M 182.386719 227.152344 L 180.414062 228.300781 C 180.414062 228.300781 178.023438 235.902344 178.644531 240.902344 C 178.644531 240.902344 176.773438 248.089844 177.503906 249.238281 C 177.503906 249.238281 176.566406 253.089844 181.347656 256.527344 C 186.128906 259.964844 196.109375 267.882812 196.109375 267.882812 C 196.109375 267.882812 193.617188 262.050781 201.621094 259.445312 L 194.96875 255.070312 C 194.96875 255.070312 192.734375 250.628906 190.601562 249.652344 C 190.601562 249.652344 188.9375 247.988281 189.976562 246.839844 C 191.015625 245.695312 191.847656 244.445312 191.847656 243.300781 C 191.847656 242.152344 192.265625 236.738281 192.265625 236.738281 L 193.511719 230.902344 Z M 182.386719 227.152344 "/>
<use xlink:href="#surface57" mask="url(#mask17)"/>
<path style=" stroke:none;fill-rule:nonzero;fill:rgb(73.72549%,51.764706%,52.941176%);fill-opacity:1;" d="M 213.949219 215.148438 C 213.949219 215.148438 210.433594 218.089844 208.585938 215.148438 C 208.585938 215.148438 206.921875 220.125 208.585938 221.792969 L 213.578125 221.792969 C 213.578125 221.792969 216.191406 217.257812 213.949219 215.148438 Z M 213.949219 215.148438 "/>
<use xlink:href="#surface60" mask="url(#mask18)"/>
<use xlink:href="#surface63" mask="url(#mask19)"/>
<path style=" stroke:none;fill-rule:nonzero;fill:rgb(91.764706%,91.764706%,94.901961%);fill-opacity:1;" d="M 218.292969 205.070312 L 223.53125 206.425781 C 223.53125 206.425781 218.566406 219.339844 217.472656 219.339844 L 211.183594 216.320312 Z M 218.292969 205.070312 "/>
<use xlink:href="#surface66" mask="url(#mask20)"/>
<use xlink:href="#surface69" mask="url(#mask21)"/>
<path style=" stroke:none;fill-rule:nonzero;fill:rgb(91.764706%,91.764706%,94.901961%);fill-opacity:1;" d="M 201.898438 203.636719 L 197.359375 205.070312 C 197.359375 205.070312 201.828125 218.613281 203.078125 219.339844 L 211.183594 216.320312 Z M 201.898438 203.636719 "/>
<use xlink:href="#surface72" mask="url(#mask22)"/>
<use xlink:href="#surface75" mask="url(#mask23)"/>
<use xlink:href="#surface78" mask="url(#mask24)"/>
<use xlink:href="#surface81" mask="url(#mask25)"/>
<use xlink:href="#surface84" mask="url(#mask26)"/>
<use xlink:href="#surface87" mask="url(#mask27)"/>
<use xlink:href="#surface90" mask="url(#mask28)"/>
<use xlink:href="#surface93" mask="url(#mask29)"/>
<use xlink:href="#surface96" mask="url(#mask30)"/>
<use xlink:href="#surface99" mask="url(#mask31)"/>
<use xlink:href="#surface102" mask="url(#mask32)"/>
<use xlink:href="#surface105" mask="url(#mask33)"/>
<use xlink:href="#surface108" mask="url(#mask34)"/>
<use xlink:href="#surface111" mask="url(#mask35)"/>
<use xlink:href="#surface114" mask="url(#mask36)"/>
<use xlink:href="#surface117" mask="url(#mask37)"/>
<use xlink:href="#surface120" mask="url(#mask38)"/>
<use xlink:href="#surface123" mask="url(#mask39)"/>
<path style=" stroke:none;fill-rule:nonzero;fill:#8731E8;fill-opacity:1;" d="M 351.566406 342.542969 C 351.566406 340.976562 344.078125 339.707031 334.84375 339.707031 C 325.609375 339.707031 318.121094 340.976562 318.121094 342.542969 C 318.121094 344.105469 325.609375 345.375 334.84375 345.375 C 344.078125 345.375 351.566406 344.105469 351.566406 342.542969 Z M 351.566406 342.542969 "/>
<path style=" stroke:none;fill-rule:nonzero;fill:#8731E8;fill-opacity:1;" d="M 341.757812 337.910156 C 342.519531 337.285156 343.078125 336.441406 343.351562 335.496094 C 343.558594 334.542969 343.152344 333.414062 342.238281 333.042969 C 341.214844 332.648438 340.121094 333.363281 339.292969 334.078125 C 338.464844 334.796875 337.511719 335.617188 336.429688 335.460938 C 337.566406 334.433594 338.078125 332.878906 337.78125 331.375 C 337.730469 331.066406 337.601562 330.78125 337.402344 330.542969 C 336.835938 329.933594 335.804688 330.191406 335.125 330.675781 C 332.964844 332.195312 332.363281 335.140625 332.347656 337.789062 C 332.128906 336.832031 332.316406 335.835938 332.308594 334.871094 C 332.300781 333.902344 332.035156 332.789062 331.210938 332.273438 C 330.699219 332 330.125 331.867188 329.546875 331.882812 C 328.574219 331.847656 327.492188 331.945312 326.828125 332.660156 C 325.996094 333.542969 326.21875 335.023438 326.933594 335.992188 C 327.648438 336.957031 328.742188 337.578125 329.75 338.25 C 330.554688 338.730469 331.242188 339.386719 331.757812 340.171875 C 331.820312 340.28125 331.871094 340.394531 331.90625 340.515625 L 337.984375 340.515625 C 339.355469 339.820312 340.625 338.945312 341.757812 337.910156 Z M 341.757812 337.910156 "/>
<path style=" stroke:none;fill-rule:nonzero;fill:#8731E8;fill-opacity:1;" d="M 81.773438 301.363281 C 81.773438 301.363281 84.0625 304.359375 80.722656 308.863281 C 77.382812 313.367188 74.632812 317.195312 75.734375 320.015625 C 75.734375 320.015625 80.773438 311.621094 84.882812 311.503906 C 88.988281 311.386719 86.289062 306.414062 81.773438 301.363281 Z M 81.773438 301.363281 "/>
<use xlink:href="#surface126" mask="url(#mask40)"/>
<path style=" stroke:none;fill-rule:nonzero;fill:rgb(100%,81.568627%,21.568627%);fill-opacity:1;" d="M 86.019531 305.179688 C 86.019531 306.234375 85.90625 307.085938 85.757812 307.085938 C 85.613281 307.085938 85.496094 306.234375 85.496094 305.179688 C 85.496094 304.125 85.640625 304.621094 85.789062 304.621094 C 85.933594 304.621094 86.019531 304.125 86.019531 305.179688 Z M 86.019531 305.179688 "/>
<path style=" stroke:none;fill-rule:nonzero;fill:rgb(100%,81.568627%,21.568627%);fill-opacity:1;" d="M 87.480469 306.4375 C 86.558594 306.941406 85.75 307.246094 85.683594 307.117188 C 85.617188 306.988281 86.304688 306.476562 87.226562 305.972656 C 88.148438 305.464844 87.789062 305.832031 87.855469 305.972656 C 87.921875 306.109375 88.402344 305.933594 87.480469 306.4375 Z M 87.480469 306.4375 "/>
<path style=" stroke:none;fill-rule:nonzero;fill:#8731E8;fill-opacity:1;" d="M 69.710938 301.363281 C 69.710938 301.363281 67.425781 304.359375 70.765625 308.863281 C 74.101562 313.367188 76.855469 317.195312 75.753906 320.015625 C 75.753906 320.015625 70.71875 311.621094 66.605469 311.503906 C 62.492188 311.386719 65.191406 306.414062 69.710938 301.363281 Z M 69.710938 301.363281 "/>
<use xlink:href="#surface129" mask="url(#mask41)"/>
<path style=" stroke:none;fill-rule:nonzero;fill:rgb(100%,81.568627%,21.568627%);fill-opacity:1;" d="M 65.460938 305.179688 C 65.460938 306.234375 65.582031 307.085938 65.726562 307.085938 C 65.875 307.085938 65.988281 306.234375 65.988281 305.179688 C 65.988281 304.125 65.84375 304.621094 65.699219 304.621094 C 65.554688 304.621094 65.460938 304.125 65.460938 305.179688 Z M 65.460938 305.179688 "/>
<path style=" stroke:none;fill-rule:nonzero;fill:rgb(100%,81.568627%,21.568627%);fill-opacity:1;" d="M 64.007812 306.4375 C 64.929688 306.941406 65.730469 307.246094 65.804688 307.117188 C 65.875 306.988281 65.179688 306.476562 64.253906 305.972656 C 63.332031 305.464844 63.699219 305.832031 63.628906 305.972656 C 63.558594 306.109375 63.082031 305.933594 64.007812 306.4375 Z M 64.007812 306.4375 "/>
<path style=" stroke:none;fill-rule:nonzero;fill:rgb(65.882353%,65.882353%,65.882353%);fill-opacity:1;" d="M 66.191406 319.636719 C 66.191406 319.636719 72.578125 319.4375 74.507812 318.066406 C 76.4375 316.695312 84.332031 315.050781 84.808594 317.253906 C 85.28125 319.457031 94.410156 328.207031 87.199219 328.265625 C 79.988281 328.324219 70.4375 327.140625 68.519531 325.972656 C 66.597656 324.800781 66.191406 319.636719 66.191406 319.636719 Z M 66.191406 319.636719 "/>
<use xlink:href="#surface132" mask="url(#mask42)"/>
</g>
</svg>
