<?xml version="1.0" encoding="UTF-8"?>
<svg xmlns="http://www.w3.org/2000/svg" xmlns:xlink="http://www.w3.org/1999/xlink" width="469pt" height="270pt" viewBox="0 0 469 270" version="1.1">
<defs>
<filter id="alpha" filterUnits="objectBoundingBox" x="0%" y="0%" width="100%" height="100%">
  <feColorMatrix type="matrix" in="SourceGraphic" values="0 0 0 0 1 0 0 0 0 1 0 0 0 0 1 0 0 0 1 0"/>
</filter>
<mask id="mask0">
  <g filter="url(#alpha)">
<rect x="0" y="0" width="469" height="270" style="fill:rgb(0%,0%,0%);fill-opacity:0.301961;stroke:none;"/>
  </g>
</mask>
<clipPath id="clip1">
  <rect width="469" height="270"/>
</clipPath>
<g id="surface6" clip-path="url(#clip1)">
<path style=" stroke:none;fill-rule:nonzero;fill:rgb(54.901961%,26.27451%,100%);fill-opacity:1;" d="M 172.40625 124.324219 C 172.40625 137.066406 162.089844 147.394531 149.363281 147.394531 C 136.636719 147.394531 126.320312 137.066406 126.320312 124.324219 C 126.320312 111.585938 136.636719 101.253906 149.363281 101.253906 C 162.089844 101.253906 172.40625 111.585938 172.40625 124.324219 Z M 172.40625 124.324219 "/>
</g>
<mask id="mask1">
  <g filter="url(#alpha)">
<rect x="0" y="0" width="469" height="270" style="fill:rgb(0%,0%,0%);fill-opacity:0.301961;stroke:none;"/>
  </g>
</mask>
<clipPath id="clip2">
  <rect width="469" height="270"/>
</clipPath>
<g id="surface9" clip-path="url(#clip2)">
<path style=" stroke:none;fill-rule:nonzero;fill:rgb(54.901961%,26.27451%,100%);fill-opacity:1;" d="M 164.726562 124.324219 C 164.726562 132.820312 157.847656 139.707031 149.363281 139.707031 C 140.878906 139.707031 134 132.820312 134 124.324219 C 134 115.832031 140.878906 108.945312 149.363281 108.945312 C 157.847656 108.945312 164.726562 115.832031 164.726562 124.324219 Z M 164.726562 124.324219 "/>
</g>
<mask id="mask2">
  <g filter="url(#alpha)">
<rect x="0" y="0" width="469" height="270" style="fill:rgb(0%,0%,0%);fill-opacity:0.301961;stroke:none;"/>
  </g>
</mask>
<clipPath id="clip3">
  <rect width="469" height="270"/>
</clipPath>
<g id="surface12" clip-path="url(#clip3)">
<path style=" stroke:none;fill-rule:nonzero;fill:rgb(54.901961%,26.27451%,100%);fill-opacity:1;" d="M 366.3125 67.152344 C 366.3125 79.894531 355.996094 90.222656 343.269531 90.222656 C 330.542969 90.222656 320.222656 79.894531 320.222656 67.152344 C 320.222656 54.410156 330.542969 44.082031 343.269531 44.082031 C 355.996094 44.082031 366.3125 54.410156 366.3125 67.152344 Z M 366.3125 67.152344 "/>
</g>
<mask id="mask3">
  <g filter="url(#alpha)">
<rect x="0" y="0" width="469" height="270" style="fill:rgb(0%,0%,0%);fill-opacity:0.301961;stroke:none;"/>
  </g>
</mask>
<clipPath id="clip4">
  <rect width="469" height="270"/>
</clipPath>
<g id="surface15" clip-path="url(#clip4)">
<path style=" stroke:none;fill-rule:nonzero;fill:rgb(54.901961%,26.27451%,100%);fill-opacity:1;" d="M 358.632812 67.152344 C 358.632812 75.644531 351.753906 82.53125 343.269531 82.53125 C 334.785156 82.53125 327.90625 75.644531 327.90625 67.152344 C 327.90625 58.65625 334.785156 51.773438 343.269531 51.773438 C 351.753906 51.773438 358.632812 58.65625 358.632812 67.152344 Z M 358.632812 67.152344 "/>
</g>
<mask id="mask4">
  <g filter="url(#alpha)">
<rect x="0" y="0" width="469" height="270" style="fill:rgb(0%,0%,0%);fill-opacity:0.301961;stroke:none;"/>
  </g>
</mask>
<clipPath id="clip5">
  <rect width="469" height="270"/>
</clipPath>
<g id="surface18" clip-path="url(#clip5)">
<path style=" stroke:none;fill-rule:nonzero;fill:rgb(54.901961%,26.27451%,100%);fill-opacity:1;" d="M 370.421875 227.285156 C 370.421875 240.023438 360.101562 250.355469 347.375 250.355469 C 334.648438 250.355469 324.332031 240.023438 324.332031 227.285156 C 324.332031 214.542969 334.648438 204.214844 347.375 204.214844 C 360.101562 204.214844 370.421875 214.542969 370.421875 227.285156 Z M 370.421875 227.285156 "/>
</g>
<mask id="mask5">
  <g filter="url(#alpha)">
<rect x="0" y="0" width="469" height="270" style="fill:rgb(0%,0%,0%);fill-opacity:0.301961;stroke:none;"/>
  </g>
</mask>
<clipPath id="clip6">
  <rect width="469" height="270"/>
</clipPath>
<g id="surface21" clip-path="url(#clip6)">
<path style=" stroke:none;fill-rule:nonzero;fill:rgb(54.901961%,26.27451%,100%);fill-opacity:1;" d="M 362.738281 227.285156 C 362.738281 235.777344 355.859375 242.664062 347.375 242.664062 C 338.890625 242.664062 332.011719 235.777344 332.011719 227.285156 C 332.011719 218.789062 338.890625 211.90625 347.375 211.90625 C 355.859375 211.90625 362.738281 218.789062 362.738281 227.285156 Z M 362.738281 227.285156 "/>
</g>
<mask id="mask6">
  <g filter="url(#alpha)">
<rect x="0" y="0" width="469" height="270" style="fill:rgb(0%,0%,0%);fill-opacity:0.101961;stroke:none;"/>
  </g>
</mask>
<clipPath id="clip7">
  <rect width="469" height="270"/>
</clipPath>
<g id="surface24" clip-path="url(#clip7)">
<path style=" stroke:none;fill-rule:nonzero;fill:rgb(0%,0%,0%);fill-opacity:1;" d="M 7.839844 73.042969 C 10.570312 78.027344 17.441406 84.578125 20.945312 91.894531 C 21.859375 88.59375 22.976562 85.179688 22.976562 85.179688 C 22.976562 85.179688 27.257812 62.25 14.59375 56.324219 C 12.496094 56.121094 10.398438 56.710938 8.707031 57.972656 C 6.90625 64.078125 6.050781 69.78125 7.839844 73.042969 Z M 7.839844 73.042969 "/>
</g>
<mask id="mask7">
  <g filter="url(#alpha)">
<rect x="0" y="0" width="469" height="270" style="fill:rgb(0%,0%,0%);fill-opacity:0.101961;stroke:none;"/>
  </g>
</mask>
<clipPath id="clip8">
  <rect width="469" height="270"/>
</clipPath>
<g id="surface27" clip-path="url(#clip8)">
<path style=" stroke:none;fill-rule:nonzero;fill:rgb(0%,0%,0%);fill-opacity:1;" d="M 23.027344 101.210938 C 22.703125 107.488281 20.390625 114.75 19.5625 120.027344 C 24.136719 124.363281 28.488281 128.1875 30.128906 128.25 C 33.515625 128.382812 38.960938 127.914062 40.96875 128.671875 C 42.972656 129.425781 44.148438 116.566406 44.148438 116.566406 C 44.148438 116.566406 42.953125 112.445312 37.613281 110.199219 C 34.007812 108.679688 27.097656 104.5625 23.027344 101.210938 Z M 23.027344 101.210938 "/>
</g>
</defs>
<g id="surface1">
<path style=" stroke:none;fill-rule:nonzero;fill:rgb(94.901961%,94.901961%,94.901961%);fill-opacity:1;" d="M 468.894531 256.660156 C 468.894531 249.203125 363.929688 243.160156 234.445312 243.160156 C 104.964844 243.160156 0 249.203125 0 256.660156 C 0 264.113281 104.964844 270.160156 234.445312 270.160156 C 363.929688 270.160156 468.894531 264.113281 468.894531 256.660156 Z M 468.894531 256.660156 "/>
<path style=" stroke:none;fill-rule:nonzero;fill:rgb(94.901961%,94.901961%,94.901961%);fill-opacity:1;" d="M 74.667969 0 L 426.875 0 L 426.875 11.21875 L 74.667969 11.21875 Z M 74.667969 0 "/>
<path style=" stroke:none;fill-rule:nonzero;fill:rgb(54.901961%,26.27451%,100%);fill-opacity:1;" d="M 86.992188 5.441406 C 86.992188 7.046875 85.695312 8.347656 84.09375 8.347656 C 82.492188 8.347656 81.191406 7.046875 81.191406 5.441406 C 81.191406 3.839844 82.492188 2.539062 84.09375 2.539062 C 85.695312 2.539062 86.992188 3.839844 86.992188 5.441406 Z M 86.992188 5.441406 "/>
<path style=" stroke:none;fill-rule:nonzero;fill:rgb(54.901961%,26.27451%,100%);fill-opacity:1;" d="M 96.417969 5.441406 C 96.417969 7.046875 95.117188 8.347656 93.515625 8.347656 C 91.914062 8.347656 90.617188 7.046875 90.617188 5.441406 C 90.617188 3.839844 91.914062 2.539062 93.515625 2.539062 C 95.117188 2.539062 96.417969 3.839844 96.417969 5.441406 Z M 96.417969 5.441406 "/>
<path style=" stroke:none;fill-rule:nonzero;fill:rgb(54.901961%,26.27451%,100%);fill-opacity:1;" d="M 105.84375 5.441406 C 105.84375 7.046875 104.542969 8.347656 102.941406 8.347656 C 101.339844 8.347656 100.042969 7.046875 100.042969 5.441406 C 100.042969 3.839844 101.339844 2.539062 102.941406 2.539062 C 104.542969 2.539062 105.84375 3.839844 105.84375 5.441406 Z M 105.84375 5.441406 "/>
<path style=" stroke:none;fill-rule:nonzero;fill:rgb(24.705882%,23.921569%,33.72549%);fill-opacity:1;" d="M 74.917969 177.414062 L 74.667969 177.628906 L 74.667969 253.296875 L 426.875 253.296875 L 426.875 120.378906 L 422.675781 120.699219 Z M 74.917969 177.414062 "/>
<path style=" stroke:none;fill-rule:nonzero;fill:rgb(24.705882%,23.921569%,33.72549%);fill-opacity:1;" d="M 100.085938 75.035156 L 198.4375 75.035156 L 198.4375 79.007812 L 100.085938 79.007812 Z M 100.085938 75.035156 "/>
<path style=" stroke:none;fill-rule:nonzero;fill:rgb(24.705882%,23.921569%,33.72549%);fill-opacity:1;" d="M 100.085938 83.769531 L 198.4375 83.769531 L 198.4375 87.742188 L 100.085938 87.742188 Z M 100.085938 83.769531 "/>
<path style=" stroke:none;fill-rule:nonzero;fill:rgb(24.705882%,23.921569%,33.72549%);fill-opacity:1;" d="M 100.085938 92.503906 L 133.398438 92.503906 L 133.398438 96.476562 L 100.085938 96.476562 Z M 100.085938 92.503906 "/>
<path style=" stroke:none;fill-rule:nonzero;fill:rgb(100%,100%,100%);fill-opacity:1;" d="M 300.660156 185.257812 L 399.011719 185.257812 L 399.011719 189.226562 L 300.660156 189.226562 Z M 300.660156 185.257812 "/>
<path style=" stroke:none;fill-rule:nonzero;fill:rgb(100%,100%,100%);fill-opacity:1;" d="M 300.660156 193.992188 L 399.011719 193.992188 L 399.011719 197.960938 L 300.660156 197.960938 Z M 300.660156 193.992188 "/>
<path style=" stroke:none;fill-rule:nonzero;fill:rgb(100%,100%,100%);fill-opacity:1;" d="M 300.660156 202.726562 L 333.972656 202.726562 L 333.972656 206.695312 L 300.660156 206.695312 Z M 300.660156 202.726562 "/>
<path style=" stroke:none;fill-rule:nonzero;fill:rgb(94.901961%,94.901961%,94.901961%);fill-opacity:1;" d="M 243.417969 245.765625 C 243.417969 247.902344 241.6875 249.636719 239.550781 249.636719 C 237.414062 249.636719 235.683594 247.902344 235.683594 245.765625 C 235.683594 243.625 237.414062 241.890625 239.550781 241.890625 C 241.6875 241.890625 243.417969 243.625 243.417969 245.765625 Z M 243.417969 245.765625 "/>
<path style=" stroke:none;fill-rule:nonzero;fill:rgb(94.901961%,94.901961%,94.901961%);fill-opacity:1;" d="M 254.640625 246.152344 C 254.640625 248.289062 252.90625 250.023438 250.769531 250.023438 C 248.632812 250.023438 246.902344 248.289062 246.902344 246.152344 C 246.902344 244.011719 248.632812 242.277344 250.769531 242.277344 C 252.90625 242.277344 254.640625 244.011719 254.640625 246.152344 Z M 254.640625 246.152344 "/>
<path style=" stroke:none;fill-rule:nonzero;fill:rgb(94.901961%,94.901961%,94.901961%);fill-opacity:1;" d="M 265.859375 246.539062 C 265.859375 248.675781 264.125 250.410156 261.988281 250.410156 C 259.851562 250.410156 258.121094 248.675781 258.121094 246.539062 C 258.121094 244.398438 259.851562 242.664062 261.988281 242.664062 C 264.125 242.664062 265.859375 244.398438 265.859375 246.539062 Z M 265.859375 246.539062 "/>
<path style=" stroke:none;fill-rule:nonzero;fill:rgb(24.705882%,23.921569%,33.72549%);fill-opacity:1;" d="M 253.902344 246.152344 C 253.902344 247.863281 252.515625 249.25 250.804688 249.25 C 249.097656 249.25 247.710938 247.863281 247.710938 246.152344 C 247.710938 244.441406 249.097656 243.050781 250.804688 243.050781 C 252.515625 243.050781 253.902344 244.441406 253.902344 246.152344 Z M 253.902344 246.152344 "/>
<path style=" stroke:none;fill-rule:nonzero;fill:rgb(24.705882%,23.921569%,33.72549%);fill-opacity:1;" d="M 132.519531 120.480469 L 165.832031 120.480469 L 165.832031 128.089844 L 132.519531 128.089844 Z M 132.519531 120.480469 "/>
<path style=" stroke:none;fill-rule:nonzero;fill:rgb(100%,100%,100%);fill-opacity:1;" d="M 330.53125 223.4375 L 363.84375 223.4375 L 363.84375 231.046875 L 330.53125 231.046875 Z M 330.53125 223.4375 "/>
<use xlink:href="#surface6" mask="url(#mask0)"/>
<use xlink:href="#surface9" mask="url(#mask1)"/>
<path style=" stroke:none;fill-rule:nonzero;fill:rgb(54.901961%,26.27451%,100%);fill-opacity:1;" d="M 160.03125 124.324219 C 160.03125 130.222656 155.253906 135.003906 149.363281 135.003906 C 143.472656 135.003906 138.695312 130.222656 138.695312 124.324219 C 138.695312 118.425781 143.472656 113.644531 149.363281 113.644531 C 155.253906 113.644531 160.03125 118.425781 160.03125 124.324219 Z M 160.03125 124.324219 "/>
<use xlink:href="#surface12" mask="url(#mask2)"/>
<use xlink:href="#surface15" mask="url(#mask3)"/>
<path style=" stroke:none;fill-rule:nonzero;fill:rgb(54.901961%,26.27451%,100%);fill-opacity:1;" d="M 353.9375 67.152344 C 353.9375 73.050781 349.160156 77.832031 343.269531 77.832031 C 337.375 77.832031 332.597656 73.050781 332.597656 67.152344 C 332.597656 61.253906 337.375 56.472656 343.269531 56.472656 C 349.160156 56.472656 353.9375 61.253906 353.9375 67.152344 Z M 353.9375 67.152344 "/>
<use xlink:href="#surface18" mask="url(#mask4)"/>
<use xlink:href="#surface21" mask="url(#mask5)"/>
<path style=" stroke:none;fill-rule:nonzero;fill:rgb(54.901961%,26.27451%,100%);fill-opacity:1;" d="M 358.042969 227.285156 C 358.042969 233.183594 353.269531 237.964844 347.375 237.964844 C 341.484375 237.964844 336.707031 233.183594 336.707031 227.285156 C 336.707031 221.386719 341.484375 216.605469 347.375 216.605469 C 353.269531 216.605469 358.042969 221.386719 358.042969 227.285156 Z M 358.042969 227.285156 "/>
<path style=" stroke:none;fill-rule:nonzero;fill:rgb(54.901961%,26.27451%,100%);fill-opacity:1;" d="M 47.859375 47.089844 L 38.375 46.722656 L 38.847656 34.511719 L 48.332031 34.882812 Z M 47.859375 47.089844 "/>
<path style=" stroke:none;fill-rule:nonzero;fill:rgb(100%,72.54902%,72.54902%);fill-opacity:1;" d="M 81.632812 77.269531 C 81.632812 77.269531 94.769531 70.984375 94.558594 76.410156 C 94.347656 81.835938 81.316406 85.40625 81.316406 85.40625 Z M 81.632812 77.269531 "/>
<path style=" stroke:none;fill-rule:nonzero;fill:rgb(18.431373%,18.039216%,25.490196%);fill-opacity:1;" d="M 74.425781 123.175781 C 74.425781 123.175781 80.625 138.359375 82.914062 149.316406 C 85.203125 160.273438 88.691406 175.351562 84.203125 186.046875 C 79.71875 196.742188 66.96875 228.167969 66.835938 231.5625 C 66.703125 234.953125 67.929688 238.394531 65.21875 238.289062 C 62.507812 238.183594 47.761719 233.539062 47.164062 231.476562 C 46.5625 229.414062 52.195312 224.199219 52.195312 224.199219 L 66.097656 180.589844 L 51.589844 152.175781 L 41.128906 194.5625 L 39.078125 247.464844 C 39.078125 247.464844 29.023438 244.355469 27.5625 247.015625 C 27.5625 247.015625 23.054688 240.730469 22.484375 237.988281 C 21.910156 235.25 24.613281 183.054688 24.613281 183.054688 C 24.613281 183.054688 15.378906 123.601562 22.832031 123.890625 C 30.285156 124.179688 59.476562 106.292969 74.425781 123.175781 Z M 74.425781 123.175781 "/>
<path style=" stroke:none;fill-rule:nonzero;fill:rgb(18.431373%,18.039216%,25.490196%);fill-opacity:1;" d="M 65.324219 235.578125 C 65.324219 235.578125 72.199219 250.789062 72.847656 251.492188 C 73.5 252.195312 77.980469 259.164062 74.59375 259.03125 C 71.203125 258.898438 63.207031 255.195312 57.320312 249.53125 C 51.433594 243.867188 43.671875 234.058594 44.375 233.40625 C 45.078125 232.753906 49.898438 230.902344 49.898438 230.902344 Z M 65.324219 235.578125 "/>
<path style=" stroke:none;fill-rule:nonzero;fill:rgb(18.431373%,18.039216%,25.490196%);fill-opacity:1;" d="M 37.855469 244.019531 C 37.855469 244.019531 38.269531 250.828125 39.519531 253.59375 C 40.769531 256.359375 40.613281 260.429688 37.226562 260.296875 C 33.839844 260.167969 25.082031 258.46875 25.082031 258.46875 C 25.082031 258.46875 24.5625 254.371094 25.265625 253.71875 C 25.972656 253.070312 28.96875 245.714844 27.695312 243.625 C 26.417969 241.539062 37.855469 244.019531 37.855469 244.019531 Z M 37.855469 244.019531 "/>
<path style=" stroke:none;fill-rule:nonzero;fill:rgb(100%,72.54902%,72.54902%);fill-opacity:1;" d="M 32.84375 23.070312 C 32.84375 23.070312 25.625 34.339844 22.808594 36.945312 C 19.992188 39.554688 27.914062 45.296875 27.914062 45.296875 L 42.085938 47.203125 C 42.085938 47.203125 41.910156 34.292969 42.640625 32.960938 C 43.371094 31.632812 32.84375 23.070312 32.84375 23.070312 Z M 32.84375 23.070312 "/>
<path style=" stroke:none;fill-rule:nonzero;fill:rgb(54.901961%,26.27451%,100%);fill-opacity:1;" d="M 45.164062 37.816406 C 45.164062 37.816406 42.246094 43.136719 39.535156 43.03125 C 36.824219 42.925781 22.808594 36.945312 22.210938 34.886719 C 21.609375 32.824219 17.566406 49.648438 17.566406 49.648438 L 51.867188 110.074219 L 60.230469 104.285156 L 56.179688 68.808594 L 52.847656 49.660156 Z M 45.164062 37.816406 "/>
<path style=" stroke:none;fill-rule:nonzero;fill:rgb(34.117647%,35.294118%,53.72549%);fill-opacity:1;" d="M 20.945312 91.894531 C 22.3125 94.757812 23.167969 97.746094 23.046875 100.804688 C 23.042969 100.941406 23.039062 101.074219 23.027344 101.210938 C 22.703125 107.488281 20.390625 114.75 19.5625 120.027344 C 18.960938 123.816406 19.132812 126.578125 21.347656 127.230469 C 26.714844 128.796875 20.5625 129.914062 41.328125 136.835938 C 62.09375 143.753906 65.71875 137.78125 65.773438 136.425781 C 65.824219 135.070312 62.832031 124.765625 63.535156 124.113281 C 64.238281 123.460938 73.382812 132.644531 76.144531 131.394531 C 78.90625 130.144531 76.460938 123.253906 76.460938 123.253906 C 76.460938 123.253906 70.234375 108.75 70.367188 105.359375 C 70.5 101.96875 60.941406 85.972656 60.941406 85.972656 L 54.441406 43.609375 C 54.441406 43.609375 51.941406 38.078125 48.578125 37.269531 C 45.21875 36.457031 42.429688 38.386719 42.429688 38.386719 L 48.054688 50.832031 L 53.988281 72.796875 L 52.996094 80.910156 C 52.996094 80.910156 46.09375 66.378906 41.5625 60.769531 C 37.03125 55.160156 27.367188 41.878906 27.367188 41.878906 C 27.367188 41.878906 25.109375 34.257812 26.8125 31.980469 C 28.515625 29.695312 19.710938 29.355469 15.953125 38.71875 C 13.964844 43.679688 10.734375 51.082031 8.707031 57.972656 C 6.90625 64.078125 6.050781 69.78125 7.839844 73.042969 C 10.570312 78.027344 17.441406 84.578125 20.945312 91.894531 Z M 20.945312 91.894531 "/>
<use xlink:href="#surface24" mask="url(#mask6)"/>
<path style=" stroke:none;fill-rule:nonzero;fill:rgb(34.117647%,35.294118%,53.72549%);fill-opacity:1;" d="M 58.105469 71.601562 L 68.839844 74.734375 L 83.746094 75.3125 L 85.277344 88.277344 L 60.785156 90.042969 C 60.785156 90.042969 54.664062 72.824219 58.105469 71.601562 Z M 58.105469 71.601562 "/>
<path style=" stroke:none;fill-rule:nonzero;fill:rgb(100%,72.54902%,72.54902%);fill-opacity:1;" d="M 40.601562 115.191406 C 40.601562 115.191406 54.960938 117.578125 51.683594 121.902344 C 48.40625 126.230469 35.683594 121.683594 35.683594 121.683594 Z M 40.601562 115.191406 "/>
<use xlink:href="#surface27" mask="url(#mask7)"/>
<path style=" stroke:none;fill-rule:nonzero;fill:rgb(34.117647%,35.294118%,53.72549%);fill-opacity:1;" d="M 14.75 52.257812 C 14.75 52.257812 3.285156 50.453125 3.90625 69.496094 C 4.527344 88.539062 2.699219 100.695312 7.308594 104.269531 C 11.917969 107.84375 26.898438 124.046875 30.285156 124.179688 C 33.671875 124.3125 39.117188 123.84375 41.125 124.601562 C 43.132812 125.359375 44.308594 112.496094 44.308594 112.496094 C 44.308594 112.496094 43.109375 108.375 37.769531 106.132812 C 32.429688 103.886719 19.84375 95.925781 19.949219 93.210938 C 20.054688 90.5 23.132812 81.109375 23.132812 81.109375 C 23.132812 81.109375 27.414062 58.183594 14.75 52.257812 Z M 14.75 52.257812 "/>
<path style=" stroke:none;fill-rule:nonzero;fill:rgb(100%,72.54902%,72.54902%);fill-opacity:1;" d="M 57.871094 24.824219 C 57.871094 33.070312 51.191406 39.753906 42.953125 39.753906 C 34.714844 39.753906 28.039062 33.070312 28.039062 24.824219 C 28.039062 16.578125 34.714844 9.890625 42.953125 9.890625 C 51.191406 9.890625 57.871094 16.578125 57.871094 24.824219 Z M 57.871094 24.824219 "/>
<path style=" stroke:none;fill-rule:nonzero;fill:rgb(18.431373%,18.039216%,25.490196%);fill-opacity:1;" d="M 52.996094 3.421875 C 53.359375 3.730469 53.789062 3.949219 54.25 4.050781 C 54.734375 4.136719 55.199219 3.816406 55.289062 3.332031 C 55.628906 4.039062 56.015625 4.796875 56.710938 5.160156 C 57.410156 5.523438 58.484375 5.21875 58.585938 4.4375 C 58.6875 5.03125 58.949219 5.582031 59.34375 6.039062 C 59.777344 6.449219 60.558594 6.554688 60.9375 6.089844 C 60.632812 7.761719 60.820312 9.476562 60.722656 11.171875 C 60.628906 12.863281 60.175781 14.660156 58.898438 15.777344 C 57.035156 17.402344 54.230469 17 51.777344 16.691406 C 51.40625 16.613281 51.019531 16.632812 50.660156 16.753906 C 49.742188 17.144531 49.785156 18.425781 49.769531 19.421875 C 49.617188 23.042969 46.871094 26.023438 43.28125 26.472656 C 42.304688 26.621094 41.3125 26.378906 40.515625 25.796875 C 39.820312 25.207031 39.464844 24.242188 38.667969 23.796875 C 37.367188 23.078125 35.792969 24.128906 34.84375 25.273438 C 33.894531 26.417969 32.960938 27.824219 31.488281 28.03125 C 29.546875 28.308594 28.0625 26.324219 27.335938 24.5 C 25.3125 19.324219 25.460938 13.554688 27.746094 8.492188 C 31.808594 -0.371094 45.679688 -1.769531 52.996094 3.421875 Z M 52.996094 3.421875 "/>
<path style=" stroke:none;fill-rule:nonzero;fill:rgb(94.901961%,94.901961%,94.901961%);fill-opacity:1;" d="M 411.058594 240.851562 C 416.308594 249.820312 426.90625 253.371094 426.90625 253.371094 C 426.90625 253.371094 428.980469 242.378906 423.730469 233.410156 C 418.476562 224.445312 407.882812 220.894531 407.882812 220.894531 C 407.882812 220.894531 405.804688 231.882812 411.058594 240.851562 Z M 411.058594 240.851562 "/>
<path style=" stroke:none;fill-rule:nonzero;fill:rgb(54.901961%,26.27451%,100%);fill-opacity:1;" d="M 414.335938 237.722656 C 423.417969 242.757812 427.226562 253.273438 427.226562 253.273438 C 427.226562 253.273438 416.300781 255.625 407.21875 250.585938 C 398.132812 245.550781 394.328125 235.03125 394.328125 235.03125 C 394.328125 235.03125 405.25 232.683594 414.335938 237.722656 Z M 414.335938 237.722656 "/>
</g>
</svg>
