<?xml version="1.0" encoding="UTF-8"?>
<svg xmlns="http://www.w3.org/2000/svg" xmlns:xlink="http://www.w3.org/1999/xlink" width="569pt" height="270pt" viewBox="0 0 569 270" version="1.1">
<defs>
<filter id="alpha" filterUnits="objectBoundingBox" x="0%" y="0%" width="100%" height="100%">
  <feColorMatrix type="matrix" in="SourceGraphic" values="0 0 0 0 1 0 0 0 0 1 0 0 0 0 1 0 0 0 1 0"/>
</filter>
<mask id="mask0">
  <g filter="url(#alpha)">
<rect x="0" y="0" width="569" height="270" style="fill:rgb(0%,0%,0%);fill-opacity:0.301961;stroke:none;"/>
  </g>
</mask>
<clipPath id="clip1">
  <rect width="569" height="270"/>
</clipPath>
<g id="surface6" clip-path="url(#clip1)">
<path style=" stroke:none;fill-rule:nonzero;fill:rgb(54.901961%,26.27451%,100%);fill-opacity:1;" d="M 175.746094 46.53125 L 98.558594 46.53125 C 93.859375 46.535156 90.050781 50.347656 90.050781 55.054688 L 90.050781 159.851562 C 90.050781 164.554688 93.863281 168.367188 98.566406 168.367188 L 175.746094 168.367188 C 180.453125 168.371094 184.265625 164.558594 184.269531 159.851562 L 184.269531 55.054688 C 184.269531 50.34375 180.453125 46.527344 175.746094 46.53125 Z M 175.746094 46.53125 "/>
</g>
<mask id="mask1">
  <g filter="url(#alpha)">
<rect x="0" y="0" width="569" height="270" style="fill:rgb(0%,0%,0%);fill-opacity:0.101961;stroke:none;"/>
  </g>
</mask>
<clipPath id="clip2">
  <rect width="569" height="270"/>
</clipPath>
<g id="surface9" clip-path="url(#clip2)">
<path style=" stroke:none;fill-rule:nonzero;fill:rgb(0%,0%,0%);fill-opacity:1;" d="M 82.394531 126.460938 C 81.414062 126.460938 80.804688 126.460938 80.804688 126.460938 L 78.730469 122.234375 L 80.804688 118.707031 C 80.804688 118.707031 82.707031 118.1875 85.234375 117.730469 C 83.183594 119.234375 78.253906 122.503906 82.394531 126.460938 Z M 82.394531 126.460938 "/>
</g>
<mask id="mask2">
  <g filter="url(#alpha)">
<rect x="0" y="0" width="569" height="270" style="fill:rgb(0%,0%,0%);fill-opacity:0.101961;stroke:none;"/>
  </g>
</mask>
<clipPath id="clip3">
  <rect width="569" height="270"/>
</clipPath>
<g id="surface12" clip-path="url(#clip3)">
<path style=" stroke:none;fill-rule:nonzero;fill:rgb(0%,0%,0%);fill-opacity:1;" d="M 37.078125 270.03125 C 27.789062 271.777344 26.09375 264.644531 26.09375 264.644531 C 26.09375 264.644531 24.9375 258.300781 24.515625 257.828125 C 24.40625 257.644531 24.378906 257.421875 24.441406 257.214844 L 26.675781 263.632812 C 26.675781 263.632812 28.511719 267.488281 35.386719 266.90625 C 39.292969 266.578125 41.21875 265.855469 42.148438 265.285156 C 42.433594 265.984375 42.664062 266.703125 42.835938 267.433594 C 43.359375 269.65625 37.078125 270.03125 37.078125 270.03125 Z M 37.078125 270.03125 "/>
</g>
<mask id="mask3">
  <g filter="url(#alpha)">
<rect x="0" y="0" width="569" height="270" style="fill:rgb(0%,0%,0%);fill-opacity:0.101961;stroke:none;"/>
  </g>
</mask>
<clipPath id="clip4">
  <rect width="569" height="270"/>
</clipPath>
<g id="surface15" clip-path="url(#clip4)">
<path style=" stroke:none;fill-rule:nonzero;fill:rgb(0%,0%,0%);fill-opacity:1;" d="M 29.84375 259.988281 C 29.84375 259.988281 32.167969 260.042969 32.328125 258.152344 Z M 29.84375 259.988281 "/>
</g>
<mask id="mask4">
  <g filter="url(#alpha)">
<rect x="0" y="0" width="569" height="270" style="fill:rgb(0%,0%,0%);fill-opacity:0.101961;stroke:none;"/>
  </g>
</mask>
<clipPath id="clip5">
  <rect width="569" height="270"/>
</clipPath>
<g id="surface18" clip-path="url(#clip5)">
<path style=" stroke:none;fill-rule:nonzero;fill:rgb(0%,0%,0%);fill-opacity:1;" d="M 37.394531 57.347656 C 36.355469 59.082031 35.570312 60.957031 35.070312 62.914062 C 30.300781 62.585938 26.109375 59.640625 24.1875 55.261719 C 24 54.851562 23.839844 54.429688 23.703125 54 C 24.808594 51.410156 25.539062 49.316406 25.539062 49.316406 C 25.539062 49.316406 43.992188 46.039062 37.394531 57.347656 Z M 37.394531 57.347656 "/>
</g>
<mask id="mask5">
  <g filter="url(#alpha)">
<rect x="0" y="0" width="569" height="270" style="fill:rgb(0%,0%,0%);fill-opacity:0.101961;stroke:none;"/>
  </g>
</mask>
<clipPath id="clip6">
  <rect width="569" height="270"/>
</clipPath>
<g id="surface21" clip-path="url(#clip6)">
<path style=" stroke:none;fill-rule:nonzero;fill:rgb(0%,0%,0%);fill-opacity:1;" d="M 61.292969 149.511719 C 59.945312 150.734375 59.425781 153.074219 59.425781 153.074219 C 59.425781 153.074219 53.09375 157.402344 53.515625 154.652344 C 53.9375 151.902344 50.242188 140.816406 50.242188 140.816406 L 50.664062 155.921875 C 50.664062 155.921875 30.390625 154.972656 28.914062 153.472656 C 27.441406 151.972656 18.777344 149.136719 18.777344 149.136719 C 18.777344 149.136719 16.128906 151.265625 13.691406 152.882812 C 13.367188 151.046875 13.128906 149.457031 13.128906 149.457031 L 21.84375 142.425781 L 43.550781 136.746094 L 51.734375 134.105469 L 59.691406 146.675781 C 59.691406 146.675781 60.546875 148.011719 61.292969 149.511719 Z M 61.292969 149.511719 "/>
</g>
<mask id="mask6">
  <g filter="url(#alpha)">
<rect x="0" y="0" width="569" height="270" style="fill:rgb(0%,0%,0%);fill-opacity:0.101961;stroke:none;"/>
  </g>
</mask>
<clipPath id="clip7">
  <rect width="569" height="270"/>
</clipPath>
<g id="surface24" clip-path="url(#clip7)">
<path style=" stroke:none;fill-rule:nonzero;fill:rgb(0%,0%,0%);fill-opacity:1;" d="M 33.320312 69.03125 C 32.035156 70.933594 28.332031 73.609375 28.332031 73.609375 L 17.625 64.5625 C 18.671875 63.625 18.984375 61.71875 19.078125 60.121094 C 19.179688 58.21875 21.714844 59.167969 21.714844 59.167969 L 21.40625 59.566406 C 21.109375 59.949219 20.992188 60.441406 21.078125 60.917969 C 21.164062 61.394531 21.453125 61.8125 21.867188 62.0625 Z M 33.320312 69.03125 "/>
</g>
<mask id="mask7">
  <g filter="url(#alpha)">
<rect x="0" y="0" width="569" height="270" style="fill:rgb(0%,0%,0%);fill-opacity:0.101961;stroke:none;"/>
  </g>
</mask>
<clipPath id="clip8">
  <rect width="569" height="270"/>
</clipPath>
<g id="surface27" clip-path="url(#clip8)">
<path style=" stroke:none;fill-rule:nonzero;fill:rgb(0%,0%,0%);fill-opacity:1;" d="M 38.269531 70.011719 C 36.886719 71.664062 34.929688 73.535156 35.019531 72.601562 C 35.113281 71.664062 33.851562 69.582031 33.042969 68.652344 C 34.300781 68.253906 35.652344 68.292969 36.882812 68.761719 C 37.449219 69.042969 37.929688 69.476562 38.269531 70.011719 Z M 38.269531 70.011719 "/>
</g>
<mask id="mask8">
  <g filter="url(#alpha)">
<rect x="0" y="0" width="569" height="270" style="fill:rgb(0%,0%,0%);fill-opacity:0.101961;stroke:none;"/>
  </g>
</mask>
<clipPath id="clip9">
  <rect width="569" height="270"/>
</clipPath>
<g id="surface30" clip-path="url(#clip9)">
<path style=" stroke:none;fill-rule:nonzero;fill:rgb(0%,0%,0%);fill-opacity:1;" d="M 17.632812 64.640625 C 17.632812 64.640625 17.773438 63.367188 15.945312 65.554688 C 14.113281 67.738281 10.664062 69.636719 10.664062 69.636719 C 10.664062 69.636719 2.851562 75.148438 2.429688 77.667969 C 2.007812 80.191406 -0.527344 91.195312 0.808594 94.855469 C 2.140625 98.515625 12.347656 116.058594 12.347656 116.058594 C 12.347656 116.058594 9.671875 119.230469 10.308594 122.957031 C 10.945312 126.6875 11.714844 131.835938 11.363281 132.960938 C 11.007812 134.085938 11.785156 136.902344 10.589844 137.890625 C 9.398438 138.875 8.144531 140.566406 11.855469 142.824219 C 11.855469 142.824219 12.5625 144.722656 11.925781 145.144531 C 11.289062 145.566406 21.285156 149.9375 25.226562 147.59375 C 29.164062 145.25 36.28125 126.671875 36.421875 122.492188 C 36.5625 118.308594 34.238281 104.601562 32.972656 101.363281 C 31.703125 98.125 27.90625 85.511719 26.285156 82.695312 C 24.664062 79.878906 17.632812 64.640625 17.632812 64.640625 Z M 17.632812 64.640625 "/>
</g>
<mask id="mask9">
  <g filter="url(#alpha)">
<rect x="0" y="0" width="569" height="270" style="fill:rgb(0%,0%,0%);fill-opacity:0.101961;stroke:none;"/>
  </g>
</mask>
<clipPath id="clip10">
  <rect width="569" height="270"/>
</clipPath>
<g id="surface33" clip-path="url(#clip10)">
<path style=" stroke:none;fill-rule:nonzero;fill:rgb(0%,0%,0%);fill-opacity:1;" d="M 14.394531 76.609375 C 14.394531 76.609375 20.449219 83.300781 20.238281 87.742188 C 20.238281 87.742188 20.300781 80.558594 14.394531 76.609375 Z M 14.394531 76.609375 "/>
</g>
<mask id="mask10">
  <g filter="url(#alpha)">
<rect x="0" y="0" width="569" height="270" style="fill:rgb(0%,0%,0%);fill-opacity:0.101961;stroke:none;"/>
  </g>
</mask>
<clipPath id="clip11">
  <rect width="569" height="270"/>
</clipPath>
<g id="surface36" clip-path="url(#clip11)">
<path style=" stroke:none;fill-rule:nonzero;fill:rgb(0%,0%,0%);fill-opacity:1;" d="M 22.746094 87.601562 C 22.746094 87.8125 26.828125 103.027344 26.621094 104.925781 C 26.414062 106.824219 27.8125 112.464844 27.8125 112.464844 L 29.714844 111.972656 C 29.714844 111.972656 28.234375 104.15625 27.953125 101.265625 C 27.671875 98.375 22.746094 87.601562 22.746094 87.601562 Z M 22.746094 87.601562 "/>
</g>
<mask id="mask11">
  <g filter="url(#alpha)">
<rect x="0" y="0" width="569" height="270" style="fill:rgb(0%,0%,0%);fill-opacity:0.101961;stroke:none;"/>
  </g>
</mask>
<clipPath id="clip12">
  <rect width="569" height="270"/>
</clipPath>
<g id="surface39" clip-path="url(#clip12)">
<path style=" stroke:none;fill-rule:nonzero;fill:rgb(0%,0%,0%);fill-opacity:1;" d="M 24.386719 130.988281 C 24.246094 131.199219 14.746094 141.980469 17.417969 142.75 C 20.09375 143.523438 24.386719 130.988281 24.386719 130.988281 Z M 24.386719 130.988281 "/>
</g>
<mask id="mask12">
  <g filter="url(#alpha)">
<rect x="0" y="0" width="569" height="270" style="fill:rgb(0%,0%,0%);fill-opacity:0.101961;stroke:none;"/>
  </g>
</mask>
<clipPath id="clip13">
  <rect width="569" height="270"/>
</clipPath>
<g id="surface42" clip-path="url(#clip13)">
<path style=" stroke:none;fill-rule:nonzero;fill:rgb(0%,0%,0%);fill-opacity:1;" d="M 16.574219 128.242188 C 16.367188 128.382812 12.773438 135.992188 12.351562 133.945312 C 11.929688 131.902344 15.449219 139.511719 16.023438 133.878906 Z M 16.574219 128.242188 "/>
</g>
<mask id="mask13">
  <g filter="url(#alpha)">
<rect x="0" y="0" width="569" height="270" style="fill:rgb(0%,0%,0%);fill-opacity:0.101961;stroke:none;"/>
  </g>
</mask>
<clipPath id="clip14">
  <rect width="569" height="270"/>
</clipPath>
<g id="surface45" clip-path="url(#clip14)">
<path style=" stroke:none;fill-rule:nonzero;fill:rgb(0%,0%,0%);fill-opacity:1;" d="M 34.824219 67.035156 C 34.824219 67.035156 38.746094 64.640625 43.679688 70.761719 C 43.679688 70.761719 47.265625 72.808594 48.320312 73.304688 C 49.378906 73.800781 50.574219 86.894531 50.574219 86.894531 C 50.574219 86.894531 52.898438 92.527344 52.261719 95.773438 C 51.625 99.019531 54.097656 110.136719 54.097656 110.136719 C 54.097656 110.136719 58.183594 130.144531 58.042969 130.707031 C 57.902344 131.269531 53.882812 124.4375 53.949219 121.070312 C 54.019531 117.703125 50.574219 107.125 50.085938 106.488281 C 49.59375 105.851562 46.210938 87.753906 46.210938 87.753906 C 46.210938 87.753906 43.464844 80.050781 41.714844 77.527344 C 39.964844 75.007812 37.769531 70.179688 36.855469 69.355469 C 36.199219 68.785156 35.460938 68.3125 34.671875 67.945312 Z M 34.824219 67.035156 "/>
</g>
<mask id="mask14">
  <g filter="url(#alpha)">
<rect x="0" y="0" width="569" height="270" style="fill:rgb(0%,0%,0%);fill-opacity:0.101961;stroke:none;"/>
  </g>
</mask>
<clipPath id="clip15">
  <rect width="569" height="270"/>
</clipPath>
<g id="surface48" clip-path="url(#clip15)">
<path style=" stroke:none;fill-rule:nonzero;fill:rgb(0%,0%,0%);fill-opacity:1;" d="M 48.265625 164.058594 C 47.042969 166.738281 45.996094 180.203125 45.292969 184.476562 C 44.289062 182.761719 43.078125 180.703125 42.675781 180.066406 C 42.15625 179.246094 40.90625 175.78125 40.226562 173.785156 C 41.023438 171.851562 43.21875 166.304688 43.21875 164.269531 C 43.21875 161.785156 47.234375 158.667969 47.234375 158.667969 C 48.710938 160.050781 49.128906 162.226562 48.265625 164.058594 Z M 48.265625 164.058594 "/>
</g>
<mask id="mask15">
  <g filter="url(#alpha)">
<rect x="0" y="0" width="569" height="270" style="fill:rgb(0%,0%,0%);fill-opacity:0.101961;stroke:none;"/>
  </g>
</mask>
<clipPath id="clip16">
  <rect width="569" height="270"/>
</clipPath>
<g id="surface51" clip-path="url(#clip16)">
<path style=" stroke:none;fill-rule:nonzero;fill:rgb(0%,0%,0%);fill-opacity:1;" d="M 21.347656 205.421875 C 21.347656 205.421875 30.632812 201.460938 33.382812 204.257812 C 36.128906 207.054688 21.347656 205.421875 21.347656 205.421875 Z M 21.347656 205.421875 "/>
</g>
<mask id="mask16">
  <g filter="url(#alpha)">
<rect x="0" y="0" width="569" height="270" style="fill:rgb(0%,0%,0%);fill-opacity:0.101961;stroke:none;"/>
  </g>
</mask>
<clipPath id="clip17">
  <rect width="569" height="270"/>
</clipPath>
<g id="surface54" clip-path="url(#clip17)">
<path style=" stroke:none;fill-rule:nonzero;fill:rgb(0%,0%,0%);fill-opacity:1;" d="M 26.570312 207.007812 C 26.570312 207.007812 17.175781 212.289062 20.398438 213.191406 C 23.621094 214.089844 26.570312 207.007812 26.570312 207.007812 Z M 26.570312 207.007812 "/>
</g>
<mask id="mask17">
  <g filter="url(#alpha)">
<rect x="0" y="0" width="569" height="270" style="fill:rgb(0%,0%,0%);fill-opacity:0.101961;stroke:none;"/>
  </g>
</mask>
<clipPath id="clip18">
  <rect width="569" height="270"/>
</clipPath>
<g id="surface57" clip-path="url(#clip18)">
<path style=" stroke:none;fill-rule:nonzero;fill:rgb(0%,0%,0%);fill-opacity:1;" d="M 54.65625 202.40625 C 54.65625 202.40625 50.648438 202.675781 52.175781 203.46875 C 53.707031 204.257812 54.65625 202.40625 54.65625 202.40625 Z M 54.65625 202.40625 "/>
</g>
<mask id="mask18">
  <g filter="url(#alpha)">
<rect x="0" y="0" width="569" height="270" style="fill:rgb(0%,0%,0%);fill-opacity:0.101961;stroke:none;"/>
  </g>
</mask>
<clipPath id="clip19">
  <rect width="569" height="270"/>
</clipPath>
<g id="surface60" clip-path="url(#clip19)">
<path style=" stroke:none;fill-rule:nonzero;fill:rgb(0%,0%,0%);fill-opacity:1;" d="M 59.671875 203.625 C 59.617188 203.890625 48.003906 207.644531 50.273438 209.332031 C 52.542969 211.023438 59.671875 203.625 59.671875 203.625 Z M 59.671875 203.625 "/>
</g>
<mask id="mask19">
  <g filter="url(#alpha)">
<rect x="0" y="0" width="569" height="270" style="fill:rgb(0%,0%,0%);fill-opacity:0.101961;stroke:none;"/>
  </g>
</mask>
<clipPath id="clip20">
  <rect width="569" height="270"/>
</clipPath>
<g id="surface63" clip-path="url(#clip20)">
<path style=" stroke:none;fill-rule:nonzero;fill:rgb(0%,0%,0%);fill-opacity:1;" d="M 22.746094 235.960938 C 24.492188 235.691406 34.207031 231.203125 30.402344 234.421875 C 28.332031 236.3125 25.386719 236.90625 22.746094 235.960938 Z M 22.746094 235.960938 "/>
</g>
<mask id="mask20">
  <g filter="url(#alpha)">
<rect x="0" y="0" width="569" height="270" style="fill:rgb(0%,0%,0%);fill-opacity:0.101961;stroke:none;"/>
  </g>
</mask>
<clipPath id="clip21">
  <rect width="569" height="270"/>
</clipPath>
<g id="surface66" clip-path="url(#clip21)">
<path style=" stroke:none;fill-rule:nonzero;fill:rgb(0%,0%,0%);fill-opacity:1;" d="M 27.519531 239.496094 C 27.519531 239.496094 28.363281 242.773438 31.589844 242.351562 C 34.8125 241.929688 27.519531 239.496094 27.519531 239.496094 Z M 27.519531 239.496094 "/>
</g>
<mask id="mask21">
  <g filter="url(#alpha)">
<rect x="0" y="0" width="569" height="270" style="fill:rgb(0%,0%,0%);fill-opacity:0.101961;stroke:none;"/>
  </g>
</mask>
<clipPath id="clip22">
  <rect width="569" height="270"/>
</clipPath>
<g id="surface69" clip-path="url(#clip22)">
<path style=" stroke:none;fill-rule:nonzero;fill:rgb(0%,0%,0%);fill-opacity:1;" d="M 24.828125 246.152344 C 25.410156 245.992188 32.328125 242.824219 32.480469 244.316406 C 32.636719 245.808594 25.886719 248.382812 25.359375 247.59375 C 25.054688 247.171875 24.871094 246.671875 24.828125 246.152344 Z M 24.828125 246.152344 "/>
</g>
<mask id="mask22">
  <g filter="url(#alpha)">
<rect x="0" y="0" width="569" height="270" style="fill:rgb(0%,0%,0%);fill-opacity:0.101961;stroke:none;"/>
  </g>
</mask>
<clipPath id="clip23">
  <rect width="569" height="270"/>
</clipPath>
<g id="surface72" clip-path="url(#clip23)">
<path style=" stroke:none;fill-rule:nonzero;fill:rgb(0%,0%,0%);fill-opacity:1;" d="M 47.222656 242.351562 C 48.066406 242.296875 55.980469 239.761719 57.566406 242.03125 Z M 47.222656 242.351562 "/>
</g>
<mask id="mask23">
  <g filter="url(#alpha)">
<rect x="0" y="0" width="569" height="270" style="fill:rgb(0%,0%,0%);fill-opacity:0.101961;stroke:none;"/>
  </g>
</mask>
<clipPath id="clip24">
  <rect width="569" height="270"/>
</clipPath>
<g id="surface75" clip-path="url(#clip24)">
<path style=" stroke:none;fill-rule:nonzero;fill:rgb(0%,0%,0%);fill-opacity:1;" d="M 54.390625 243.828125 C 54.390625 243.828125 55.769531 242.601562 57.136719 243.214844 C 58.507812 243.828125 54.390625 243.828125 54.390625 243.828125 Z M 54.390625 243.828125 "/>
</g>
<mask id="mask24">
  <g filter="url(#alpha)">
<rect x="0" y="0" width="569" height="270" style="fill:rgb(0%,0%,0%);fill-opacity:0.101961;stroke:none;"/>
  </g>
</mask>
<clipPath id="clip25">
  <rect width="569" height="270"/>
</clipPath>
<g id="surface78" clip-path="url(#clip25)">
<path style=" stroke:none;fill-rule:nonzero;fill:rgb(0%,0%,0%);fill-opacity:1;" d="M 36.867188 256.929688 C 37.054688 257.839844 37.753906 258.558594 38.660156 258.765625 Z M 36.867188 256.929688 "/>
</g>
<mask id="mask25">
  <g filter="url(#alpha)">
<rect x="0" y="0" width="569" height="270" style="fill:rgb(0%,0%,0%);fill-opacity:0.101961;stroke:none;"/>
  </g>
</mask>
<clipPath id="clip26">
  <rect width="569" height="270"/>
</clipPath>
<g id="surface81" clip-path="url(#clip26)">
<path style=" stroke:none;fill-rule:nonzero;fill:rgb(0%,0%,0%);fill-opacity:1;" d="M 77.144531 261.886719 C 76.621094 264.054688 69.226562 264.261719 65.691406 263.679688 C 62.15625 263.101562 54.8125 260.988281 54.8125 260.988281 C 54.8125 260.988281 47.109375 260.253906 44.839844 259.296875 C 42.570312 258.34375 44.363281 255.917969 44.363281 255.917969 L 44.363281 255.691406 L 55.414062 258.140625 C 55.414062 258.140625 60.851562 260.46875 64.332031 260.46875 C 67.394531 260.46875 74.191406 261.691406 77.351562 259.855469 C 77.40625 260.539062 77.335938 261.226562 77.144531 261.886719 Z M 77.144531 261.886719 "/>
</g>
<mask id="mask26">
  <g filter="url(#alpha)">
<rect x="0" y="0" width="569" height="270" style="fill:rgb(0%,0%,0%);fill-opacity:0.101961;stroke:none;"/>
  </g>
</mask>
<clipPath id="clip27">
  <rect width="569" height="270"/>
</clipPath>
<g id="surface84" clip-path="url(#clip27)">
<path style=" stroke:none;fill-rule:nonzero;fill:rgb(0%,0%,0%);fill-opacity:1;" d="M 62.203125 253.550781 C 62.203125 253.550781 61.679688 257.03125 59.566406 258.195312 Z M 62.203125 253.550781 "/>
</g>
<mask id="mask27">
  <g filter="url(#alpha)">
<rect x="0" y="0" width="569" height="270" style="fill:rgb(0%,0%,0%);fill-opacity:0.101961;stroke:none;"/>
  </g>
</mask>
<clipPath id="clip28">
  <rect width="569" height="270"/>
</clipPath>
<g id="surface87" clip-path="url(#clip28)">
<path style=" stroke:none;fill-rule:nonzero;fill:rgb(0%,0%,0%);fill-opacity:1;" d="M 48.347656 46.066406 C 48.152344 46.171875 47.945312 46.257812 47.734375 46.328125 C 46.742188 46.59375 45.777344 45.925781 44.894531 45.390625 C 44.015625 44.859375 42.804688 44.460938 42.039062 45.152344 C 41.046875 46.054688 41.769531 47.988281 40.746094 48.855469 C 40.097656 49.40625 39.070312 49.21875 38.347656 49.671875 C 37.628906 50.125 37.414062 51.117188 37.230469 51.972656 C 37.046875 52.832031 36.683594 53.808594 35.847656 54.0625 C 35.007812 54.3125 34.226562 53.761719 33.398438 53.792969 C 33.226562 53.792969 33.03125 53.824219 32.917969 53.695312 C 32.839844 53.582031 32.808594 53.445312 32.832031 53.3125 C 32.9375 52.285156 32.847656 51.246094 32.566406 50.253906 C 32.265625 49.246094 31.445312 48.476562 30.421875 48.238281 C 28.941406 48.011719 27.691406 49.308594 26.816406 50.535156 C 25.902344 51.820312 25.066406 53.164062 24.320312 54.558594 C 24.273438 54.644531 24.234375 54.738281 24.199219 54.832031 C 23.472656 53.195312 23.097656 51.421875 23.101562 49.628906 C 23.097656 43.203125 27.824219 37.757812 34.179688 36.859375 C 40.539062 35.960938 46.585938 39.886719 48.359375 46.058594 Z M 48.347656 46.066406 "/>
</g>
<mask id="mask28">
  <g filter="url(#alpha)">
<rect x="0" y="0" width="569" height="270" style="fill:rgb(0%,0%,0%);fill-opacity:0.101961;stroke:none;"/>
  </g>
</mask>
<clipPath id="clip29">
  <rect width="569" height="270"/>
</clipPath>
<g id="surface90" clip-path="url(#clip29)">
<path style=" stroke:none;fill-rule:nonzero;fill:rgb(0%,0%,0%);fill-opacity:1;" d="M 3.628906 91.617188 L 1.726562 97.039062 C 1.726562 97.039062 6.226562 113.804688 8.339844 117.324219 C 10.449219 120.84375 13.570312 125.355469 13.570312 125.355469 C 17.097656 126.945312 21.019531 127.4375 24.828125 126.769531 C 30.886719 125.546875 48.546875 122.398438 48.546875 122.398438 C 49.398438 122.554688 50.265625 122.230469 50.804688 121.554688 C 51.578125 120.429688 55.589844 119.867188 55.589844 119.867188 C 55.589844 119.867188 60.234375 113.128906 54.53125 110.289062 C 54.53125 110.289062 53.828125 111.839844 50.804688 110.78125 C 47.785156 109.71875 46.859375 111.625 46.859375 111.625 C 46.859375 111.625 41.964844 112.609375 39.1875 112.238281 C 36.410156 111.863281 29.617188 111.742188 28.914062 111.175781 C 28.734375 111.019531 28.496094 110.941406 28.257812 110.960938 C 28.019531 110.980469 27.796875 111.09375 27.640625 111.277344 C 26.824219 110.980469 26.0625 110.550781 25.382812 110.003906 C 24.820312 109.390625 24.050781 110.710938 24.050781 110.710938 C 24.050781 110.710938 23.066406 110.144531 23.347656 109.4375 C 23.628906 108.734375 22.429688 106.058594 22.429688 106.058594 C 22.113281 105.035156 22.039062 103.949219 22.222656 102.894531 C 22.570312 101.480469 20.460938 96.410156 20.460938 96.410156 C 20.433594 95.554688 20.527344 94.703125 20.742188 93.875 C 21.097656 92.609375 18.066406 90.074219 18.066406 90.074219 C 18.066406 90.074219 15.113281 75.703125 8.847656 80.425781 C 2.582031 85.144531 3.628906 91.617188 3.628906 91.617188 Z M 3.628906 91.617188 "/>
</g>
<mask id="mask29">
  <g filter="url(#alpha)">
<rect x="0" y="0" width="569" height="270" style="fill:rgb(0%,0%,0%);fill-opacity:0.101961;stroke:none;"/>
  </g>
</mask>
<clipPath id="clip30">
  <rect width="569" height="270"/>
</clipPath>
<g id="surface93" clip-path="url(#clip30)">
<path style=" stroke:none;fill-rule:nonzero;fill:rgb(0%,0%,0%);fill-opacity:1;" d="M 48.957031 114.292969 C 48.886719 114.789062 47.335938 116.742188 47.898438 117.109375 C 48.464844 117.476562 49.378906 117.25 48.511719 118.382812 C 47.644531 119.515625 47.742188 121.199219 48.304688 120.984375 C 48.867188 120.769531 49.785156 118.242188 49.785156 117.25 C 49.648438 116.230469 49.371094 115.238281 48.957031 114.292969 Z M 48.957031 114.292969 "/>
</g>
<mask id="mask30">
  <g filter="url(#alpha)">
<rect x="0" y="0" width="569" height="270" style="fill:rgb(0%,0%,0%);fill-opacity:0.101961;stroke:none;"/>
  </g>
</mask>
<clipPath id="clip31">
  <rect width="569" height="270"/>
</clipPath>
<g id="surface96" clip-path="url(#clip31)">
<path style=" stroke:none;fill-rule:nonzero;fill:rgb(0%,0%,0%);fill-opacity:1;" d="M 32.535156 48.828125 C 32.234375 47.820312 31.417969 47.054688 30.394531 46.820312 C 28.910156 46.59375 27.667969 47.890625 26.792969 49.113281 C 25.875 50.402344 25.042969 51.746094 24.296875 53.136719 C 24.070312 53.558594 23.683594 54.90625 23.285156 55.140625 C 22.746094 55.457031 22.507812 54.617188 22.296875 54.140625 C 21.207031 51.722656 21.445312 48.941406 20.972656 46.378906 C 20.59375 44.886719 20.289062 43.375 20.066406 41.851562 C 19.902344 43.691406 20.625 45.628906 20.972656 47.503906 C 21.445312 50.070312 21.207031 52.847656 22.296875 55.273438 C 22.507812 55.746094 22.746094 56.582031 23.285156 56.265625 C 23.683594 56.03125 24.070312 54.6875 24.296875 54.261719 C 25.042969 52.871094 25.875 51.527344 26.792969 50.242188 C 27.667969 49.015625 28.910156 47.71875 30.394531 47.945312 C 31.417969 48.179688 32.234375 48.949219 32.535156 49.953125 C 32.707031 50.464844 32.804688 51 32.824219 51.539062 C 32.898438 50.625 32.800781 49.703125 32.535156 48.828125 Z M 32.535156 48.828125 "/>
<path style=" stroke:none;fill-rule:nonzero;fill:rgb(0%,0%,0%);fill-opacity:1;" d="M 54.5625 42.160156 C 54.394531 42.800781 54.058594 43.382812 53.589844 43.847656 C 52.304688 44.925781 50.273438 43.910156 48.695312 44.511719 C 48.382812 44.664062 48.0625 44.796875 47.734375 44.914062 C 46.742188 45.183594 45.777344 44.515625 44.894531 43.984375 C 44.015625 43.449219 42.804688 43.054688 42.039062 43.746094 C 41.046875 44.644531 41.769531 46.574219 40.746094 47.449219 C 40.09375 48 39.070312 47.808594 38.347656 48.261719 C 37.628906 48.714844 37.414062 49.707031 37.230469 50.566406 C 37.046875 51.421875 36.683594 52.402344 35.839844 52.652344 C 34.996094 52.902344 34.226562 52.351562 33.394531 52.382812 C 33.222656 52.382812 33.027344 52.414062 32.910156 52.285156 C 32.882812 52.253906 32.863281 52.21875 32.847656 52.179688 C 32.847656 52.464844 32.847656 52.75 32.847656 53.03125 C 32.824219 53.164062 32.855469 53.300781 32.933594 53.414062 C 33.050781 53.539062 33.246094 53.515625 33.417969 53.511719 C 34.242188 53.511719 35.070312 54.019531 35.867188 53.78125 C 36.660156 53.539062 37.089844 52.554688 37.253906 51.699219 C 37.417969 50.839844 37.628906 49.859375 38.375 49.390625 C 39.121094 48.917969 40.117188 49.125 40.773438 48.574219 C 41.792969 47.707031 41.070312 45.769531 42.0625 44.902344 C 42.828125 44.210938 44.046875 44.609375 44.921875 45.140625 C 45.796875 45.671875 46.757812 46.367188 47.757812 46.078125 C 48.097656 45.984375 48.371094 45.789062 48.71875 45.667969 C 50.285156 45.054688 52.316406 46.082031 53.613281 45.007812 C 54.074219 44.535156 54.402344 43.953125 54.5625 43.316406 C 54.917969 42.457031 55.160156 41.550781 55.277344 40.628906 C 55.3125 40.316406 55.3125 40 55.277344 39.6875 C 55.136719 40.535156 54.898438 41.367188 54.5625 42.160156 Z M 54.5625 42.160156 "/>
</g>
<mask id="mask31">
  <g filter="url(#alpha)">
<rect x="0" y="0" width="569" height="270" style="fill:rgb(0%,0%,0%);fill-opacity:0.101961;stroke:none;"/>
  </g>
</mask>
<clipPath id="clip32">
  <rect width="569" height="270"/>
</clipPath>
<g id="surface99" clip-path="url(#clip32)">
<path style=" stroke:none;fill-rule:nonzero;fill:rgb(0%,0%,0%);fill-opacity:1;" d="M 558.585938 185.113281 C 556.605469 185.332031 554.675781 185.945312 552.6875 186.074219 C 550.699219 186.203125 548.515625 185.71875 547.253906 184.167969 C 546.578125 183.335938 546.238281 182.285156 545.671875 181.371094 C 545.125 180.527344 544.382812 179.828125 543.503906 179.339844 C 542.089844 182.296875 542.480469 185.804688 544.519531 188.371094 C 546.558594 190.941406 549.882812 192.121094 553.082031 191.414062 C 556.28125 190.703125 558.796875 188.230469 559.558594 185.039062 C 559.234375 185.058594 558.910156 185.074219 558.585938 185.113281 Z M 558.585938 185.113281 "/>
</g>
<mask id="mask32">
  <g filter="url(#alpha)">
<rect x="0" y="0" width="569" height="270" style="fill:rgb(0%,0%,0%);fill-opacity:0.101961;stroke:none;"/>
  </g>
</mask>
<clipPath id="clip33">
  <rect width="569" height="270"/>
</clipPath>
<g id="surface102" clip-path="url(#clip33)">
<path style=" stroke:none;fill-rule:nonzero;fill:rgb(0%,0%,0%);fill-opacity:1;" d="M 561.035156 210.417969 C 558.019531 210.570312 555.152344 209.125 553.476562 206.613281 C 551.800781 204.105469 551.570312 200.898438 552.867188 198.171875 C 553.550781 198.628906 554.136719 199.21875 554.589844 199.902344 C 555.203125 200.824219 555.570312 201.894531 556.292969 202.738281 C 557.632812 204.3125 559.914062 204.832031 561.988281 204.734375 C 564.0625 204.636719 566.058594 204.050781 568.105469 203.859375 C 568.394531 203.859375 568.683594 203.816406 568.96875 203.808594 C 568.097656 207.539062 564.855469 210.234375 561.035156 210.417969 Z M 561.035156 210.417969 "/>
</g>
<mask id="mask33">
  <g filter="url(#alpha)">
<rect x="0" y="0" width="569" height="270" style="fill:rgb(0%,0%,0%);fill-opacity:0.101961;stroke:none;"/>
  </g>
</mask>
<clipPath id="clip34">
  <rect width="569" height="270"/>
</clipPath>
<g id="surface105" clip-path="url(#clip34)">
<path style=" stroke:none;fill-rule:nonzero;fill:rgb(0%,0%,0%);fill-opacity:1;" d="M 540.1875 224.296875 C 537.203125 224.449219 534.355469 223.035156 532.671875 220.5625 C 530.988281 218.09375 530.714844 214.921875 531.949219 212.199219 C 532.664062 212.664062 533.285156 213.257812 533.78125 213.949219 C 534.449219 214.886719 534.867188 215.976562 535.617188 216.84375 C 537.0625 218.457031 539.496094 219.023438 541.695312 218.976562 C 543.890625 218.925781 545.867188 218.40625 547.984375 218.242188 C 546.925781 221.703125 543.804688 224.128906 540.1875 224.296875 Z M 540.1875 224.296875 "/>
</g>
<mask id="mask34">
  <g filter="url(#alpha)">
<rect x="0" y="0" width="569" height="270" style="fill:rgb(0%,0%,0%);fill-opacity:0.101961;stroke:none;"/>
  </g>
</mask>
<clipPath id="clip35">
  <rect width="569" height="270"/>
</clipPath>
<g id="surface108" clip-path="url(#clip35)">
<path style=" stroke:none;fill-rule:nonzero;fill:rgb(0%,0%,0%);fill-opacity:1;" d="M 544.429688 240.980469 C 542.675781 244.472656 538.777344 246.335938 534.957031 245.507812 C 531.140625 244.679688 528.363281 241.367188 528.214844 237.460938 C 528.15625 236.269531 528.34375 235.082031 528.773438 233.96875 C 529.480469 234.433594 530.113281 235.003906 530.65625 235.652344 C 531.46875 236.652344 532.007812 237.777344 532.957031 238.714844 C 534.714844 240.433594 537.546875 241.164062 540.066406 241.210938 C 541.523438 241.222656 542.980469 241.144531 544.429688 240.980469 Z M 544.429688 240.980469 "/>
</g>
<mask id="mask35">
  <g filter="url(#alpha)">
<rect x="0" y="0" width="569" height="270" style="fill:rgb(0%,0%,0%);fill-opacity:0.2;stroke:none;"/>
  </g>
</mask>
<clipPath id="clip36">
  <rect width="569" height="270"/>
</clipPath>
<g id="surface111" clip-path="url(#clip36)">
<path style=" stroke:none;fill-rule:nonzero;fill:rgb(0%,0%,0%);fill-opacity:1;" d="M 545.40625 261.984375 C 537.753906 262.046875 527.628906 260.792969 525.585938 259.535156 C 524.035156 258.585938 523.417969 255.195312 523.210938 253.628906 L 522.984375 253.628906 C 522.984375 253.628906 523.414062 259.101562 525.433594 260.363281 C 527.449219 261.625 537.601562 262.859375 545.25 262.8125 C 547.457031 262.8125 548.222656 262.011719 548.179688 260.847656 C 547.890625 261.53125 547.046875 261.972656 545.40625 261.984375 Z M 545.40625 261.984375 "/>
</g>
</defs>
<g id="surface1">
<path style=" stroke:none;fill-rule:nonzero;fill:rgb(94.901961%,94.901961%,94.901961%);fill-opacity:1;" d="M 552.277344 19.59375 L 552.277344 233.644531 C 552.277344 244.59375 543.410156 253.46875 532.46875 253.46875 L 80.792969 253.46875 C 69.851562 253.46875 60.980469 244.59375 60.980469 233.644531 L 60.980469 19.59375 C 61.113281 8.738281 69.945312 0.0078125 80.792969 0 L 532.46875 0 C 543.316406 0.0078125 552.144531 8.738281 552.277344 19.59375 Z M 552.277344 19.59375 "/>
<use xlink:href="#surface6" mask="url(#mask0)"/>
<path style=" stroke:none;fill-rule:nonzero;fill:rgb(90.196078%,90.196078%,90.196078%);fill-opacity:1;" d="M 552.277344 19.59375 L 60.980469 19.59375 C 61.113281 8.738281 69.945312 0.0078125 80.792969 0 L 532.46875 0 C 543.316406 0.0078125 552.144531 8.738281 552.277344 19.59375 Z M 552.277344 19.59375 "/>
<path style=" stroke:none;fill-rule:nonzero;fill:rgb(94.901961%,94.901961%,94.901961%);fill-opacity:1;" d="M 84.230469 9.796875 C 84.230469 12.164062 82.3125 14.082031 79.949219 14.082031 C 77.582031 14.082031 75.664062 12.164062 75.664062 9.796875 C 75.664062 7.429688 77.582031 5.511719 79.949219 5.511719 C 82.3125 5.511719 84.230469 7.429688 84.230469 9.796875 Z M 84.230469 9.796875 "/>
<path style=" stroke:none;fill-rule:nonzero;fill:rgb(94.901961%,94.901961%,94.901961%);fill-opacity:1;" d="M 97.078125 9.796875 C 97.078125 12.164062 95.160156 14.082031 92.796875 14.082031 C 90.429688 14.082031 88.511719 12.164062 88.511719 9.796875 C 88.511719 7.429688 90.429688 5.511719 92.796875 5.511719 C 95.160156 5.511719 97.078125 7.429688 97.078125 9.796875 Z M 97.078125 9.796875 "/>
<path style=" stroke:none;fill-rule:nonzero;fill:rgb(94.901961%,94.901961%,94.901961%);fill-opacity:1;" d="M 109.925781 9.796875 C 109.925781 12.164062 108.007812 14.082031 105.644531 14.082031 C 103.277344 14.082031 101.363281 12.164062 101.363281 9.796875 C 101.363281 7.429688 103.277344 5.511719 105.644531 5.511719 C 108.007812 5.511719 109.925781 7.429688 109.925781 9.796875 Z M 109.925781 9.796875 "/>
<path style=" stroke:none;fill-rule:nonzero;fill:rgb(90.196078%,90.196078%,90.196078%);fill-opacity:1;" d="M 222.039062 39.796875 L 316.578125 39.796875 C 318.347656 39.796875 319.785156 41.230469 319.785156 43.003906 L 319.785156 56.792969 C 319.785156 58.5625 318.347656 60 316.578125 60 L 222.039062 60 C 220.269531 60 218.832031 58.5625 218.832031 56.792969 L 218.832031 43.003906 C 218.832031 41.230469 220.269531 39.796875 222.039062 39.796875 Z M 222.039062 39.796875 "/>
<path style=" stroke:none;fill-rule:nonzero;fill:rgb(90.196078%,90.196078%,90.196078%);fill-opacity:1;" d="M 423.941406 39.796875 L 518.480469 39.796875 C 520.253906 39.796875 521.6875 41.230469 521.6875 43.003906 L 521.6875 56.792969 C 521.6875 58.5625 520.253906 60 518.480469 60 L 423.941406 60 C 422.171875 60 420.734375 58.5625 420.734375 56.792969 L 420.734375 43.003906 C 420.734375 41.230469 422.171875 39.796875 423.941406 39.796875 Z M 423.941406 39.796875 "/>
<path style=" stroke:none;fill-rule:nonzero;fill:rgb(90.196078%,90.196078%,90.196078%);fill-opacity:1;" d="M 223.121094 80.203125 L 517.398438 80.203125 C 519.765625 80.203125 521.6875 82.125 521.6875 84.496094 L 521.6875 206.933594 C 521.6875 209.304688 519.765625 211.222656 517.398438 211.222656 L 223.121094 211.222656 C 220.753906 211.222656 218.832031 209.304688 218.832031 206.933594 L 218.832031 84.496094 C 218.832031 82.125 220.753906 80.203125 223.121094 80.203125 Z M 223.121094 80.203125 "/>
<path style=" stroke:none;fill-rule:nonzero;fill:rgb(94.901961%,94.901961%,94.901961%);fill-opacity:1;" d="M 244.542969 95.511719 L 495.976562 95.511719 C 496.492188 95.511719 496.910156 95.925781 496.910156 96.441406 L 496.910156 100.703125 C 496.910156 101.214844 496.492188 101.632812 495.976562 101.632812 L 244.542969 101.632812 C 244.027344 101.632812 243.613281 101.214844 243.613281 100.703125 L 243.613281 96.441406 C 243.613281 95.925781 244.027344 95.511719 244.542969 95.511719 Z M 244.542969 95.511719 "/>
<path style=" stroke:none;fill-rule:nonzero;fill:rgb(94.901961%,94.901961%,94.901961%);fill-opacity:1;" d="M 244.542969 112.652344 L 495.976562 112.652344 C 496.492188 112.652344 496.910156 113.070312 496.910156 113.582031 L 496.910156 117.84375 C 496.910156 118.359375 496.492188 118.777344 495.976562 118.777344 L 244.542969 118.777344 C 244.027344 118.777344 243.613281 118.359375 243.613281 117.84375 L 243.613281 113.582031 C 243.613281 113.070312 244.027344 112.652344 244.542969 112.652344 Z M 244.542969 112.652344 "/>
<path style=" stroke:none;fill-rule:nonzero;fill:rgb(94.901961%,94.901961%,94.901961%);fill-opacity:1;" d="M 244.542969 129.796875 L 495.976562 129.796875 C 496.492188 129.796875 496.910156 130.210938 496.910156 130.726562 L 496.910156 134.988281 C 496.910156 135.5 496.492188 135.917969 495.976562 135.917969 L 244.542969 135.917969 C 244.027344 135.917969 243.613281 135.5 243.613281 134.988281 L 243.613281 130.726562 C 243.613281 130.210938 244.027344 129.796875 244.542969 129.796875 Z M 244.542969 129.796875 "/>
<path style=" stroke:none;fill-rule:nonzero;fill:rgb(94.901961%,94.901961%,94.901961%);fill-opacity:1;" d="M 244.542969 146.9375 L 495.976562 146.9375 C 496.492188 146.9375 496.910156 147.355469 496.910156 147.871094 L 496.910156 152.128906 C 496.910156 152.644531 496.492188 153.0625 495.976562 153.0625 L 244.542969 153.0625 C 244.027344 153.0625 243.613281 152.644531 243.613281 152.128906 L 243.613281 147.871094 C 243.613281 147.355469 244.027344 146.9375 244.542969 146.9375 Z M 244.542969 146.9375 "/>
<path style=" stroke:none;fill-rule:nonzero;fill:rgb(94.901961%,94.901961%,94.901961%);fill-opacity:1;" d="M 244.542969 164.082031 L 495.976562 164.082031 C 496.492188 164.082031 496.910156 164.5 496.910156 165.011719 L 496.910156 169.273438 C 496.910156 169.789062 496.492188 170.203125 495.976562 170.203125 L 244.542969 170.203125 C 244.027344 170.203125 243.613281 169.789062 243.613281 169.273438 L 243.613281 165.011719 C 243.613281 164.5 244.027344 164.082031 244.542969 164.082031 Z M 244.542969 164.082031 "/>
<path style=" stroke:none;fill-rule:nonzero;fill:rgb(94.901961%,94.901961%,94.901961%);fill-opacity:1;" d="M 244.542969 181.222656 L 495.976562 181.222656 C 496.492188 181.222656 496.910156 181.640625 496.910156 182.15625 L 496.910156 186.417969 C 496.910156 186.929688 496.492188 187.347656 495.976562 187.347656 L 244.542969 187.347656 C 244.027344 187.347656 243.613281 186.929688 243.613281 186.417969 L 243.613281 182.15625 C 243.613281 181.640625 244.027344 181.222656 244.542969 181.222656 Z M 244.542969 181.222656 "/>
<path style=" stroke:none;fill-rule:nonzero;fill:rgb(99.607843%,76.078431%,74.509804%);fill-opacity:1;" d="M 96.042969 125.144531 C 92.917969 126.332031 85.644531 126.464844 82.394531 126.460938 C 81.414062 126.460938 80.804688 126.460938 80.804688 126.460938 L 78.730469 122.234375 L 80.804688 118.707031 C 80.804688 118.707031 82.707031 118.1875 85.234375 117.730469 C 88.964844 117.054688 94.070312 116.503906 96.503906 118.039062 C 100.585938 120.5625 100.125 123.59375 96.042969 125.144531 Z M 96.042969 125.144531 "/>
<use xlink:href="#surface9" mask="url(#mask1)"/>
<path style=" stroke:none;fill-rule:nonzero;fill:rgb(29.803922%,28.627451%,50.588235%);fill-opacity:1;" d="M 48.039062 74.570312 L 48.957031 73.511719 C 48.957031 73.511719 53.667969 80.980469 54.164062 83.796875 C 54.660156 86.613281 55.289062 89.851562 55.289062 89.851562 C 55.289062 89.851562 56.515625 93.527344 57.261719 95.136719 C 58.007812 96.746094 58.742188 98.308594 58.808594 99.011719 C 58.875 99.714844 58.527344 101.265625 60.03125 102.25 C 61.539062 103.238281 61.867188 105.925781 61.867188 105.925781 C 61.867188 105.925781 67.214844 111.140625 70.03125 111.28125 C 72.84375 111.421875 80.945312 112.832031 80.664062 114.238281 C 80.382812 115.648438 84.039062 116.492188 85.515625 116.839844 C 86.988281 117.191406 76.011719 121.421875 82.417969 126.84375 C 82.417969 126.84375 78.339844 127.691406 77.917969 128.679688 C 77.492188 129.671875 73.199219 128.117188 73.199219 128.117188 C 73.199219 128.117188 72.289062 125.9375 69.117188 125.796875 C 65.949219 125.65625 64.332031 124.242188 64.332031 124.035156 C 64.332031 123.828125 61.164062 122.0625 59.402344 121.585938 C 57.640625 121.109375 55.320312 120.882812 55.25 120.390625 C 55.175781 119.902344 44.695312 74.609375 44.695312 74.609375 Z M 48.039062 74.570312 "/>
<path style=" stroke:none;fill-rule:nonzero;fill:rgb(9.803922%,14.509804%,20.392157%);fill-opacity:1;" d="M 48.039062 74.570312 L 48.957031 73.511719 C 48.957031 73.511719 53.667969 80.980469 54.164062 83.796875 C 54.660156 86.613281 55.289062 89.851562 55.289062 89.851562 C 55.289062 89.851562 56.515625 93.527344 57.261719 95.136719 C 58.007812 96.746094 58.742188 98.308594 58.808594 99.011719 C 58.875 99.714844 58.527344 101.265625 60.03125 102.25 C 61.539062 103.238281 61.867188 105.925781 61.867188 105.925781 C 61.867188 105.925781 67.214844 111.140625 70.03125 111.28125 C 72.84375 111.421875 80.945312 112.832031 80.664062 114.238281 C 80.382812 115.648438 84.039062 116.492188 85.515625 116.839844 C 86.988281 117.191406 76.011719 121.421875 82.417969 126.84375 C 82.417969 126.84375 78.339844 127.691406 77.917969 128.679688 C 77.492188 129.671875 73.199219 128.117188 73.199219 128.117188 C 73.199219 128.117188 72.289062 125.9375 69.117188 125.796875 C 65.949219 125.65625 64.332031 124.242188 64.332031 124.035156 C 64.332031 123.828125 61.164062 122.0625 59.402344 121.585938 C 57.640625 121.109375 55.320312 120.882812 55.25 120.390625 C 55.175781 119.902344 44.695312 74.609375 44.695312 74.609375 Z M 48.039062 74.570312 "/>
<path style=" stroke:none;fill-rule:nonzero;fill:rgb(24.705882%,23.921569%,33.72549%);fill-opacity:1;" d="M 37.078125 270.03125 C 27.789062 271.777344 26.09375 264.644531 26.09375 264.644531 C 26.09375 264.644531 24.9375 258.300781 24.515625 257.828125 C 24.40625 257.644531 24.378906 257.421875 24.441406 257.214844 C 24.691406 256.140625 25.15625 255.128906 25.808594 254.234375 C 26.386719 253.550781 25.910156 250.695312 25.910156 250.695312 L 36.679688 247.945312 C 37.136719 248.964844 37.492188 250.027344 37.738281 251.117188 C 37.839844 252.121094 39.425781 256.664062 39.265625 257.296875 C 39.109375 257.925781 39.953125 259.886719 40.054688 260.890625 C 40.160156 261.894531 41.480469 263.375 41.59375 263.902344 C 41.769531 264.378906 41.972656 264.839844 42.203125 265.292969 C 42.488281 265.988281 42.71875 266.707031 42.890625 267.441406 C 43.359375 269.65625 37.078125 270.03125 37.078125 270.03125 Z M 37.078125 270.03125 "/>
<use xlink:href="#surface12" mask="url(#mask2)"/>
<use xlink:href="#surface15" mask="url(#mask3)"/>
<path style=" stroke:none;fill-rule:nonzero;fill:rgb(9.803922%,14.509804%,20.392157%);fill-opacity:1;" d="M 70.230469 197.554688 C 69.070312 199.292969 67.746094 206.902344 67.746094 206.902344 C 67.242188 207.902344 66.953125 209 66.902344 210.121094 C 66.957031 211.605469 66.058594 214.296875 66.058594 214.296875 L 63.128906 225.234375 C 63.128906 225.234375 63.445312 228.140625 62.339844 230.199219 C 61.230469 232.253906 61.335938 231.625 61.863281 235.21875 C 62.386719 238.8125 61.25 242.136719 59.328125 243.175781 C 57.40625 244.21875 60.171875 246.714844 60.171875 246.714844 C 60.171875 246.714844 48.027344 249.992188 45.488281 247.984375 C 42.949219 245.976562 46.8125 236.042969 46.8125 236.042969 C 46.8125 236.042969 46.199219 227.695312 46.597656 226.480469 C 46.996094 225.269531 48.816406 214.910156 48.816406 214.910156 C 48.816406 214.910156 49.925781 210.207031 49.503906 209.398438 C 49.082031 208.59375 49.765625 206.339844 49.765625 206.339844 C 49.765625 206.339844 51.558594 203.796875 51.398438 203.007812 C 51.242188 202.21875 51.933594 200.792969 51.933594 200.792969 C 51.933594 200.792969 46.546875 192.550781 47.039062 190.996094 C 47.527344 189.441406 46.828125 186.984375 46.828125 186.984375 C 46.828125 186.984375 46.148438 185.816406 45.332031 184.421875 C 44.328125 182.707031 43.117188 180.648438 42.710938 180.011719 C 42.191406 179.191406 40.945312 175.726562 40.265625 173.730469 C 39.972656 172.878906 39.773438 172.296875 39.773438 172.296875 C 39.773438 172.296875 38.925781 187.832031 38.191406 189.441406 C 37.457031 191.050781 36.355469 203.523438 36.355469 203.523438 C 35.945312 204.636719 35.761719 205.824219 35.824219 207.011719 C 35.933594 208.964844 34.132812 217.46875 34.132812 217.46875 C 34.132812 217.46875 33.34375 223.492188 33.871094 225.078125 C 34.398438 226.664062 33.976562 238.335938 33.976562 238.335938 C 33.976562 238.335938 36.882812 240.605469 37.644531 242.351562 C 38.410156 244.097656 37.542969 248.847656 37.542969 248.847656 C 37.542969 248.847656 29.09375 253.078125 25.34375 251.96875 C 21.589844 250.859375 23.128906 244.464844 23.128906 244.464844 C 23.128906 244.464844 20.59375 240.238281 20.59375 238.605469 C 20.40625 236.371094 20.105469 234.148438 19.695312 231.941406 C 16.476562 226.027344 17.742188 211.660156 17.21875 210.515625 C 16.691406 209.371094 18.324219 205.003906 19.664062 203.070312 C 21.003906 201.132812 20.460938 195.832031 19.664062 194.296875 C 18.867188 192.757812 20.460938 187.480469 20.460938 187.480469 C 20.460938 187.480469 18.929688 177.234375 18.980469 175.648438 C 19.027344 174.0625 17.664062 169.367188 17.664062 169.367188 C 17.664062 169.367188 16.285156 166.917969 16.605469 166.195312 C 16.921875 165.472656 15.546875 163.554688 15.917969 162.710938 C 16.292969 161.867188 15.601562 159.277344 14.917969 157.738281 C 14.40625 156.152344 14.027344 154.527344 13.789062 152.878906 C 13.464844 151.039062 13.226562 149.449219 13.226562 149.449219 L 21.941406 142.421875 L 43.550781 136.746094 L 51.734375 134.105469 L 59.691406 146.675781 C 59.691406 146.675781 60.511719 147.992188 61.238281 149.511719 C 61.851562 150.8125 62.425781 152.269531 62.328125 153.183594 C 62.195312 154.328125 62.457031 155.484375 63.066406 156.460938 C 63.066406 156.460938 67.820312 171.515625 67.710938 175.84375 C 67.601562 180.171875 69.398438 189.6875 69.398438 189.6875 C 69.398438 189.6875 71.394531 195.808594 70.230469 197.554688 Z M 70.230469 197.554688 "/>
<path style=" stroke:none;fill-rule:nonzero;fill:rgb(99.607843%,76.078431%,74.509804%);fill-opacity:1;" d="M 38.074219 75.097656 C 37.738281 74.957031 14.769531 65.46875 17.933594 63.582031 C 19.8125 62.460938 22.125 57.714844 23.703125 54 C 24.808594 51.410156 25.539062 49.316406 25.539062 49.316406 C 25.539062 49.316406 43.972656 46.039062 37.375 57.347656 C 36.335938 59.082031 35.550781 60.957031 35.050781 62.914062 C 33.1875 70.617188 37.914062 74.957031 38.074219 75.097656 Z M 38.074219 75.097656 "/>
<use xlink:href="#surface18" mask="url(#mask4)"/>
<path style=" stroke:none;fill-rule:nonzero;fill:rgb(99.607843%,76.078431%,74.509804%);fill-opacity:1;" d="M 48.847656 49.632812 C 48.851562 55.730469 44.585938 60.992188 38.625 62.25 C 32.667969 63.507812 26.644531 60.414062 24.1875 54.839844 C 23.457031 53.199219 23.085938 51.425781 23.089844 49.632812 C 23.085938 43.210938 27.8125 37.765625 34.167969 36.867188 C 40.523438 35.96875 46.574219 39.890625 48.347656 46.066406 C 48.683594 47.226562 48.851562 48.425781 48.847656 49.632812 Z M 48.847656 49.632812 "/>
<use xlink:href="#surface21" mask="url(#mask5)"/>
<path style=" stroke:none;fill-rule:nonzero;fill:rgb(100%,100%,100%);fill-opacity:1;" d="M 61.941406 148.316406 C 60.253906 149.375 59.617188 152.222656 59.617188 152.222656 C 59.617188 152.222656 53.285156 156.558594 53.707031 153.808594 C 54.128906 151.058594 50.433594 139.972656 50.433594 139.972656 L 50.855469 155.074219 C 50.855469 155.074219 30.585938 154.125 29.105469 152.625 C 27.625 151.125 18.972656 148.296875 18.972656 148.296875 C 18.972656 148.296875 11.472656 154.324219 10.101562 153.808594 C 8.730469 153.292969 12.546875 143.03125 12.546875 143.03125 L 16.453125 83.03125 C 16.453125 83.03125 15.398438 65.179688 16.984375 64.542969 C 17.226562 64.445312 17.453125 64.304688 17.644531 64.125 C 18.691406 63.191406 19.003906 61.285156 19.09375 59.679688 C 19.199219 57.785156 21.730469 58.734375 21.730469 58.734375 L 20.257812 60.636719 L 33.339844 68.597656 L 33.453125 68.664062 C 33.964844 68.394531 34.488281 68.160156 35.027344 67.953125 C 36.183594 67.507812 37.726562 67.082031 38.734375 67.5 C 39.292969 67.78125 39.769531 68.203125 40.117188 68.722656 C 40.863281 69.847656 41.460938 71.0625 41.898438 72.335938 L 46.609375 80.382812 C 46.609375 80.382812 49.054688 91.054688 49.054688 91.476562 C 49.054688 91.898438 49.796875 101.613281 50.640625 102.671875 C 51.484375 103.734375 52.328125 109.011719 52.011719 110.597656 C 51.691406 112.179688 52.539062 118.101562 52.539062 118.101562 C 56.023438 120.949219 57.816406 130.671875 57.816406 130.671875 C 57.816406 130.671875 63.324219 141.558594 63.726562 142.824219 C 64.132812 144.09375 63.628906 147.257812 61.941406 148.316406 Z M 61.941406 148.316406 "/>
<use xlink:href="#surface24" mask="url(#mask6)"/>
<path style=" stroke:none;fill-rule:nonzero;fill:rgb(100%,100%,100%);fill-opacity:1;" d="M 33.320312 68.582031 C 32.035156 70.488281 28.332031 73.15625 28.332031 73.15625 L 17.625 64.132812 C 18.671875 63.195312 18.984375 61.292969 19.078125 59.6875 C 19.179688 57.789062 21.714844 58.738281 21.714844 58.738281 L 21.40625 59.136719 C 21.109375 59.519531 20.992188 60.011719 21.078125 60.488281 C 21.164062 60.964844 21.453125 61.382812 21.867188 61.632812 Z M 33.320312 68.582031 "/>
<use xlink:href="#surface27" mask="url(#mask7)"/>
<path style=" stroke:none;fill-rule:nonzero;fill:rgb(100%,100%,100%);fill-opacity:1;" d="M 38.476562 69.375 C 37.09375 71.027344 35.136719 72.90625 35.230469 71.964844 C 35.320312 71.019531 34.1875 69.515625 33.394531 68.570312 C 34.550781 68.125 36.089844 67.707031 37.101562 68.125 C 37.664062 68.410156 38.136719 68.84375 38.476562 69.375 Z M 38.476562 69.375 "/>
<path style=" stroke:none;fill-rule:nonzero;fill:rgb(9.803922%,14.509804%,20.392157%);fill-opacity:1;" d="M 35.859375 77.3125 C 35.859375 77.78125 35.480469 78.160156 35.015625 78.160156 C 34.546875 78.160156 34.171875 77.78125 34.171875 77.3125 C 34.171875 76.847656 34.546875 76.46875 35.015625 76.46875 C 35.480469 76.46875 35.859375 76.847656 35.859375 77.3125 Z M 35.859375 77.3125 "/>
<path style=" stroke:none;fill-rule:nonzero;fill:rgb(9.803922%,14.509804%,20.392157%);fill-opacity:1;" d="M 42.265625 100.140625 C 42.265625 100.605469 41.886719 100.984375 41.421875 100.984375 C 40.953125 100.984375 40.578125 100.605469 40.578125 100.140625 C 40.578125 99.671875 40.953125 99.292969 41.421875 99.292969 C 41.886719 99.292969 42.265625 99.671875 42.265625 100.140625 Z M 42.265625 100.140625 "/>
<path style=" stroke:none;fill-rule:nonzero;fill:rgb(9.803922%,14.509804%,20.392157%);fill-opacity:1;" d="M 49.515625 123.238281 C 49.515625 123.707031 49.136719 124.082031 48.671875 124.082031 C 48.203125 124.082031 47.828125 123.707031 47.828125 123.238281 C 47.828125 122.773438 48.203125 122.394531 48.671875 122.394531 C 49.136719 122.394531 49.515625 122.773438 49.515625 123.238281 Z M 49.515625 123.238281 "/>
<path style=" stroke:none;fill-rule:nonzero;fill:rgb(9.803922%,14.509804%,20.392157%);fill-opacity:1;" d="M 49.730469 148.382812 C 49.730469 148.851562 49.351562 149.230469 48.886719 149.230469 C 48.417969 149.230469 48.039062 148.851562 48.039062 148.382812 C 48.039062 147.917969 48.417969 147.539062 48.886719 147.539062 C 49.351562 147.539062 49.730469 147.917969 49.730469 148.382812 Z M 49.730469 148.382812 "/>
<path style=" stroke:none;fill-rule:nonzero;fill:rgb(9.803922%,14.509804%,20.392157%);fill-opacity:1;" d="M 39.589844 88.089844 C 39.589844 88.554688 39.214844 88.933594 38.746094 88.933594 C 38.28125 88.933594 37.902344 88.554688 37.902344 88.089844 C 37.902344 87.625 38.28125 87.246094 38.746094 87.246094 C 39.214844 87.246094 39.589844 87.625 39.589844 88.089844 Z M 39.589844 88.089844 "/>
<path style=" stroke:none;fill-rule:nonzero;fill:rgb(9.803922%,14.509804%,20.392157%);fill-opacity:1;" d="M 45.292969 111.542969 C 45.292969 112.011719 44.914062 112.390625 44.449219 112.390625 C 43.984375 112.390625 43.605469 112.011719 43.605469 111.542969 C 43.605469 111.078125 43.984375 110.699219 44.449219 110.699219 C 44.914062 110.699219 45.292969 111.078125 45.292969 111.542969 Z M 45.292969 111.542969 "/>
<path style=" stroke:none;fill-rule:nonzero;fill:rgb(9.803922%,14.509804%,20.392157%);fill-opacity:1;" d="M 50.855469 134.578125 C 50.855469 135.042969 50.476562 135.421875 50.011719 135.421875 C 49.542969 135.421875 49.167969 135.042969 49.167969 134.578125 C 49.167969 134.109375 49.542969 133.734375 50.011719 133.734375 C 50.476562 133.734375 50.855469 134.109375 50.855469 134.578125 Z M 50.855469 134.578125 "/>
<path style=" stroke:none;fill-rule:nonzero;fill:rgb(9.803922%,14.509804%,20.392157%);fill-opacity:1;" d="M 49.589844 151.199219 C 49.589844 151.667969 49.210938 152.042969 48.746094 152.042969 C 48.277344 152.042969 47.898438 151.667969 47.898438 151.199219 C 47.898438 150.734375 48.277344 150.355469 48.746094 150.355469 C 49.210938 150.355469 49.589844 150.734375 49.589844 151.199219 Z M 49.589844 151.199219 "/>
<use xlink:href="#surface30" mask="url(#mask8)"/>
<path style=" stroke:none;fill-rule:nonzero;fill:rgb(9.803922%,14.509804%,20.392157%);fill-opacity:1;" d="M 17.242188 64.640625 C 17.242188 64.640625 17.382812 63.367188 15.550781 65.554688 C 13.722656 67.738281 10.273438 69.636719 10.273438 69.636719 C 10.273438 69.636719 2.460938 75.148438 2.039062 77.667969 C 1.613281 80.191406 -0.917969 91.195312 0.417969 94.855469 C 1.75 98.515625 11.960938 116.058594 11.960938 116.058594 C 11.960938 116.058594 9.289062 119.234375 9.898438 122.957031 C 10.511719 126.679688 11.3125 131.835938 10.957031 132.960938 C 10.601562 134.085938 11.378906 136.902344 10.1875 137.890625 C 8.992188 138.875 7.738281 140.566406 11.453125 142.824219 C 11.453125 142.824219 12.15625 144.722656 11.519531 145.144531 C 10.882812 145.566406 20.882812 149.9375 24.820312 147.59375 C 28.761719 145.25 35.878906 126.671875 36.019531 122.492188 C 36.160156 118.308594 33.835938 104.601562 32.566406 101.363281 C 31.300781 98.125 27.488281 85.5625 25.867188 82.738281 C 24.246094 79.917969 17.242188 64.640625 17.242188 64.640625 Z M 17.242188 64.640625 "/>
<use xlink:href="#surface33" mask="url(#mask9)"/>
<use xlink:href="#surface36" mask="url(#mask10)"/>
<use xlink:href="#surface39" mask="url(#mask11)"/>
<use xlink:href="#surface42" mask="url(#mask12)"/>
<use xlink:href="#surface45" mask="url(#mask13)"/>
<path style=" stroke:none;fill-rule:nonzero;fill:rgb(9.803922%,14.509804%,20.392157%);fill-opacity:1;" d="M 34.769531 67.035156 C 34.769531 67.035156 39.167969 64.640625 44.101562 70.761719 C 44.101562 70.761719 47.6875 72.808594 48.746094 73.304688 C 49.804688 73.800781 50.996094 86.894531 50.996094 86.894531 C 50.996094 86.894531 53.320312 92.527344 52.683594 95.773438 C 52.046875 99.019531 54.519531 110.136719 54.519531 110.136719 C 54.519531 110.136719 58.605469 130.144531 58.464844 130.707031 C 58.324219 131.269531 54.3125 124.4375 54.378906 121.058594 C 54.445312 117.679688 51.003906 107.113281 50.511719 106.476562 C 50.023438 105.839844 46.640625 87.742188 46.640625 87.742188 C 46.640625 87.742188 43.890625 80.0625 42.136719 77.527344 C 40.378906 74.992188 38.191406 70.179688 37.277344 69.355469 C 36.496094 68.738281 35.613281 68.265625 34.671875 67.945312 Z M 34.769531 67.035156 "/>
<use xlink:href="#surface48" mask="url(#mask14)"/>
<use xlink:href="#surface51" mask="url(#mask15)"/>
<use xlink:href="#surface54" mask="url(#mask16)"/>
<use xlink:href="#surface57" mask="url(#mask17)"/>
<use xlink:href="#surface60" mask="url(#mask18)"/>
<use xlink:href="#surface63" mask="url(#mask19)"/>
<use xlink:href="#surface66" mask="url(#mask20)"/>
<use xlink:href="#surface69" mask="url(#mask21)"/>
<use xlink:href="#surface72" mask="url(#mask22)"/>
<use xlink:href="#surface75" mask="url(#mask23)"/>
<use xlink:href="#surface78" mask="url(#mask24)"/>
<path style=" stroke:none;fill-rule:nonzero;fill:rgb(24.705882%,23.921569%,33.72549%);fill-opacity:1;" d="M 77.144531 261.886719 C 76.621094 264.054688 69.226562 264.261719 65.691406 263.679688 C 62.15625 263.101562 54.8125 260.988281 54.8125 260.988281 C 54.8125 260.988281 47.109375 260.253906 44.839844 259.296875 C 42.570312 258.34375 44.363281 255.917969 44.363281 255.917969 L 44.363281 255.691406 C 44.308594 254.808594 44.15625 251.601562 44.699219 250.738281 C 45.3125 249.742188 44.964844 246.453125 44.964844 246.453125 C 44.964844 246.453125 55.890625 248.566406 56.097656 247.5625 C 56.304688 246.558594 58 245.113281 58.789062 244.8125 C 59.578125 244.511719 60.167969 247.457031 60.167969 247.457031 C 60.167969 247.457031 65.128906 251.679688 65.445312 253.210938 C 65.765625 254.742188 69.246094 255.539062 69.246094 255.539062 C 69.246094 255.539062 74.527344 257.015625 75.898438 257.753906 C 76.707031 258.136719 77.257812 258.914062 77.351562 259.804688 C 77.414062 260.507812 77.34375 261.210938 77.144531 261.886719 Z M 77.144531 261.886719 "/>
<use xlink:href="#surface81" mask="url(#mask25)"/>
<use xlink:href="#surface84" mask="url(#mask26)"/>
<use xlink:href="#surface87" mask="url(#mask27)"/>
<path style=" stroke:none;fill-rule:nonzero;fill:rgb(9.803922%,14.509804%,20.392157%);fill-opacity:1;" d="M 26.804688 50.328125 C 27.679688 49.101562 28.921875 47.808594 30.40625 48.035156 C 31.429688 48.273438 32.242188 49.042969 32.535156 50.050781 C 32.824219 51.042969 32.914062 52.085938 32.804688 53.113281 C 32.78125 53.246094 32.8125 53.386719 32.890625 53.496094 C 33.007812 53.621094 33.203125 53.601562 33.375 53.597656 C 34.203125 53.597656 35.027344 54.105469 35.824219 53.867188 C 36.617188 53.625 37.046875 52.640625 37.210938 51.777344 C 37.375 50.914062 37.585938 49.941406 38.332031 49.476562 C 39.078125 49.011719 40.074219 49.210938 40.730469 48.65625 C 41.746094 47.785156 41.027344 45.855469 42.019531 44.949219 C 42.785156 44.265625 44.003906 44.65625 44.878906 45.191406 C 45.753906 45.722656 46.714844 46.414062 47.714844 46.125 C 48.042969 46.007812 48.363281 45.871094 48.675781 45.714844 C 50.242188 45.105469 52.273438 46.132812 53.570312 45.0625 C 54.039062 44.59375 54.375 44.011719 54.542969 43.371094 C 54.898438 42.507812 55.140625 41.601562 55.261719 40.675781 C 55.371094 39.746094 55.113281 38.804688 54.542969 38.058594 C 53.707031 37.066406 52.292969 36.832031 51.222656 36.09375 C 50.351562 35.410156 49.628906 34.558594 49.097656 33.585938 C 48.570312 32.617188 47.871094 31.75 47.039062 31.023438 C 46.175781 30.292969 44.976562 30.109375 43.933594 30.539062 C 43.625 30.753906 43.28125 30.914062 42.917969 31.015625 C 42.523438 31.023438 42.136719 30.917969 41.800781 30.710938 C 38.128906 28.984375 33.875 29.289062 29.863281 29.804688 C 28.246094 29.9375 26.65625 30.320312 25.160156 30.941406 C 23.648438 31.585938 22.488281 32.855469 21.988281 34.421875 C 21.660156 35.644531 21.910156 37.011719 21.519531 38.230469 C 21.25 39.0625 20.699219 39.769531 20.386719 40.585938 C 19.535156 42.8125 20.558594 45.261719 20.996094 47.609375 C 21.46875 50.171875 21.230469 52.945312 22.320312 55.371094 C 22.535156 55.847656 22.773438 56.679688 23.3125 56.371094 C 23.707031 56.136719 24.09375 54.785156 24.320312 54.359375 C 25.0625 52.964844 25.894531 51.617188 26.804688 50.328125 Z M 26.804688 50.328125 "/>
<use xlink:href="#surface90" mask="url(#mask28)"/>
<use xlink:href="#surface93" mask="url(#mask29)"/>
<use xlink:href="#surface96" mask="url(#mask30)"/>
<path style=" stroke:none;fill-rule:nonzero;fill:rgb(54.901961%,26.27451%,100%);fill-opacity:1;" d="M 73.78125 37.960938 L 150.96875 37.960938 C 155.671875 37.960938 159.484375 41.773438 159.484375 46.480469 L 159.484375 151.273438 C 159.484375 155.980469 155.671875 159.796875 150.96875 159.796875 L 73.78125 159.796875 C 69.078125 159.796875 65.265625 155.980469 65.265625 151.273438 L 65.265625 46.480469 C 65.265625 41.773438 69.078125 37.960938 73.78125 37.960938 Z M 73.78125 37.960938 "/>
<path style=" stroke:none;fill-rule:nonzero;fill:rgb(94.901961%,94.901961%,94.901961%);fill-opacity:1;" d="M 135.007812 110.816406 C 135.007812 123.328125 124.871094 133.46875 112.367188 133.46875 C 99.867188 133.46875 89.730469 123.328125 89.730469 110.816406 C 89.730469 98.304688 99.867188 88.164062 112.367188 88.164062 C 124.871094 88.164062 135.007812 98.304688 135.007812 110.816406 Z M 135.007812 110.816406 "/>
<path style=" stroke:none;fill-rule:nonzero;fill:rgb(94.901961%,94.901961%,94.901961%);fill-opacity:1;" d="M 146.007812 159.796875 L 78.742188 159.796875 C 79.214844 149.179688 87.953125 140.820312 98.570312 140.816406 L 126.175781 140.816406 C 136.796875 140.820312 145.53125 149.179688 146.007812 159.796875 Z M 146.007812 159.796875 "/>
<path style=" stroke:none;fill-rule:nonzero;fill:rgb(99.607843%,76.078431%,74.509804%);fill-opacity:1;" d="M 54.089844 111.054688 C 54.089844 111.054688 62.46875 105.542969 66.519531 108.277344 C 70.566406 111.007812 77.183594 114.828125 70.671875 117.605469 C 64.164062 120.386719 55.175781 119.847656 55.175781 119.847656 Z M 54.089844 111.054688 "/>
<path style=" stroke:none;fill-rule:nonzero;fill:rgb(9.803922%,14.509804%,20.392157%);fill-opacity:1;" d="M 3.207031 91.617188 L 1.332031 97.039062 C 1.332031 97.039062 5.835938 113.804688 7.949219 117.324219 C 10.058594 120.84375 13.128906 125.355469 13.128906 125.355469 C 16.65625 126.945312 20.578125 127.4375 24.386719 126.769531 C 30.445312 125.546875 48.109375 122.398438 48.109375 122.398438 C 48.957031 122.554688 49.824219 122.230469 50.367188 121.554688 C 51.136719 120.421875 55.175781 119.847656 55.175781 119.847656 C 55.175781 119.847656 59.820312 113.113281 54.117188 110.269531 C 54.117188 110.269531 53.414062 111.820312 50.390625 110.761719 C 47.367188 109.703125 46.445312 111.605469 46.445312 111.605469 C 46.445312 111.605469 41.519531 112.59375 38.773438 112.21875 C 36.023438 111.84375 29.203125 111.722656 28.5 111.160156 C 28.128906 110.832031 27.5625 110.863281 27.234375 111.234375 C 26.414062 110.9375 25.652344 110.507812 24.976562 109.960938 C 24.410156 109.347656 23.640625 110.667969 23.640625 110.667969 C 23.640625 110.667969 22.65625 110.101562 22.9375 109.394531 C 23.21875 108.691406 22.019531 106.015625 22.019531 106.015625 C 21.703125 104.992188 21.632812 103.90625 21.8125 102.851562 C 22.160156 101.4375 20.050781 96.367188 20.050781 96.367188 C 20.023438 95.511719 20.117188 94.660156 20.332031 93.832031 C 20.6875 92.566406 17.65625 90.03125 17.65625 90.03125 C 17.65625 90.03125 14.703125 75.660156 8.4375 80.382812 C 2.171875 85.101562 3.207031 91.617188 3.207031 91.617188 Z M 3.207031 91.617188 "/>
<path style="fill:none;stroke-width:4;stroke-linecap:butt;stroke-linejoin:miter;stroke:rgb(24.705882%,23.921569%,33.72549%);stroke-opacity:1;stroke-miterlimit:10;" d="M 1010.768347 649.890755 C 1013.769088 644.378255 1010.372504 637.621615 1006.490694 632.708854 C 1002.608884 627.802474 997.877928 622.711068 997.980081 616.420182 C 998.120541 607.417708 1007.678222 602.109375 1015.307766 597.336979 C 1020.970868 593.795964 1026.193435 589.597786 1030.86693 584.831771 C 1032.826989 582.987891 1034.442281 580.81862 1035.648963 578.419661 C 1037.232332 574.910547 1037.181256 570.897396 1037.079103 567.05013 C 1036.753491 554.213151 1036.12142 541.382552 1035.18289 528.558333 " transform="matrix(0.611828,0,0,0.612245,-82.486645,-140.357143)"/>
<path style=" stroke:none;fill-rule:nonzero;fill:rgb(34.117647%,72.156863%,58.039216%);fill-opacity:1;" d="M 559.742188 182.824219 C 559.609375 179.898438 557.996094 177.242188 555.460938 175.78125 L 553.539062 179.589844 L 553.59375 174.980469 C 552.675781 174.707031 551.722656 174.59375 550.765625 174.644531 C 546.046875 174.878906 542.410156 178.890625 542.636719 183.613281 C 542.863281 188.335938 546.867188 191.984375 551.585938 191.765625 C 556.308594 191.546875 559.960938 187.546875 559.75 182.824219 Z M 559.742188 182.824219 "/>
<path style=" stroke:none;fill-rule:nonzero;fill:rgb(34.117647%,72.156863%,58.039216%);fill-opacity:1;" d="M 544.429688 240.980469 C 542.675781 244.472656 538.777344 246.335938 534.957031 245.507812 C 531.140625 244.679688 528.363281 241.367188 528.214844 237.460938 C 528.15625 236.269531 528.34375 235.082031 528.773438 233.96875 C 530.03125 230.609375 533.253906 228.390625 536.839844 228.410156 C 540.429688 228.429688 543.621094 230.6875 544.84375 234.0625 L 539.480469 238.433594 L 545.378906 237.0625 C 545.382812 238.425781 545.054688 239.769531 544.429688 240.980469 Z M 544.429688 240.980469 "/>
<path style=" stroke:none;fill-rule:nonzero;fill:rgb(34.117647%,72.156863%,58.039216%);fill-opacity:1;" d="M 540.1875 224.296875 C 535.765625 224.613281 531.832031 221.5 531.121094 217.117188 C 530.414062 212.734375 533.164062 208.539062 537.460938 207.441406 L 537.417969 210.980469 L 539.363281 207.128906 C 544.09375 206.90625 548.109375 210.566406 548.328125 215.300781 C 548.550781 220.03125 544.894531 224.050781 540.164062 224.269531 Z M 540.1875 224.296875 "/>
<path style=" stroke:none;fill-rule:nonzero;fill:rgb(34.117647%,72.156863%,58.039216%);fill-opacity:1;" d="M 561.035156 210.417969 C 556.304688 210.640625 552.289062 206.984375 552.066406 202.25 C 551.839844 197.515625 555.496094 193.496094 560.226562 193.273438 C 561.832031 193.195312 563.425781 193.570312 564.828125 194.363281 L 563.308594 198.519531 L 566.4375 195.519531 C 568.109375 197.054688 569.105469 199.1875 569.207031 201.453125 C 569.25 202.25 569.175781 203.046875 568.988281 203.824219 C 568.109375 207.550781 564.859375 210.246094 561.035156 210.417969 Z M 561.035156 210.417969 "/>
<use xlink:href="#surface99" mask="url(#mask31)"/>
<use xlink:href="#surface102" mask="url(#mask32)"/>
<use xlink:href="#surface105" mask="url(#mask33)"/>
<use xlink:href="#surface108" mask="url(#mask34)"/>
<path style=" stroke:none;fill-rule:nonzero;fill:rgb(39.607843%,38.823529%,50.196078%);fill-opacity:1;" d="M 522.984375 253.648438 C 522.984375 253.648438 529.761719 253.4375 531.800781 251.988281 C 533.839844 250.535156 542.203125 248.792969 542.734375 251.125 C 543.265625 253.457031 552.921875 262.757812 545.265625 262.792969 C 537.613281 262.832031 527.488281 261.605469 525.449219 260.34375 C 523.414062 259.082031 522.984375 253.648438 522.984375 253.648438 Z M 522.984375 253.648438 "/>
<use xlink:href="#surface111" mask="url(#mask35)"/>
</g>
</svg>
