<?xml version="1.0" encoding="UTF-8"?>
<svg xmlns="http://www.w3.org/2000/svg" xmlns:xlink="http://www.w3.org/1999/xlink" width="347pt" height="270pt" viewBox="0 0 347 270" version="1.1">
<defs>
<linearGradient id="linear0" gradientUnits="userSpaceOnUse" x1="-121.09" y1="464.11" x2="-121.09" y2="77.38" gradientTransform="matrix(0.379105,-0.103507,0.103498,0.379138,184.711716,-1.785199)">
<stop offset="0" style="stop-color:rgb(50.196078%,50.196078%,50.196078%);stop-opacity:0.25098;"/>
<stop offset="0.54" style="stop-color:rgb(50.196078%,50.196078%,50.196078%);stop-opacity:0.121569;"/>
<stop offset="1" style="stop-color:rgb(50.196078%,50.196078%,50.196078%);stop-opacity:0.101961;"/>
</linearGradient>
<linearGradient id="linear1" gradientUnits="userSpaceOnUse" x1="-402.3" y1="269.44" x2="-402.3" y2="170.67" gradientTransform="matrix(0.379105,-0.103507,0.103498,0.379138,184.711676,-1.784279)">
<stop offset="0" style="stop-color:rgb(0%,0%,0%);stop-opacity:0.121569;"/>
<stop offset="0.55" style="stop-color:rgb(0%,0%,0%);stop-opacity:0.0901961;"/>
<stop offset="1" style="stop-color:rgb(0%,0%,0%);stop-opacity:0.0196078;"/>
</linearGradient>
<linearGradient id="linear2" gradientUnits="userSpaceOnUse" x1="-402.3" y1="252.79" x2="-402.3" y2="231.21" gradientTransform="matrix(0.379105,-0.103507,0.103498,0.379138,184.711853,-1.78607)">
<stop offset="0" style="stop-color:rgb(0%,0%,0%);stop-opacity:0.121569;"/>
<stop offset="0.55" style="stop-color:rgb(0%,0%,0%);stop-opacity:0.0901961;"/>
<stop offset="1" style="stop-color:rgb(0%,0%,0%);stop-opacity:0.0196078;"/>
</linearGradient>
<linearGradient id="linear3" gradientUnits="userSpaceOnUse" x1="-402.26" y1="234.11" x2="-402.26" y2="194.99" gradientTransform="matrix(0.379105,-0.103507,0.103498,0.379138,184.7111,-1.785968)">
<stop offset="0" style="stop-color:rgb(0%,0%,0%);stop-opacity:0.121569;"/>
<stop offset="0.55" style="stop-color:rgb(0%,0%,0%);stop-opacity:0.0901961;"/>
<stop offset="1" style="stop-color:rgb(0%,0%,0%);stop-opacity:0.0196078;"/>
</linearGradient>
<linearGradient id="linear4" gradientUnits="userSpaceOnUse" x1="-402.3" y1="272.44" x2="-402.3" y2="239.1" gradientTransform="matrix(0.379105,-0.103507,0.103498,0.379138,184.711676,-1.784279)">
<stop offset="0" style="stop-color:rgb(0%,0%,0%);stop-opacity:0.121569;"/>
<stop offset="0.55" style="stop-color:rgb(0%,0%,0%);stop-opacity:0.0901961;"/>
<stop offset="1" style="stop-color:rgb(0%,0%,0%);stop-opacity:0.0196078;"/>
</linearGradient>
<linearGradient id="linear5" gradientUnits="userSpaceOnUse" x1="-402.26" y1="216.85" x2="-402.26" y2="180.15" gradientTransform="matrix(0.379105,-0.103507,0.103498,0.379138,184.711676,-1.784279)">
<stop offset="0" style="stop-color:rgb(0%,0%,0%);stop-opacity:0.121569;"/>
<stop offset="0.55" style="stop-color:rgb(0%,0%,0%);stop-opacity:0.0901961;"/>
<stop offset="1" style="stop-color:rgb(0%,0%,0%);stop-opacity:0.0196078;"/>
</linearGradient>
<filter id="alpha" filterUnits="objectBoundingBox" x="0%" y="0%" width="100%" height="100%">
  <feColorMatrix type="matrix" in="SourceGraphic" values="0 0 0 0 1 0 0 0 0 1 0 0 0 0 1 0 0 0 1 0"/>
</filter>
<mask id="mask0">
  <g filter="url(#alpha)">
<rect x="0" y="0" width="347" height="270" style="fill:rgb(0%,0%,0%);fill-opacity:0.101961;stroke:none;"/>
  </g>
</mask>
<clipPath id="clip1">
  <rect x="0" y="0" width="347" height="270"/>
</clipPath>
<g id="surface5" clip-path="url(#clip1)">
<path style=" stroke:none;fill-rule:nonzero;fill:rgb(0%,0%,0%);fill-opacity:1;" d="M 23.332031 158.5 L 99.683594 137.652344 L 117.203125 201.828125 L 40.851562 222.671875 Z M 23.332031 158.5 "/>
</g>
<linearGradient id="linear6" gradientUnits="userSpaceOnUse" x1="-261.96" y1="207" x2="-229.82" y2="207" gradientTransform="matrix(0.379105,-0.103507,0.103498,0.379138,184.710361,-1.784964)">
<stop offset="0" style="stop-color:rgb(0%,0%,0%);stop-opacity:0.0901961;"/>
<stop offset="0.55" style="stop-color:rgb(0%,0%,0%);stop-opacity:0.0705882;"/>
<stop offset="1" style="stop-color:rgb(0%,0%,0%);stop-opacity:0.0196078;"/>
</linearGradient>
<linearGradient id="linear7" gradientUnits="userSpaceOnUse" x1="-91.63" y1="207" x2="-59.49" y2="207" gradientTransform="matrix(0.379105,-0.103507,0.103498,0.379138,184.713306,-1.786299)">
<stop offset="0" style="stop-color:rgb(0%,0%,0%);stop-opacity:0.0901961;"/>
<stop offset="0.55" style="stop-color:rgb(0%,0%,0%);stop-opacity:0.0705882;"/>
<stop offset="1" style="stop-color:rgb(0%,0%,0%);stop-opacity:0.0196078;"/>
</linearGradient>
<linearGradient id="linear8" gradientUnits="userSpaceOnUse" x1="84.06" y1="207" x2="116.2" y2="207" gradientTransform="matrix(0.379105,-0.103507,0.103498,0.379138,184.710636,-1.786669)">
<stop offset="0" style="stop-color:rgb(0%,0%,0%);stop-opacity:0.0901961;"/>
<stop offset="0.55" style="stop-color:rgb(0%,0%,0%);stop-opacity:0.0705882;"/>
<stop offset="1" style="stop-color:rgb(0%,0%,0%);stop-opacity:0.0196078;"/>
</linearGradient>
<linearGradient id="linear9" gradientUnits="userSpaceOnUse" x1="-261.96" y1="370.91" x2="-229.82" y2="370.91" gradientTransform="matrix(0.379105,-0.103507,0.103498,0.379138,184.710755,-1.787)">
<stop offset="0" style="stop-color:rgb(0%,0%,0%);stop-opacity:0.0901961;"/>
<stop offset="0.55" style="stop-color:rgb(0%,0%,0%);stop-opacity:0.0705882;"/>
<stop offset="1" style="stop-color:rgb(0%,0%,0%);stop-opacity:0.0196078;"/>
</linearGradient>
<linearGradient id="linear10" gradientUnits="userSpaceOnUse" x1="-91.63" y1="370.91" x2="-59.49" y2="370.91" gradientTransform="matrix(0.379105,-0.103507,0.103498,0.379138,184.709909,-1.7873)">
<stop offset="0" style="stop-color:rgb(0%,0%,0%);stop-opacity:0.0901961;"/>
<stop offset="0.55" style="stop-color:rgb(0%,0%,0%);stop-opacity:0.0705882;"/>
<stop offset="1" style="stop-color:rgb(0%,0%,0%);stop-opacity:0.0196078;"/>
</linearGradient>
<linearGradient id="linear11" gradientUnits="userSpaceOnUse" x1="84.06" y1="370.91" x2="116.2" y2="370.91" gradientTransform="matrix(0.379105,-0.103507,0.103498,0.379138,184.711029,-1.788706)">
<stop offset="0" style="stop-color:rgb(0%,0%,0%);stop-opacity:0.0901961;"/>
<stop offset="0.55" style="stop-color:rgb(0%,0%,0%);stop-opacity:0.0705882;"/>
<stop offset="1" style="stop-color:rgb(0%,0%,0%);stop-opacity:0.0196078;"/>
</linearGradient>
<linearGradient id="linear12" gradientUnits="userSpaceOnUse" x1="495.23" y1="686.51" x2="495.23" y2="299.78" gradientTransform="matrix(0.392978,0,0,0.393013,0,0)">
<stop offset="0" style="stop-color:rgb(50.196078%,50.196078%,50.196078%);stop-opacity:0.25098;"/>
<stop offset="0.54" style="stop-color:rgb(50.196078%,50.196078%,50.196078%);stop-opacity:0.121569;"/>
<stop offset="1" style="stop-color:rgb(50.196078%,50.196078%,50.196078%);stop-opacity:0.101961;"/>
</linearGradient>
<linearGradient id="linear13" gradientUnits="userSpaceOnUse" x1="372.77" y1="598.59" x2="372.77" y2="499.81" gradientTransform="matrix(0.392978,0,0,0.393013,-62.385334,-41.950218)">
<stop offset="0" style="stop-color:rgb(0%,0%,0%);stop-opacity:0.121569;"/>
<stop offset="0.55" style="stop-color:rgb(0%,0%,0%);stop-opacity:0.0901961;"/>
<stop offset="1" style="stop-color:rgb(0%,0%,0%);stop-opacity:0.0196078;"/>
</linearGradient>
<linearGradient id="linear14" gradientUnits="userSpaceOnUse" x1="214.02" y1="475.19" x2="214.02" y2="453.62" gradientTransform="matrix(0.392978,0,0,0.393013,0,0)">
<stop offset="0" style="stop-color:rgb(0%,0%,0%);stop-opacity:0.121569;"/>
<stop offset="0.55" style="stop-color:rgb(0%,0%,0%);stop-opacity:0.0901961;"/>
<stop offset="1" style="stop-color:rgb(0%,0%,0%);stop-opacity:0.0196078;"/>
</linearGradient>
<linearGradient id="linear15" gradientUnits="userSpaceOnUse" x1="214.05" y1="456.51" x2="214.05" y2="417.4" gradientTransform="matrix(0.392978,0,0,0.393013,0,0)">
<stop offset="0" style="stop-color:rgb(0%,0%,0%);stop-opacity:0.121569;"/>
<stop offset="0.55" style="stop-color:rgb(0%,0%,0%);stop-opacity:0.0901961;"/>
<stop offset="1" style="stop-color:rgb(0%,0%,0%);stop-opacity:0.0196078;"/>
</linearGradient>
<linearGradient id="linear16" gradientUnits="userSpaceOnUse" x1="372.77" y1="601.58" x2="372.77" y2="568.25" gradientTransform="matrix(0.392978,0,0,0.393013,-62.385334,-41.950218)">
<stop offset="0" style="stop-color:rgb(0%,0%,0%);stop-opacity:0.121569;"/>
<stop offset="0.55" style="stop-color:rgb(0%,0%,0%);stop-opacity:0.0901961;"/>
<stop offset="1" style="stop-color:rgb(0%,0%,0%);stop-opacity:0.0196078;"/>
</linearGradient>
<linearGradient id="linear17" gradientUnits="userSpaceOnUse" x1="372.81" y1="545.99" x2="372.81" y2="509.29" gradientTransform="matrix(0.392978,0,0,0.393013,-62.385334,-41.950218)">
<stop offset="0" style="stop-color:rgb(0%,0%,0%);stop-opacity:0.121569;"/>
<stop offset="0.55" style="stop-color:rgb(0%,0%,0%);stop-opacity:0.0901961;"/>
<stop offset="1" style="stop-color:rgb(0%,0%,0%);stop-opacity:0.0196078;"/>
</linearGradient>
<mask id="mask1">
  <g filter="url(#alpha)">
<rect x="0" y="0" width="347" height="270" style="fill:rgb(0%,0%,0%);fill-opacity:0.101961;stroke:none;"/>
  </g>
</mask>
<clipPath id="clip2">
  <rect x="0" y="0" width="347" height="270"/>
</clipPath>
<g id="surface8" clip-path="url(#clip2)">
<path style=" stroke:none;fill-rule:nonzero;fill:rgb(0%,0%,0%);fill-opacity:1;" d="M 44.304688 199.53125 L 123.449219 199.53125 L 123.449219 266.054688 L 44.304688 266.054688 Z M 44.304688 199.53125 "/>
</g>
</defs>
<g id="surface1">
<path style=" stroke:none;fill-rule:nonzero;fill:rgb(96.078431%,96.078431%,96.078431%);fill-opacity:1;" d="M 2.066406 79.800781 L 292.042969 0.628906 L 331.113281 143.746094 L 41.136719 222.921875 Z M 2.066406 79.800781 "/>
<path style=" stroke:none;fill-rule:nonzero;fill:url(#linear0);" d="M 0.00390625 80.171875 L 293.632812 0 L 333.660156 146.625 L 40.027344 226.792969 Z M 0.00390625 80.171875 "/>
<path style=" stroke:none;fill-rule:nonzero;fill:rgb(100%,100%,100%);fill-opacity:1;" d="M 6.007812 94.242188 L 295.984375 15.066406 L 331.085938 143.652344 L 41.109375 222.824219 Z M 6.007812 94.242188 "/>
<path style=" stroke:none;fill-rule:nonzero;fill:rgb(100%,32.156863%,32.156863%);fill-opacity:1;" d="M 13.734375 83.539062 C 14.277344 85.546875 13.089844 87.617188 11.082031 88.160156 C 9.074219 88.703125 7.003906 87.515625 6.460938 85.507812 C 5.917969 83.5 7.105469 81.429688 9.113281 80.886719 C 11.121094 80.34375 13.191406 81.53125 13.734375 83.539062 Z M 13.734375 83.539062 "/>
<path style=" stroke:none;fill-rule:nonzero;fill:rgb(100%,100%,0%);fill-opacity:1;" d="M 25.488281 80.878906 C 26.039062 82.898438 24.847656 84.980469 22.828125 85.53125 C 20.8125 86.082031 18.730469 84.894531 18.175781 82.875 C 17.625 80.855469 18.816406 78.773438 20.835938 78.222656 C 22.851562 77.671875 24.9375 78.863281 25.488281 80.878906 Z M 25.488281 80.878906 "/>
<path style=" stroke:none;fill-rule:nonzero;fill:rgb(41.176471%,94.117647%,68.235294%);fill-opacity:1;" d="M 36.453125 77.882812 C 37.003906 79.902344 35.816406 81.988281 33.796875 82.539062 C 31.777344 83.089844 29.695312 81.898438 29.144531 79.878906 C 28.59375 77.863281 29.785156 75.777344 31.800781 75.226562 C 33.820312 74.675781 35.902344 75.867188 36.453125 77.882812 Z M 36.453125 77.882812 "/>
<path style=" stroke:none;fill-rule:nonzero;fill:rgb(54.901961%,26.27451%,100%);fill-opacity:1;" d="M 5.957031 94.070312 L 82.3125 73.222656 L 117.457031 201.976562 L 41.105469 222.824219 Z M 5.957031 94.070312 "/>
<path style=" stroke:none;fill-rule:nonzero;fill:url(#linear1);" d="M 75.4375 118.308594 C 72.527344 107.652344 61.078125 101.5 49.863281 104.554688 C 38.652344 107.605469 31.929688 118.746094 34.820312 129.402344 C 37.105469 137.765625 44.644531 143.355469 53.210938 143.894531 L 51.851562 138.921875 C 50.871094 135.332031 53.167969 131.546875 56.960938 130.511719 C 60.742188 129.476562 64.640625 131.574219 65.609375 135.167969 L 66.964844 140.140625 C 74.0625 135.316406 77.71875 126.652344 75.4375 118.308594 Z M 75.4375 118.308594 "/>
<path style=" stroke:none;fill-rule:nonzero;fill:url(#linear2);" d="M 55.992188 127.550781 L 56.265625 127.476562 C 56.863281 127.316406 57.480469 127.667969 57.644531 128.265625 L 59.285156 134.28125 C 59.449219 134.878906 59.097656 135.496094 58.496094 135.660156 L 58.226562 135.734375 C 57.625 135.898438 57.007812 135.546875 56.84375 134.945312 L 55.203125 128.933594 C 55.039062 128.335938 55.390625 127.714844 55.992188 127.550781 Z M 55.992188 127.550781 "/>
<path style=" stroke:none;fill-rule:nonzero;fill:url(#linear3);" d="M 62.21875 119.066406 C 61.101562 114.96875 56.699219 112.601562 52.390625 113.78125 C 48.078125 114.957031 45.492188 119.230469 46.609375 123.328125 C 47.726562 127.421875 52.128906 129.789062 56.4375 128.613281 C 60.75 127.433594 63.339844 123.160156 62.21875 119.066406 Z M 62.21875 119.066406 "/>
<path style=" stroke:none;fill-rule:nonzero;fill:url(#linear4);" d="M 56.945312 130.507812 C 53.167969 131.542969 50.875 135.328125 51.835938 138.917969 L 53.195312 143.890625 C 58.066406 144.1875 62.902344 142.867188 66.949219 140.136719 L 65.59375 135.164062 C 64.625 131.574219 60.726562 129.476562 56.945312 130.507812 Z M 56.945312 130.507812 "/>
<path style=" stroke:none;fill-rule:nonzero;fill:url(#linear5);" d="M 46.433594 122.933594 C 45.5 121.964844 44.859375 120.75 44.582031 119.433594 C 44.324219 118.089844 44.613281 116.703125 45.390625 115.578125 C 46.273438 114.347656 47.746094 113.613281 49.183594 113.082031 C 50.625 112.550781 52.171875 112.21875 53.5625 111.546875 C 55.855469 110.4375 57.617188 108.472656 58.476562 106.078125 C 58.917969 107.121094 59.207031 108.226562 59.332031 109.351562 C 59.449219 110.511719 59.070312 111.667969 58.289062 112.535156 C 59.332031 111.691406 59.539062 112.929688 59.46875 113.75 C 60.253906 114.265625 61.699219 113.984375 62.007812 114.839844 C 62.359375 115.675781 62.496094 116.589844 62.402344 117.496094 C 62.261719 118.394531 63.035156 119.710938 62.132812 120.023438 "/>
<path style=" stroke:none;fill-rule:nonzero;fill:rgb(54.901961%,26.27451%,100%);fill-opacity:1;" d="M 73.628906 115.746094 C 70.949219 105.949219 61.355469 99.714844 51.320312 101.25 C 41.28125 102.78125 33.984375 111.59375 34.351562 121.746094 C 34.71875 131.894531 42.632812 140.15625 52.757812 140.957031 L 51.402344 135.988281 C 50.429688 132.378906 52.550781 128.664062 56.148438 127.671875 C 59.753906 126.695312 63.46875 128.816406 64.464844 132.417969 L 65.820312 137.390625 C 72.726562 132.542969 75.851562 123.886719 73.628906 115.746094 Z M 73.628906 115.746094 "/>
<path style="fill-rule:nonzero;fill:rgb(100%,100%,100%);fill-opacity:1;stroke-width:1;stroke-linecap:butt;stroke-linejoin:miter;stroke:rgb(100%,100%,100%);stroke-opacity:1;stroke-miterlimit:10;" d="M 302.210105 423.597621 L 302.61026 423.603836 C 304.187347 423.601665 305.466847 424.878245 305.469088 426.455212 L 305.465322 442.32077 C 305.467563 443.897738 304.190944 445.177083 302.613857 445.179254 L 302.211084 445.182627 C 300.633997 445.184797 299.347526 443.896012 299.345285 442.319044 L 299.346433 426.463074 C 299.34681 424.876518 300.633018 423.599791 302.210105 423.597621 Z M 302.210105 423.597621 " transform="matrix(0.379105,-0.103507,0.103498,0.379138,-103.148992,-4.621834)"/>
<path style="fill-rule:nonzero;fill:rgb(100%,100%,100%);fill-opacity:1;stroke-width:1;stroke-linecap:butt;stroke-linejoin:miter;stroke:rgb(100%,100%,100%);stroke-opacity:1;stroke-miterlimit:10;" d="M 314.768864 407.901133 C 314.768044 418.698431 306.009605 427.455144 295.20887 427.463429 C 284.410754 427.462127 275.652985 418.70396 275.646832 407.894456 C 275.647652 397.097159 284.406091 388.340446 295.213797 388.344366 C 306.014531 388.336081 314.772301 397.094248 314.768864 407.901133 Z M 314.768864 407.901133 " transform="matrix(0.379105,-0.103507,0.103498,0.379138,-100.508177,-5.734061)"/>
<path style="fill-rule:nonzero;fill:rgb(100%,100%,100%);fill-opacity:1;stroke-width:1;stroke-linecap:butt;stroke-linejoin:miter;stroke:rgb(100%,100%,100%);stroke-opacity:1;stroke-miterlimit:10;" d="M 301.639105 431.593993 C 292.484262 434.118559 287.086782 443.570773 289.56187 452.754627 L 293.001148 465.397335 C 304.800061 466.311745 316.549273 463.101372 326.240882 456.322813 L 322.791663 443.670165 C 320.256934 434.516128 310.813828 429.119123 301.639105 431.593993 Z M 301.639105 431.593993 " transform="matrix(0.392978,0,0,0.393013,-62.385334,-41.950218)"/>
<path style="fill-rule:nonzero;fill:rgb(100%,100%,100%);fill-opacity:1;stroke-width:1;stroke-linecap:butt;stroke-linejoin:miter;stroke:rgb(100%,100%,100%);stroke-opacity:1;stroke-miterlimit:10;" d="M 275.894216 412.003759 C 273.57817 409.489132 271.997692 406.39803 271.291944 403.058446 C 270.606077 399.698984 271.262124 396.200373 273.120925 393.308056 C 275.228229 390.216953 278.727148 388.368255 282.245947 387.096033 C 285.774687 385.83375 289.472409 385.008793 292.822226 383.339002 C 298.408569 380.526198 302.643057 375.586398 304.561498 369.632795 C 305.664851 372.29651 306.410359 375.099375 306.748323 377.961875 C 307.066406 380.844253 306.191676 383.736571 304.322935 385.96296 C 306.817903 383.845903 307.324849 387.036398 307.245328 389.08388 C 309.14389 390.405799 312.672629 389.749809 313.447958 391.916563 C 314.342568 394.053498 314.710352 396.36934 314.52149 398.665304 C 314.213347 400.951328 316.131788 404.31079 313.954904 405.066172 " transform="matrix(0.392978,0,0,0.393013,-62.385334,-41.950218)"/>
<path style=" stroke:none;fill-rule:nonzero;fill:rgb(100%,100%,100%);fill-opacity:1;" d="M 57.566406 109.480469 C 57.566406 109.480469 62.863281 108.519531 61.277344 117.203125 "/>
<use xlink:href="#surface5" mask="url(#mask0)"/>
<path style=" stroke:none;fill-rule:nonzero;fill:rgb(100%,100%,100%);fill-opacity:1;" d="M 41.722656 168.324219 L 79.085938 158.121094 L 80.085938 161.777344 L 42.71875 171.976562 Z M 41.722656 168.324219 "/>
<path style=" stroke:none;fill-rule:nonzero;fill:rgb(100%,100%,100%);fill-opacity:1;" d="M 44.050781 176.851562 L 90.351562 164.210938 L 91.347656 167.867188 L 45.046875 180.507812 Z M 44.050781 176.851562 "/>
<path style=" stroke:none;fill-rule:nonzero;fill:rgb(96.078431%,96.078431%,96.078431%);fill-opacity:1;" d="M 97.476562 77.558594 L 152.707031 62.480469 L 160.136719 89.695312 L 104.90625 104.773438 Z M 97.476562 77.558594 "/>
<path style=" stroke:none;fill-rule:nonzero;fill:rgb(87.843137%,87.843137%,87.843137%);fill-opacity:1;" d="M 104.683594 103.957031 L 159.917969 88.878906 L 167.347656 116.09375 L 112.113281 131.171875 Z M 104.683594 103.957031 "/>
<path style=" stroke:none;fill-rule:nonzero;fill:rgb(96.078431%,96.078431%,96.078431%);fill-opacity:1;" d="M 228.660156 41.746094 L 283.890625 26.664062 L 291.320312 53.878906 L 236.089844 68.960938 Z M 228.660156 41.746094 "/>
<path style=" stroke:none;fill-rule:nonzero;fill:rgb(87.843137%,87.843137%,87.843137%);fill-opacity:1;" d="M 235.863281 68.144531 L 291.09375 53.0625 L 298.523438 80.277344 L 243.292969 95.359375 Z M 235.863281 68.144531 "/>
<path style=" stroke:none;fill-rule:nonzero;fill:rgb(96.078431%,96.078431%,96.078431%);fill-opacity:1;" d="M 162.863281 59.707031 L 218.097656 44.625 L 225.527344 71.839844 L 170.292969 86.921875 Z M 162.863281 59.707031 "/>
<path style=" stroke:none;fill-rule:nonzero;fill:rgb(87.843137%,87.843137%,87.843137%);fill-opacity:1;" d="M 170.070312 86.109375 L 225.300781 71.027344 L 232.730469 98.242188 L 177.5 113.324219 Z M 170.070312 86.109375 "/>
<path style=" stroke:none;fill-rule:nonzero;fill:rgb(87.843137%,87.843137%,87.843137%);fill-opacity:1;" d="M 112.90625 139.085938 L 167.867188 124.199219 L 175.203125 151.28125 L 120.238281 166.167969 Z M 112.90625 139.085938 "/>
<path style=" stroke:none;fill-rule:nonzero;fill:rgb(74.117647%,74.117647%,74.117647%);fill-opacity:1;" d="M 121.535156 165.695312 L 176.769531 150.617188 L 184.195312 177.832031 L 128.964844 192.910156 Z M 121.535156 165.695312 "/>
<path style=" stroke:none;fill-rule:nonzero;fill:rgb(96.078431%,96.078431%,96.078431%);fill-opacity:1;" d="M 245.507812 103.480469 L 300.738281 88.398438 L 308.167969 115.613281 L 252.9375 130.695312 Z M 245.507812 103.480469 "/>
<path style=" stroke:none;fill-rule:nonzero;fill:rgb(74.117647%,74.117647%,74.117647%);fill-opacity:1;" d="M 252.71875 129.882812 L 307.949219 114.800781 L 315.378906 142.015625 L 260.148438 157.097656 Z M 252.71875 129.882812 "/>
<path style=" stroke:none;fill-rule:nonzero;fill:rgb(96.078431%,96.078431%,96.078431%);fill-opacity:1;" d="M 179.714844 121.445312 L 234.945312 106.363281 L 242.375 133.578125 L 187.144531 148.660156 Z M 179.714844 121.445312 "/>
<path style=" stroke:none;fill-rule:nonzero;fill:rgb(74.117647%,74.117647%,74.117647%);fill-opacity:1;" d="M 186.925781 147.84375 L 242.15625 132.761719 L 249.585938 159.976562 L 194.351562 175.058594 Z M 186.925781 147.84375 "/>
<path style=" stroke:none;fill-rule:nonzero;fill:url(#linear6);" d="M 119.007812 100.484375 C 118.152344 97.34375 114.730469 95.542969 111.363281 96.460938 C 108 97.378906 105.96875 100.671875 106.824219 103.8125 C 107.679688 106.953125 111.105469 108.753906 114.46875 107.835938 C 117.832031 106.917969 119.867188 103.625 119.007812 100.484375 Z M 119.007812 100.484375 "/>
<path style=" stroke:none;fill-rule:nonzero;fill:rgb(54.901961%,26.27451%,100%);fill-opacity:1;" d="M 116.753906 100.234375 C 117.539062 103.136719 115.824219 106.128906 112.921875 106.914062 C 110.019531 107.699219 107.03125 105.984375 106.242188 103.082031 C 105.457031 100.179688 107.171875 97.1875 110.074219 96.402344 C 112.976562 95.617188 115.96875 97.332031 116.753906 100.234375 Z M 116.753906 100.234375 "/>
<path style=" stroke:none;fill-rule:nonzero;fill:url(#linear7);" d="M 183.585938 82.851562 C 182.726562 79.710938 179.304688 77.910156 175.941406 78.828125 C 172.574219 79.746094 170.542969 83.039062 171.398438 86.179688 C 172.257812 89.320312 175.679688 91.121094 179.042969 90.203125 C 182.410156 89.285156 184.441406 85.992188 183.585938 82.851562 Z M 183.585938 82.851562 "/>
<path style=" stroke:none;fill-rule:nonzero;fill:rgb(54.901961%,26.27451%,100%);fill-opacity:1;" d="M 182.664062 82.667969 C 183.457031 85.585938 181.738281 88.597656 178.824219 89.394531 C 175.90625 90.1875 172.898438 88.46875 172.101562 85.554688 C 171.304688 82.636719 173.023438 79.625 175.941406 78.832031 C 178.855469 78.035156 181.867188 79.753906 182.664062 82.667969 Z M 182.664062 82.667969 "/>
<path style=" stroke:none;fill-rule:nonzero;fill:url(#linear8);" d="M 250.191406 64.667969 C 249.332031 61.527344 245.910156 59.722656 242.546875 60.644531 C 239.179688 61.5625 237.148438 64.851562 238.007812 67.992188 C 238.863281 71.132812 242.285156 72.933594 245.652344 72.015625 C 249.015625 71.097656 251.046875 67.808594 250.191406 64.667969 Z M 250.191406 64.667969 "/>
<path style=" stroke:none;fill-rule:nonzero;fill:rgb(54.901961%,26.27451%,100%);fill-opacity:1;" d="M 249.269531 64.484375 C 250.066406 67.398438 248.347656 70.410156 245.429688 71.207031 C 242.511719 72.003906 239.503906 70.285156 238.707031 67.367188 C 237.910156 64.449219 239.628906 61.441406 242.546875 60.644531 C 245.460938 59.847656 248.472656 61.566406 249.269531 64.484375 Z M 249.269531 64.484375 "/>
<path style=" stroke:none;fill-rule:nonzero;fill:url(#linear9);" d="M 135.972656 162.628906 C 135.117188 159.484375 131.691406 157.683594 128.328125 158.601562 C 124.964844 159.523438 122.929688 162.8125 123.789062 165.953125 C 124.644531 169.09375 128.070312 170.894531 131.433594 169.976562 C 134.796875 169.058594 136.832031 165.769531 135.972656 162.628906 Z M 135.972656 162.628906 "/>
<path style=" stroke:none;fill-rule:nonzero;fill:rgb(12.941176%,58.823529%,95.294118%);fill-opacity:1;" d="M 135.050781 162.445312 C 135.847656 165.363281 134.128906 168.371094 131.210938 169.167969 C 128.296875 169.964844 125.285156 168.246094 124.488281 165.328125 C 123.695312 162.410156 125.414062 159.402344 128.328125 158.605469 C 131.246094 157.808594 134.253906 159.527344 135.050781 162.445312 Z M 135.050781 162.445312 "/>
<path style=" stroke:none;fill-rule:nonzero;fill:url(#linear10);" d="M 200.550781 144.996094 C 199.691406 141.855469 196.269531 140.054688 192.90625 140.972656 C 189.539062 141.890625 187.507812 145.179688 188.363281 148.320312 C 189.222656 151.464844 192.644531 153.265625 196.007812 152.347656 C 199.375 151.425781 201.40625 148.136719 200.550781 144.996094 Z M 200.550781 144.996094 "/>
<path style=" stroke:none;fill-rule:nonzero;fill:rgb(12.941176%,58.823529%,95.294118%);fill-opacity:1;" d="M 199.625 144.8125 C 200.417969 147.730469 198.699219 150.738281 195.785156 151.535156 C 192.867188 152.332031 189.859375 150.613281 189.0625 147.695312 C 188.265625 144.78125 189.984375 141.769531 192.902344 140.972656 C 195.816406 140.175781 198.828125 141.894531 199.625 144.8125 Z M 199.625 144.8125 "/>
<path style=" stroke:none;fill-rule:nonzero;fill:url(#linear11);" d="M 267.152344 126.808594 C 266.292969 123.667969 262.871094 121.867188 259.507812 122.785156 C 256.140625 123.703125 254.109375 126.996094 254.96875 130.136719 C 255.824219 133.277344 259.246094 135.078125 262.613281 134.160156 C 265.976562 133.242188 268.007812 129.949219 267.152344 126.808594 Z M 267.152344 126.808594 "/>
<path style=" stroke:none;fill-rule:nonzero;fill:rgb(12.941176%,58.823529%,95.294118%);fill-opacity:1;" d="M 266.230469 126.625 C 267.027344 129.542969 265.308594 132.554688 262.390625 133.351562 C 259.472656 134.144531 256.464844 132.425781 255.667969 129.511719 C 254.871094 126.59375 256.589844 123.582031 259.507812 122.785156 C 262.421875 121.992188 265.433594 123.710938 266.230469 126.625 Z M 266.230469 126.625 "/>
<path style=" stroke:none;fill-rule:nonzero;fill:rgb(96.078431%,96.078431%,96.078431%);fill-opacity:1;" d="M 44.515625 118.003906 L 345.105469 118.003906 L 345.105469 266.359375 L 44.515625 266.359375 Z M 44.515625 118.003906 "/>
<path style=" stroke:none;fill-rule:nonzero;fill:url(#linear12);" d="M 42.425781 117.816406 L 346.804688 117.816406 L 346.804688 269.808594 L 42.425781 269.808594 Z M 42.425781 117.816406 "/>
<path style=" stroke:none;fill-rule:nonzero;fill:rgb(100%,100%,100%);fill-opacity:1;" d="M 44.515625 132.976562 L 345.105469 132.976562 L 345.105469 266.265625 L 44.515625 266.265625 Z M 44.515625 132.976562 "/>
<path style=" stroke:none;fill-rule:nonzero;fill:rgb(100%,32.156863%,32.156863%);fill-opacity:1;" d="M 55.460938 125.21875 C 55.460938 127.308594 53.765625 129.007812 51.671875 129.007812 C 49.582031 129.007812 47.882812 127.308594 47.882812 125.21875 C 47.882812 123.125 49.582031 121.429688 51.671875 121.429688 C 53.765625 121.429688 55.460938 123.125 55.460938 125.21875 Z M 55.460938 125.21875 "/>
<path style=" stroke:none;fill-rule:nonzero;fill:rgb(100%,100%,0%);fill-opacity:1;" d="M 66.824219 125.21875 C 66.824219 127.308594 65.128906 129.007812 63.039062 129.007812 C 60.945312 129.007812 59.25 127.308594 59.25 125.21875 C 59.25 123.125 60.945312 121.429688 63.039062 121.429688 C 65.128906 121.429688 66.824219 123.125 66.824219 125.21875 Z M 66.824219 125.21875 "/>
<path style=" stroke:none;fill-rule:nonzero;fill:rgb(41.176471%,94.117647%,68.235294%);fill-opacity:1;" d="M 78.195312 125.21875 C 78.195312 127.308594 76.5 129.007812 74.40625 129.007812 C 72.3125 129.007812 70.617188 127.308594 70.617188 125.21875 C 70.617188 123.125 72.3125 121.429688 74.40625 121.429688 C 76.5 121.429688 78.195312 123.125 78.195312 125.21875 Z M 78.195312 125.21875 "/>
<path style=" stroke:none;fill-rule:nonzero;fill:rgb(54.901961%,26.27451%,100%);fill-opacity:1;" d="M 44.515625 132.800781 L 123.664062 132.800781 L 123.664062 266.265625 L 44.515625 266.265625 Z M 44.515625 132.800781 "/>
<path style=" stroke:none;fill-rule:nonzero;fill:url(#linear13);" d="M 105.152344 174.480469 C 105.152344 163.4375 95.722656 154.480469 84.105469 154.480469 C 72.488281 154.480469 63.054688 163.433594 63.054688 174.480469 C 63.054688 183.152344 68.859375 190.527344 76.976562 193.304688 L 76.976562 188.152344 C 76.976562 184.425781 80.183594 181.378906 84.105469 181.378906 C 88.035156 181.378906 91.234375 184.425781 91.234375 188.152344 L 91.234375 193.304688 C 99.347656 190.527344 105.152344 183.148438 105.152344 174.480469 Z M 105.152344 174.480469 "/>
<path style=" stroke:none;fill-rule:nonzero;fill:url(#linear14);" d="M 83.960938 178.277344 L 84.242188 178.277344 C 84.863281 178.277344 85.367188 178.78125 85.367188 179.402344 L 85.367188 185.636719 C 85.367188 186.257812 84.863281 186.761719 84.242188 186.761719 L 83.960938 186.761719 C 83.339844 186.761719 82.835938 186.257812 82.835938 185.636719 L 82.835938 179.402344 C 82.835938 178.78125 83.339844 178.277344 83.960938 178.277344 Z M 83.960938 178.277344 "/>
<path style=" stroke:none;fill-rule:nonzero;fill:url(#linear15);" d="M 92.207031 171.730469 C 92.207031 167.484375 88.585938 164.042969 84.117188 164.042969 C 79.648438 164.042969 76.027344 167.484375 76.027344 171.730469 C 76.027344 175.976562 79.648438 179.417969 84.117188 179.417969 C 88.585938 179.417969 92.207031 175.976562 92.207031 171.730469 Z M 92.207031 171.730469 "/>
<path style=" stroke:none;fill-rule:nonzero;fill:url(#linear16);" d="M 84.105469 181.378906 C 80.175781 181.378906 76.976562 184.425781 76.976562 188.152344 L 76.976562 193.304688 C 81.597656 194.871094 86.609375 194.871094 91.230469 193.304688 L 91.230469 188.152344 C 91.230469 184.425781 88.023438 181.378906 84.105469 181.378906 Z M 84.105469 181.378906 "/>
<path style=" stroke:none;fill-rule:nonzero;fill:url(#linear17);" d="M 75.941406 171.300781 C 75.296875 170.121094 74.996094 168.78125 75.078125 167.433594 C 75.179688 166.074219 75.824219 164.808594 76.871094 163.929688 C 78.050781 162.976562 79.648438 162.636719 81.191406 162.519531 C 82.738281 162.402344 84.300781 162.472656 85.824219 162.1875 C 88.324219 161.722656 90.542969 160.292969 92 158.207031 C 92.152344 159.332031 92.140625 160.472656 91.964844 161.589844 C 91.769531 162.738281 91.101562 163.753906 90.121094 164.386719 C 91.351562 163.847656 91.21875 165.113281 90.949219 165.871094 C 91.558594 166.570312 93.042969 166.683594 93.117188 167.589844 C 93.238281 168.492188 93.132812 169.410156 92.804688 170.261719 C 92.433594 171.09375 92.832031 172.5625 91.882812 172.621094 "/>
<path style=" stroke:none;fill-rule:nonzero;fill:rgb(54.901961%,26.27451%,100%);fill-opacity:1;" d="M 104.085938 171.535156 C 104.082031 161.378906 96.46875 152.835938 86.382812 151.667969 C 76.292969 150.503906 66.933594 157.082031 64.613281 166.972656 C 62.296875 176.859375 67.757812 186.917969 77.316406 190.355469 L 77.316406 185.210938 C 77.324219 181.476562 80.351562 178.449219 84.085938 178.441406 C 87.828125 178.441406 90.867188 181.46875 90.875 185.210938 L 90.875 190.363281 C 98.808594 187.5 104.089844 179.96875 104.085938 171.535156 Z M 104.085938 171.535156 "/>
<path style="fill-rule:nonzero;fill:rgb(100%,100%,100%);fill-opacity:1;stroke-width:1;stroke-linecap:butt;stroke-linejoin:miter;stroke:rgb(100%,100%,100%);stroke-opacity:1;stroke-miterlimit:10;" d="M 213.781982 446.122613 L 214.179586 446.122613 C 215.760064 446.122613 217.042338 447.404774 217.042338 448.975174 L 217.042338 464.838194 C 217.042338 466.418533 215.760064 467.700694 214.179586 467.700694 L 213.781982 467.700694 C 212.201504 467.700694 210.91923 466.418533 210.91923 464.838194 L 210.91923 448.975174 C 210.91923 447.404774 212.201504 446.122613 213.781982 446.122613 Z M 213.781982 446.122613 " transform="matrix(0.392978,0,0,0.393013,0,0)"/>
<path style="fill-rule:nonzero;fill:rgb(100%,100%,100%);fill-opacity:1;stroke-width:1;stroke-linecap:butt;stroke-linejoin:miter;stroke:rgb(100%,100%,100%);stroke-opacity:1;stroke-miterlimit:10;" d="M 233.572744 429.464453 C 233.572744 440.258464 224.815506 449.02487 214.010604 449.02487 C 203.205703 449.02487 194.448465 440.258464 194.448465 429.464453 C 194.448465 418.660503 203.205703 409.904036 214.010604 409.904036 C 224.815506 409.904036 233.572744 418.660503 233.572744 429.464453 Z M 233.572744 429.464453 " transform="matrix(0.392978,0,0,0.393013,0,0)"/>
<path style="fill-rule:nonzero;fill:rgb(100%,100%,100%);fill-opacity:1;stroke-width:1;stroke-linecap:butt;stroke-linejoin:miter;stroke:rgb(100%,100%,100%);stroke-opacity:1;stroke-miterlimit:10;" d="M 372.730784 560.754366 C 363.218097 560.774245 355.514511 568.487092 355.50457 577.998941 L 355.50457 591.108793 C 366.637495 595.104366 378.824072 595.104366 389.956997 591.108793 L 389.956997 577.998941 C 389.947057 568.487092 382.243471 560.774245 372.730784 560.754366 Z M 372.730784 560.754366 " transform="matrix(0.392978,0,0,0.393013,-62.385334,-41.950218)"/>
<path style="fill-rule:nonzero;fill:rgb(100%,100%,100%);fill-opacity:1;stroke-width:1;stroke-linecap:butt;stroke-linejoin:miter;stroke:rgb(100%,100%,100%);stroke-opacity:1;stroke-miterlimit:10;" d="M 352.999662 535.121076 C 351.429125 532.089609 350.713437 528.690391 350.912239 525.281233 C 351.140861 521.852196 352.691519 518.651762 355.246128 516.355799 C 358.09894 513.930625 361.955703 513.065911 365.693185 512.767734 C 369.420727 512.469557 373.197969 512.648464 376.875811 511.932839 C 383.0188 510.690434 388.3964 507.042734 391.815798 501.804757 C 392.183582 504.657318 392.163702 507.559575 391.736277 510.412135 C 391.288972 513.294514 389.678674 515.858837 387.283107 517.518689 C 390.275081 516.147075 389.927177 519.367387 389.28107 521.295599 C 390.752206 523.084661 394.280946 523.372899 394.509569 525.668863 C 394.807772 527.964826 394.549329 530.300547 393.76406 532.4673 C 392.85951 534.594297 393.823701 538.33145 391.527535 538.470599 " transform="matrix(0.392978,0,0,0.393013,-62.385334,-41.950218)"/>
<path style=" stroke:none;fill-rule:nonzero;fill:rgb(100%,100%,100%);fill-opacity:1;" d="M 90.242188 161.238281 C 90.242188 161.238281 95.609375 161.707031 91.789062 169.667969 "/>
<use xlink:href="#surface8" mask="url(#mask1)"/>
<path style=" stroke:none;fill-rule:nonzero;fill:rgb(100%,100%,100%);fill-opacity:1;" d="M 59.460938 213.847656 L 98.195312 213.847656 L 98.195312 217.636719 L 59.460938 217.636719 Z M 59.460938 213.847656 "/>
<path style=" stroke:none;fill-rule:nonzero;fill:rgb(74.117647%,74.117647%,74.117647%);fill-opacity:1;" d="M 153.339844 155.324219 L 192.070312 155.324219 L 192.070312 159.113281 L 153.339844 159.113281 Z M 153.339844 155.324219 "/>
<path style=" stroke:none;fill-rule:nonzero;fill:rgb(87.843137%,87.843137%,87.843137%);fill-opacity:1;" d="M 153.339844 178.058594 L 291.84375 178.058594 L 291.84375 181.847656 L 153.339844 181.847656 Z M 153.339844 178.058594 "/>
<path style=" stroke:none;fill-rule:nonzero;fill:rgb(87.843137%,87.843137%,87.843137%);fill-opacity:1;" d="M 153.339844 200.792969 L 291.84375 200.792969 L 291.84375 204.582031 L 153.339844 204.582031 Z M 153.339844 200.792969 "/>
<path style=" stroke:none;fill-rule:nonzero;fill:rgb(39.215686%,100%,85.490196%);fill-opacity:1;" d="M 153.339844 223.53125 L 192.070312 223.53125 L 192.070312 227.320312 L 153.339844 227.320312 Z M 153.339844 223.53125 "/>
<path style=" stroke:none;fill-rule:nonzero;fill:rgb(96.078431%,96.078431%,96.078431%);fill-opacity:1;" d="M 203.015625 223.53125 L 241.75 223.53125 L 241.75 227.320312 L 203.015625 227.320312 Z M 203.015625 223.53125 "/>
<path style=" stroke:none;fill-rule:nonzero;fill:rgb(39.215686%,100%,85.490196%);fill-opacity:1;" d="M 253.117188 223.53125 L 291.847656 223.53125 L 291.847656 227.320312 L 253.117188 227.320312 Z M 253.117188 223.53125 "/>
<path style=" stroke:none;fill-rule:nonzero;fill:rgb(100%,100%,100%);fill-opacity:1;" d="M 59.460938 222.6875 L 107.457031 222.6875 L 107.457031 226.476562 L 59.460938 226.476562 Z M 59.460938 222.6875 "/>
</g>
</svg>
